<?xml version="1.0" encoding="UTF-8"?>
<svg version="1.1" xmlns="http://www.w3.org/2000/svg" width="225" height="225">
<path d="M0 0 C74.25 0 148.5 0 225 0 C225 74.25 225 148.5 225 225 C150.75 225 76.5 225 0 225 C0 150.75 0 76.5 0 0 Z " fill="#9BCEFE" transform="translate(0,0)"/>
<path d="M0 0 C0.98996979 0.0031572 0.98996979 0.0031572 1.99993896 0.00637817 C22.93534957 0.08483911 22.93534957 0.08483911 32.00927734 2.77075195 C37.44708014 3.93379476 43.2068965 3.49160613 48.75 3.5 C49.45172333 3.50233643 50.15344666 3.50467285 50.87643433 3.50708008 C59.13769513 3.51744301 67.16816524 3.27321737 75.3125 1.75 C93.37651175 -1.5362887 124.10898325 -4.51067783 140.25 6.25 C140.25 7.24 140.25 8.23 140.25 9.25 C141.09933105 9.62451294 141.09933105 9.62451294 141.96582031 10.0065918 C146.59744505 12.52784712 150.20515742 16.44983228 154 20.0625 C154.88816406 20.85076172 155.77632812 21.63902344 156.69140625 22.45117188 C160.30207634 25.92041019 162.91930403 28.49568539 163.86572266 33.51635742 C163.89770741 36.83059878 163.67777903 39.9653062 163.25 43.25 C163.17716797 43.99016357 163.10433594 44.73032715 163.02929688 45.49291992 C160.44423845 67.28889625 151.02111475 87.38890014 137.25 104.25 C136.60289062 105.05050781 135.95578125 105.85101563 135.2890625 106.67578125 C117.8637927 127.26604904 92.34361947 139.69327895 66.02383423 143.74687195 C60.40203042 143.00669195 57.9383883 139.8664512 54.09912109 135.89379883 C53.31609116 135.11179108 52.53306122 134.32978333 51.7263031 133.52407837 C49.1417437 130.93464247 46.58286873 128.32128737 44.0234375 125.70703125 C42.23091373 123.90144572 40.43683356 122.09740411 38.64126587 120.29484558 C34.39862157 116.02820222 30.17192926 111.74636099 25.95258582 107.4567191 C21.16762722 102.59375156 16.36300327 97.75042134 11.55649829 92.90876353 C3.33375961 84.62522942 -4.87416337 76.32725818 -13.06529236 68.01246643 C-13.74359604 67.32404663 -14.42189972 66.63562683 -15.12075806 65.92634583 C-15.74795368 65.28958231 -16.37514931 64.65281879 -17.02135086 63.99675941 C-18.55135297 62.45072816 -20.09182539 60.91631548 -21.63729858 59.38578796 C-23.66101658 57.33995579 -25.27720269 55.32546484 -26.875 52.9375 C-27.35195313 52.24011719 -27.82890625 51.54273438 -28.3203125 50.82421875 C-32.20319834 43.83290245 -33.31221004 37.21894534 -33.921875 29.34179688 C-34.34921506 24.78487256 -35.42711927 22.10685856 -37.75 18.25 C-38.04296875 14.91796875 -38.04296875 14.91796875 -37.9375 11.4375 C-37.91042969 10.27605469 -37.88335937 9.11460938 -37.85546875 7.91796875 C-37.82066406 7.03753906 -37.78585938 6.15710938 -37.75 5.25 C-35.98044256 4.78676507 -34.20925488 4.32975792 -32.4375 3.875 C-31.45136719 3.61976562 -30.46523438 3.36453125 -29.44921875 3.1015625 C-19.50176375 0.81165206 -10.22823616 -0.07282865 0 0 Z " fill="#83AFD8" transform="translate(61.75,80.75)"/>
<path d="M0 0 C0.98996979 0.0031572 0.98996979 0.0031572 1.99993896 0.00637817 C22.93534957 0.08483911 22.93534957 0.08483911 32.00927734 2.77075195 C37.44708014 3.93379476 43.2068965 3.49160613 48.75 3.5 C49.45172333 3.50233643 50.15344666 3.50467285 50.87643433 3.50708008 C59.13769513 3.51744301 67.16816524 3.27321737 75.3125 1.75 C94.06096497 -1.6608076 121.59751873 -3.57624063 139.25 5.25 C139.30386629 7.37472576 139.34273071 9.49983652 139.375 11.625 C139.39820313 12.80835937 139.42140625 13.99171875 139.4453125 15.2109375 C139.25 18.25 139.25 18.25 137.25 20.25 C136.69832784 22.58361959 136.69832784 22.58361959 136.390625 25.30859375 C136.17647949 26.8402417 136.17647949 26.8402417 135.95800781 28.40283203 C135.80686523 29.48677246 135.65572266 30.57071289 135.5 31.6875 C133.81188577 42.60557972 132.23028744 51.52886992 123.25 58.8125 C117.18351465 63.07167825 111.17835047 63.58356801 104 63.5 C103.15244141 63.49178223 102.30488281 63.48356445 101.43164062 63.47509766 C88.36838141 63.24164587 78.26285988 60.20851223 68.4375 51.125 C61.3374649 43.54231493 57.93336626 34.73112308 55.98828125 24.6484375 C55.42121491 21.90767135 55.42121491 21.90767135 52.25 20.25 C49.66666667 20.33333333 49.66666667 20.33333333 47.25 21.25 C45.19919338 24.32620992 44.69506444 26.24776427 43.9375 29.8125 C41.05269361 41.60752119 35.74779442 50.20465419 25.5390625 57.07421875 C16.66137855 62.20934966 8.34300154 63.60135043 -1.8125 63.5625 C-3.0819043 63.58666992 -3.0819043 63.58666992 -4.37695312 63.61132812 C-11.77754457 63.61703406 -18.69573306 62.16735103 -24.30859375 56.90625 C-31.16303479 49.03014431 -32.67877932 40.69063757 -33.7253418 30.59960938 C-34.26570444 25.59123541 -35.05856942 22.56658402 -37.75 18.25 C-38.04296875 14.91796875 -38.04296875 14.91796875 -37.9375 11.4375 C-37.91042969 10.27605469 -37.88335937 9.11460938 -37.85546875 7.91796875 C-37.82066406 7.03753906 -37.78585938 6.15710938 -37.75 5.25 C-35.98044256 4.78676507 -34.20925488 4.32975792 -32.4375 3.875 C-31.45136719 3.61976562 -30.46523438 3.36453125 -29.44921875 3.1015625 C-19.50176375 0.81165206 -10.22823616 -0.07282865 0 0 Z " fill="#82AED6" transform="translate(61.75,80.75)"/>
<path d="M0 0 C5.26109995 5.66579995 5.35850216 9.68449069 5.265625 17.26171875 C4.51037005 27.89082152 -0.28419917 34.89498147 -8 42 C-18.53976787 50.87362339 -30.7007925 52.01649994 -44 51 C-51.18250234 49.68210966 -56.70787543 45.2089744 -60.875 39.375 C-63.71556484 33.37825201 -63.25684939 27.1398315 -63.3125 20.625 C-63.34150391 19.5009375 -63.37050781 18.376875 -63.40039062 17.21875 C-63.4623152 9.15902871 -62.55099065 5.65859642 -56.9375 -0.125 C-40.95663583 -10.3255516 -15.9821871 -10.06285855 0 0 Z " fill="#82AED7" transform="translate(96,92)"/>
<path d="M0 0 C34.32 0 68.64 0 104 0 C104 33.33 104 66.66 104 101 C103.67 101 103.34 101 103 101 C102.93683594 100.30519531 102.87367188 99.61039062 102.80859375 98.89453125 C100.03454617 75.85533606 89.90034557 52.60954337 73.19921875 36.2578125 C71 34 71 34 71 32 C70.41863281 31.74347656 69.83726562 31.48695312 69.23828125 31.22265625 C66.79593858 29.88853189 65.17634553 28.37927227 63.1875 26.4375 C45.82902589 10.75796027 22.81035512 3.67116639 0 1 C0 0.67 0 0.34 0 0 Z " fill="#FEFEFF" transform="translate(121,0)"/>
<path d="M0 0 C0.33 0 0.66 0 1 0 C1 33.33 1 66.66 1 101 C-33.98 101 -68.96 101 -105 101 C-105 100.67 -105 100.34 -105 100 C-103.93523437 99.90203125 -102.87046875 99.8040625 -101.7734375 99.703125 C-72.86464939 96.82397729 -45.26575967 84.13071029 -26.25 61.6875 C-11.91100688 43.14660414 -3.24890476 23.34081576 0 0 Z " fill="#FEFEFE" transform="translate(224,124)"/>
<path d="M0 0 C0.33 0 0.66 0 1 0 C1.08636719 0.94617188 1.17273438 1.89234375 1.26171875 2.8671875 C2.9985994 19.94724304 7.54647561 35.04473317 16 50 C16.54398438 50.97324219 17.08796875 51.94648438 17.6484375 52.94921875 C31.5757739 76.21806128 55.0997629 94.25978554 81.4140625 101.22265625 C87.89635429 102.82603525 94.37794642 104.12799555 101 105 C101 105.33 101 105.66 101 106 C67.67 106 34.34 106 0 106 C0 71.02 0 36.04 0 0 Z " fill="#FEFEFF" transform="translate(0,119)"/>
<path d="M0 0 C34.32 0 68.64 0 104 0 C104 0.33 104 0.66 104 1 C103.030625 1.08636719 102.06125 1.17273438 101.0625 1.26171875 C72.77254882 4.09213977 44.80691313 18.06134022 26.51049805 40.12475586 C12.1437091 58.2737444 2.68756164 79.79602746 1 103 C0.67 103 0.34 103 0 103 C0 69.01 0 35.02 0 0 Z " fill="#FEFEFF" transform="translate(0,0)"/>
<path d="M0 0 C0.98996979 0.0031572 0.98996979 0.0031572 1.99993896 0.00637817 C22.93534957 0.08483911 22.93534957 0.08483911 32.00927734 2.77075195 C37.44708014 3.93379476 43.2068965 3.49160613 48.75 3.5 C49.45172333 3.50233643 50.15344666 3.50467285 50.87643433 3.50708008 C59.13769513 3.51744301 67.16816524 3.27321737 75.3125 1.75 C94.06096497 -1.6608076 121.59751873 -3.57624063 139.25 5.25 C139.30386629 7.37472576 139.34273071 9.49983652 139.375 11.625 C139.39820313 12.80835937 139.42140625 13.99171875 139.4453125 15.2109375 C139.25 18.25 139.25 18.25 137.25 20.25 C136.69832784 22.58361959 136.69832784 22.58361959 136.390625 25.30859375 C136.17647949 26.8402417 136.17647949 26.8402417 135.95800781 28.40283203 C135.80686523 29.48677246 135.65572266 30.57071289 135.5 31.6875 C133.81188577 42.60557972 132.23028744 51.52886992 123.25 58.8125 C117.18351465 63.07167825 111.17835047 63.58356801 104 63.5 C103.15244141 63.49178223 102.30488281 63.48356445 101.43164062 63.47509766 C88.36838141 63.24164587 78.26285988 60.20851223 68.4375 51.125 C61.3374649 43.54231493 57.93336626 34.73112308 55.98828125 24.6484375 C55.42121491 21.90767135 55.42121491 21.90767135 52.25 20.25 C49.66666667 20.33333333 49.66666667 20.33333333 47.25 21.25 C45.19919338 24.32620992 44.69506444 26.24776427 43.9375 29.8125 C41.05269361 41.60752119 35.74779442 50.20465419 25.5390625 57.07421875 C16.66137855 62.20934966 8.34300154 63.60135043 -1.8125 63.5625 C-3.0819043 63.58666992 -3.0819043 63.58666992 -4.37695312 63.61132812 C-11.77754457 63.61703406 -18.69573306 62.16735103 -24.30859375 56.90625 C-31.16303479 49.03014431 -32.67877932 40.69063757 -33.7253418 30.59960938 C-34.26570444 25.59123541 -35.05856942 22.56658402 -37.75 18.25 C-38.04296875 14.91796875 -38.04296875 14.91796875 -37.9375 11.4375 C-37.91042969 10.27605469 -37.88335937 9.11460938 -37.85546875 7.91796875 C-37.82066406 7.03753906 -37.78585938 6.15710938 -37.75 5.25 C-35.98044256 4.78676507 -34.20925488 4.32975792 -32.4375 3.875 C-31.45136719 3.61976562 -30.46523438 3.36453125 -29.44921875 3.1015625 C-19.50176375 0.81165206 -10.22823616 -0.07282865 0 0 Z M-26.1875 14.9375 C-29.71658736 20.16054929 -28.97223281 25.27665428 -29 31.4375 C-29.020625 32.56220703 -29.04125 33.68691406 -29.0625 34.84570312 C-29.10729162 44.36952128 -27.61256335 50.2314693 -20.75 57.25 C-12.49507519 63.07482335 -3.48769243 63.08635224 6.25 62.25 C14.43298514 60.72169434 21.19740279 58.00703514 27.25 52.25 C27.94996094 51.59 28.64992187 50.93 29.37109375 50.25 C36.63652944 42.78459819 39.40073285 35.30636864 39.75 24.9375 C39.57466548 19.58979704 39.17201391 16.17201391 35.25 12.25 C20.02997388 -0.4333551 -12.62960829 -0.01094471 -26.1875 14.9375 Z M63.75 14.6875 C60.64984223 22.05037469 61.35818958 30.45389297 63.6875 38 C67.9133802 48.10342484 76.68369053 56.07625297 86.69921875 60.27734375 C95.67844047 63.18988652 107.47368161 64.26135866 116.375 60.5625 C122.39415536 57.30020969 127.69823634 53.24192412 129.80932617 46.45068359 C130.76615913 41.67234991 130.52102144 36.73075721 130.5625 31.875 C130.59150391 30.7509375 130.62050781 29.626875 130.65039062 28.46875 C130.7123152 20.40902871 129.80099065 16.90859642 124.1875 11.125 C107.27209235 0.32793129 78.46070309 0.34456448 63.75 14.6875 Z " fill="#050808" transform="translate(61.75,80.75)"/>
<path d="M0 0 C6.75 0.875 6.75 0.875 9 2 C8.67 3.32 8.34 4.64 8 6 C2.25 5.25 2.25 5.25 0 3 C0 2.01 0 1.02 0 0 Z " fill="#E1E1E1" transform="translate(189,88)"/>
<path d="M0 0 C-0.33 1.65 -0.66 3.3 -1 5 C-2.98 5.33 -4.96 5.66 -7 6 C-7.66 5.01 -8.32 4.02 -9 3 C-5.92807025 0.26939578 -4.09590633 -0.34132553 0 0 Z " fill="#E3E4E4" transform="translate(34,88)"/>
<path d="M0 0 C2.7588596 1.0838377 4.01033393 2.01308965 5.875 4.375 C8.2622919 7.32400764 10.78286452 9.02584869 14 11 C13.67 11.66 13.34 12.32 13 13 C6.84890174 9.41185935 3.00423848 6.53095322 0 0 Z " fill="#0E1318" transform="translate(33,130)"/>
<path d="M0 0 C0.99 0.33 1.98 0.66 3 1 C-0.57144225 5.761923 -3.61835615 8.40883815 -9 11 C-9.99 11 -10.98 11 -12 11 C-12 10.34 -12 9.68 -12 9 C-11.46890625 8.76925781 -10.9378125 8.53851563 -10.390625 8.30078125 C-5.79832691 6.18061443 -2.88155149 4.32232724 0 0 Z " fill="#0F1419" transform="translate(188,132)"/>
</svg>
