<?xml version="1.0" encoding="UTF-8"?>
<svg version="1.1" xmlns="http://www.w3.org/2000/svg" width="512" height="512">
<path d="M0 0 C1.55810547 1.97680664 1.55810547 1.97680664 2.8671875 4.41015625 C3.35711182 5.30919678 3.84703613 6.2082373 4.35180664 7.13452148 C4.85446045 8.10075439 5.35711426 9.0669873 5.875 10.0625 C6.4002124 11.05386963 6.9254248 12.04523926 7.46655273 13.06665039 C17.15143864 31.6200202 22.57198101 48.44346128 22.16918945 69.43222046 C22.09366995 73.39329123 22.06902896 77.3547733 22.0390625 81.31640625 C22.03203308 82.08318192 22.02500366 82.84995758 22.01776123 83.63996887 C21.9651854 90.66691942 22.29560214 97.63115745 22.7644043 104.64111328 C23.00994403 108.74970614 23.07407586 112.8495455 23.05859375 116.96484375 C23.05705795 117.69474518 23.05552216 118.42464661 23.05393982 119.17666626 C23.02094044 127.07988608 22.80994062 134.97602935 22.5625 142.875 C22.54043488 143.60692566 22.51836975 144.33885132 22.49563599 145.09295654 C22.15406824 156.40428763 21.70036919 167.70468411 21 179 C21.63808594 179.34933594 22.27617187 179.69867188 22.93359375 180.05859375 C23.75988281 180.51363281 24.58617187 180.96867188 25.4375 181.4375 C26.26121094 181.88996094 27.08492188 182.34242188 27.93359375 182.80859375 C30 184 30 184 31 185 C31.10108227 186.9778448 31.13077449 188.95934961 31.13371277 190.93977356 C31.14011024 192.87683418 31.14011024 192.87683418 31.14663696 194.85302734 C31.1462874 196.29760745 31.14582583 197.74218754 31.14526367 199.18676758 C31.14825358 200.69764795 31.15165571 202.20852754 31.15544128 203.71940613 C31.16430413 207.83519077 31.16662039 211.95095464 31.16725707 216.0667479 C31.16820456 219.4986616 31.17188113 222.93057042 31.17542917 226.36248225 C31.18358292 234.45886111 31.18601262 242.55522884 31.18530273 250.65161133 C31.18470216 259.01024744 31.19524788 267.36881898 31.2110464 275.72743875 C31.22411411 282.89604268 31.22948693 290.0646255 31.22884732 297.23324126 C31.22859205 301.51800819 31.23145936 305.80271781 31.24202538 310.08747292 C31.25169309 314.11836484 31.25179469 318.14914452 31.24450874 322.18004036 C31.24346114 323.66030287 31.24583617 325.14057232 31.2518692 326.62082291 C31.25956718 328.64029303 31.25375489 330.65980124 31.24723816 332.67927551 C31.24778293 333.80993848 31.24832769 334.94060144 31.24888897 336.10552692 C31.00494579 338.94248259 30.47442053 340.59648172 29 343 C29.89203125 342.95359375 30.7840625 342.9071875 31.703125 342.859375 C32.87359375 342.82328125 34.0440625 342.7871875 35.25 342.75 C36.41015625 342.70359375 37.5703125 342.6571875 38.765625 342.609375 C42 343 42 343 44.42578125 344.4140625 C46.86329196 348.41811235 46.30018264 352.05887573 45.9375 356.625 C45.8461377 357.97271484 45.8461377 357.97271484 45.75292969 359.34765625 C44.58232992 374.35311183 44.58232992 374.35311183 39.5 379.5625 C36.95803292 381.02413107 34.96435839 382 32 382 C30.54583386 382.91143476 29.1115011 383.85462038 27.6875 384.8125 C16.82600683 391.37051513 3.6807432 391.77697878 -8.68603516 392.93530273 C-11.39193716 393.18908853 -14.09633179 393.4558245 -16.80078125 393.72460938 C-18.54159401 393.89397759 -20.28247725 394.06262333 -22.0234375 394.23046875 C-22.82147797 394.3085527 -23.61951843 394.38663666 -24.44174194 394.46708679 C-33.99551322 395.35400248 -43.69678013 395.82839739 -51.5625 389.4375 C-54.57825679 386.42174321 -55.15113521 385.06126684 -55.1875 380.9375 C-55.03057921 372.02154596 -53.06983746 364.78317306 -47 358 C-44.03 356.02 -44.03 356.02 -41 354 C-54.86 354 -68.72 354 -83 354 C-82.84226372 362.94507629 -82.84226372 362.94507629 -82.63964844 371.88916016 C-82.53728658 383.38505757 -82.53728658 383.38505757 -87 388 C-92.15789474 392 -92.15789474 392 -96 392 C-95.90513994 388.07101989 -95.79878878 384.14252039 -95.68261719 380.21411133 C-95.62634176 378.23469465 -95.57869039 376.25503875 -95.53125 374.27539062 C-95.29989884 366.66008145 -94.61823987 359.44374945 -93 352 C-92.8467627 351.11038574 -92.69352539 350.22077148 -92.53564453 349.30419922 C-91.8623094 346.40769196 -90.83250515 345.59533693 -88.5 343.8125 C-85.80490429 341.77978012 -85.80490429 341.77978012 -84 339 C-83.88743408 337.2730037 -83.83752976 335.54177594 -83.817276 333.81123352 C-83.80196335 332.7110791 -83.7866507 331.61092468 -83.77087402 330.47743225 C-83.75890991 329.26454025 -83.7469458 328.05164825 -83.73461914 326.80200195 C-83.70937906 324.84700469 -83.68413711 322.89200746 -83.65882576 320.93701112 C-83.63244343 318.83001137 -83.60842565 316.72299576 -83.58500862 314.61596107 C-83.53576913 310.21355015 -83.47826272 305.8112713 -83.41929626 301.40898132 C-83.2528856 288.88792984 -83.09820095 276.36674366 -82.95043945 263.84545898 C-82.86880452 256.93400123 -82.78056952 250.02265704 -82.68557256 243.11136979 C-82.6260239 238.75016609 -82.57448137 234.38896894 -82.52918065 230.02759516 C-82.49166695 226.64500095 -82.44225016 223.26259556 -82.39477539 219.88012695 C-82.37986557 218.10026146 -82.37986557 218.10026146 -82.36465454 216.28443909 C-81.99431899 193.0663233 -81.99431899 193.0663233 -77 186 C-75.96965165 185.02787694 -74.92442847 184.07121942 -73.86328125 183.1328125 C-69.15908363 177.7495236 -70.1467676 170.63498166 -70.1875 163.875 C-70.1731754 161.85207514 -70.15049453 159.82935831 -70.1272583 157.80651855 C-70.10563143 155.81963294 -70.09233489 153.83266238 -70.07910156 151.84570312 C-69.98234405 147.1416156 -69.64347054 142.4834326 -69.22436523 137.79833984 C-68.6315755 130.40491663 -69.03147537 123.07722473 -69.5 115.6875 C-71.2532854 87.34220032 -69.49438555 59.28447419 -50 37 C-49.36835938 36.25878906 -48.73671875 35.51757812 -48.0859375 34.75390625 C-12.09463402 -6.44849329 -12.09463402 -6.44849329 0 0 Z M-51.25 187.4375 C-52.40757812 187.57220703 -53.56515625 187.70691406 -54.7578125 187.84570312 C-59.55279224 188.41323826 -64.26873113 189.03168702 -69 190 C-69.89799727 207.12820736 -70.200059 224.23127302 -70.30332303 241.3809135 C-70.32563559 244.93491846 -70.35279639 248.48888682 -70.37937927 252.04286194 C-70.42870935 258.73215189 -70.47386187 265.42146282 -70.51740164 272.1107927 C-70.56729423 279.74361139 -70.62201431 287.37639329 -70.67708123 295.00917614 C-70.7899814 310.67274985 -70.89700984 326.33635779 -71 342 C-67.77694607 342.87089614 -65.14305517 343.05399707 -61.796875 342.87890625 C-60.8171875 342.83056641 -59.8375 342.78222656 -58.828125 342.73242188 C-57.81234375 342.67634766 -56.7965625 342.62027344 -55.75 342.5625 C-54.71875 342.51029297 -53.6875 342.45808594 -52.625 342.40429688 C-50.08300961 342.27484366 -47.54143407 342.13988672 -45 342 C-45.38744385 341.03513672 -45.38744385 341.03513672 -45.78271484 340.05078125 C-48.57364429 332.79462348 -50.28479234 325.64680905 -51.625 318 C-51.83664795 316.80286377 -52.0482959 315.60572754 -52.26635742 314.37231445 C-52.86350805 310.91775284 -53.43759124 307.46036881 -54 304 C-54.13712402 303.18063965 -54.27424805 302.3612793 -54.41552734 301.51708984 C-59.24993699 271.33100874 -61.10724362 227.39293217 -44 201 C-39.63715725 195.28041956 -34.96421998 190.97614665 -29 187 C-29 186.67 -29 186.34 -29 186 C-36.52303377 185.81592577 -43.78606569 186.5318872 -51.25 187.4375 Z " fill="#020000" transform="translate(280,60)"/>
<path d="M0 0 C0 50.16 0 100.32 0 152 C-61.85035125 152 -61.85035125 152 -65.60620117 148.50561523 C-66.79185569 146.35045402 -67.41388479 144.38861356 -68 142 C-68.23074219 141.1745166 -68.46148437 140.3490332 -68.69921875 139.49853516 C-69.41691063 136.6994337 -70.00542936 133.89786161 -70.5625 131.0625 C-70.77156982 130.00820801 -70.98063965 128.95391602 -71.19604492 127.86767578 C-77.91566156 92.85507306 -84.67186504 40.4786318 -64 9 C-61.20808891 5.43001532 -58.22584383 2.18016817 -55 -1 C-54.44699219 -1.58394531 -53.89398438 -2.16789063 -53.32421875 -2.76953125 C-43.48846012 -11.62903593 -4.31480566 -0.61640081 0 0 Z " fill="#B0B0B0" transform="translate(299,252)"/>
<path d="M0 0 C1.484375 1.6875 1.484375 1.6875 2.75 4 C3.24757813 4.90234375 3.74515625 5.8046875 4.2578125 6.734375 C4.83273437 7.81203125 5.40765625 8.8896875 6 10 C6.74557837 11.31873753 7.49309285 12.63638167 8.2421875 13.953125 C13.17944409 22.77190457 16.82542717 31.07358204 19 41 C19.16585256 41.69750366 19.33170511 42.39500732 19.5025835 43.11364746 C20.96996529 49.69078493 21.27937846 55.9371813 21.24291992 62.66015625 C21.24481827 63.78006454 21.24671661 64.89997284 21.24867249 66.05381775 C21.25235154 69.72345167 21.24172124 73.39288395 21.23046875 77.0625 C21.22927574 79.62174456 21.22882404 82.18098955 21.2290802 84.74023438 C21.22752057 90.08613053 21.21951287 95.4319577 21.20581055 100.77783203 C21.19002489 106.95939659 21.18481487 113.14089886 21.1855461 119.32248211 C21.18615574 125.28122901 21.18095114 131.23995799 21.17275429 137.19869995 C21.16956588 139.73135251 21.16759981 142.26400691 21.16686058 144.79666138 C21.16470275 148.32280644 21.1559726 151.84887192 21.14526367 155.375 C21.14571686 156.42743393 21.14617004 157.47986786 21.14663696 158.56419373 C21.14237198 159.52011917 21.13810699 160.47604462 21.13371277 161.4609375 C21.13203692 162.29415527 21.13036108 163.12737305 21.12863445 163.98583984 C21 166 21 166 20 168 C19.26136719 167.86722656 18.52273438 167.73445312 17.76171875 167.59765625 C-0.94507602 164.34120024 -19.23473341 164.25674137 -38.05859375 166.5625 C-41.10972417 166.9011785 -43.94508032 167.03706543 -47 167 C-47.09318142 153.75101783 -47.16400747 140.50211519 -47.20724869 127.25287056 C-47.22801506 121.0989629 -47.25613012 114.94528144 -47.30175781 108.79150391 C-47.34560918 102.83922007 -47.36921916 96.88715214 -47.37950897 90.93471909 C-47.38683045 88.67761721 -47.40112472 86.42052551 -47.42292023 84.163517 C-47.66367299 58.16995653 -43.72741602 36.25437794 -25 17 C-23.09768035 15.26880952 -21.15559756 13.59802964 -19.19140625 11.9375 C-15.65579365 8.81153949 -12.39626514 5.41536768 -9.1015625 2.0390625 C-5.84098494 -1.12454621 -4.31123472 -1.37536322 0 0 Z " fill="#ED0808" transform="translate(269,71)"/>
<path d="M0 0 C0.75735443 0.01712036 1.51470886 0.03424072 2.29501343 0.05187988 C4.02268485 0.09166103 5.75017184 0.14003814 7.47741699 0.1953125 C10.72350752 0.29030555 13.96868331 0.34369421 17.21582031 0.390625 C24.82397727 0.50070985 32.43143265 0.63984071 40.0390625 0.78125 C42.7031191 0.8297583 45.36718465 0.87775358 48.03125 0.92578125 C54.49221929 1.04257512 60.95315331 1.16117992 67.4140625 1.28125 C67.47868395 5.32457845 67.45431896 9.36271252 67.4140625 13.40625 C67.43339844 14.54835938 67.45273437 15.69046875 67.47265625 16.8671875 C67.3281056 25.15475819 67.3281056 25.15475819 64.73861694 28.34611511 C62.69961998 29.91382559 60.71128689 31.13119977 58.4140625 32.28125 C57.56666504 32.73798096 56.71926758 33.19471191 55.84619141 33.6652832 C48.0881292 36.50893077 40.30928895 37.43075073 32.13720703 38.23706055 C29.81245054 38.46644232 27.4903591 38.71468396 25.16796875 38.96679688 C17.49754373 39.78235784 9.81793792 40.45439824 2.12109375 40.96484375 C1.42893768 41.01505173 0.73678162 41.0652597 0.02365112 41.11698914 C-7.30659388 41.55758059 -13.3519307 40.30424951 -19.1484375 35.71875 C-22.16419429 32.70299321 -22.73707271 31.34251684 -22.7734375 27.21875 C-22.6188086 18.43301723 -20.77629095 10.84829838 -14.5859375 4.28125 C-9.58185139 0.92513017 -6.06891577 -0.27973512 0 0 Z " fill="#B0B0B0" transform="translate(247.5859375,413.71875)"/>
<path d="M0 0 C3.875 1.875 3.875 1.875 5 3 C5.24261046 5.66477254 5.42212271 8.30513342 5.55419922 10.97607422 C5.59630964 11.78652632 5.63842007 12.59697842 5.68180656 13.43198967 C6.08428891 21.75011979 6.1456198 30.05664753 6.1328125 38.3828125 C6.13348959 39.97785456 6.13446294 41.57289652 6.13571167 43.16793823 C6.1371688 46.47704064 6.13509854 49.78611567 6.13037109 53.09521484 C6.1246656 57.28793573 6.12797082 61.48059266 6.13394356 65.67331123 C6.13759541 68.95600853 6.13638976 72.23869122 6.13381577 75.52138901 C6.1331597 77.06559126 6.13392731 78.60979494 6.13629532 80.15399551 C6.18083055 117.31950922 6.18083055 117.31950922 0.3984375 123.79296875 C-0.06304687 124.19128906 -0.52453125 124.58960938 -1 125 C-2.875 124.4375 -2.875 124.4375 -5 123 C-7.28852725 117.04682965 -7.27820725 111.39947739 -7.24291992 105.0793457 C-7.24481827 104.00210236 -7.24671661 102.92485901 -7.24867249 101.81497192 C-7.2523652 98.26850006 -7.24169869 94.72223479 -7.23046875 91.17578125 C-7.22927616 88.70672123 -7.22882396 86.23766076 -7.2290802 83.76860046 C-7.22751802 78.60148263 -7.21924725 73.43443433 -7.20581055 68.26733398 C-7.18879447 61.63941998 -7.18499714 55.01158216 -7.18575573 48.38364887 C-7.18548406 43.28880586 -7.18000379 38.19397954 -7.17275429 33.09914207 C-7.1695697 30.65466628 -7.1676007 28.21018859 -7.16686058 25.76571083 C-7.16469633 22.35459785 -7.15595088 18.94356624 -7.14526367 15.5324707 C-7.14571686 14.51991714 -7.14617004 13.50736359 -7.14663696 12.46412659 C-7.14237198 11.53477295 -7.13810699 10.60541931 -7.13371277 9.64790344 C-7.13203692 8.84213017 -7.13036108 8.03635691 -7.12863445 7.20616627 C-7.00104821 5.01797747 -6.60455717 3.10212336 -6 1 C-5.34 1 -4.68 1 -4 1 C-4 1.66 -4 2.32 -4 3 C-2.68 2.01 -1.36 1.02 0 0 Z " fill="#090909" transform="translate(260,259)"/>
<path d="M0 0 C2.05536153 3.08304229 2.27332539 3.86996795 2.41186523 7.38208008 C2.45030045 8.32234543 2.48873566 9.26261078 2.52833557 10.23136902 C2.55894577 11.29583755 2.58955597 12.36030609 2.62109375 13.45703125 C2.65883408 14.61346634 2.6965744 15.76990143 2.73545837 16.96138 C3.30119445 37.36879759 3.1087657 57.79721355 3.06866455 78.21014404 C3.05828715 84.06392044 3.05383657 89.91770136 3.04882812 95.77148438 C3.03822245 107.18100122 3.02123993 118.59049833 3 130 C1.68 130 0.36 130 -1 130 C-1.02332875 113.19776179 -1.04097906 96.39552861 -1.05181217 79.59327793 C-1.05697518 71.79224164 -1.06401797 63.99121539 -1.07543945 56.19018555 C-1.08538615 49.39323687 -1.09185339 42.59629546 -1.09408849 35.79933971 C-1.09539563 32.19821869 -1.09848164 28.59711848 -1.10573006 24.9960041 C-1.11374364 20.98243398 -1.11399115 16.96890036 -1.11352539 12.95532227 C-1.11712067 11.75267227 -1.12071594 10.55002228 -1.12442017 9.31092834 C-1.1230455 8.22412781 -1.12167084 7.13732727 -1.12025452 6.01759338 C-1.12117631 5.06722482 -1.1220981 4.11685625 -1.12304783 3.13768864 C-1 1 -1 1 0 0 Z " fill="#111111" transform="translate(286,259)"/>
<path d="M0 0 C-1.95203507 5.21559372 -4.53094264 10.08720935 -7.078125 15.02929688 C-9.87035235 20.52519213 -12.31591645 25.57475716 -12.125 31.875 C-12.10695312 32.65617187 -12.08890625 33.43734375 -12.0703125 34.2421875 C-12.04710937 34.82226562 -12.02390625 35.40234375 -12 36 C-6.67823802 38.66088099 1.34645355 37.76427852 6.90234375 36.1640625 C13.57545647 33.09998301 18.96805313 28.50595851 22.0234375 21.73046875 C22.79019083 19.50232912 23.42097506 17.28347865 24 15 C24.39350297 13.64515433 24.78911482 12.29091813 25.1875 10.9375 C25.455625 9.968125 25.72375 8.99875 26 8 C26.99 8.66 27.98 9.32 29 10 C29.96948674 17.89439199 27.28440891 24.23490765 22.625 30.5625 C16.90463574 36.85784933 7.05822283 42.39017889 -1.3671875 43.23828125 C-7.15460601 43.40955999 -10.41424889 42.89788844 -15 39 C-17.58865107 36.41134893 -17.3569696 35.23465685 -17.4375 31.625 C-17.21311425 19.90084476 -11.07195316 9.80477509 -3.4140625 1.22265625 C-2 0 -2 0 0 0 Z " fill="#120000" transform="translate(251,89)"/>
<path d="M0 0 C1.875 0.3125 1.875 0.3125 4 1 C6.49111925 4.73667887 6.29613477 7.67870976 6.25 12 C6.25773437 12.72445313 6.26546875 13.44890625 6.2734375 14.1953125 C6.25942063 17.99388493 6.15441944 19.76837084 4 23 C1.06423721 21.987668 0.02487259 21.03642058 -1.75 18.4375 C-3.82612302 12.7281617 -3.86295325 8.04951397 -1.5 2.4375 C-1.005 1.633125 -0.51 0.82875 0 0 Z " fill="#0B0B0B" transform="translate(257,423)"/>
<path d="M0 0 C0.66 0.33 1.32 0.66 2 1 C3.3692168 8.94145743 3.09524543 16.96763515 3 25 C2.01 25 1.02 25 0 25 C-1.24497833 22.51004335 -1.12934372 20.81005089 -1.1328125 18.02734375 C-1.13410156 17.04572266 -1.13539063 16.06410156 -1.13671875 15.05273438 C-1.13285156 14.02470703 -1.12898438 12.99667969 -1.125 11.9375 C-1.12886719 10.90560547 -1.13273437 9.87371094 -1.13671875 8.81054688 C-1.13542969 7.83021484 -1.13414062 6.84988281 -1.1328125 5.83984375 C-1.13112061 4.48427368 -1.13112061 4.48427368 -1.12939453 3.10131836 C-1 1 -1 1 0 0 Z " fill="#0A0A0A" transform="translate(298,421)"/>
</svg>
