<?xml version="1.0" standalone="no"?>
<!DOCTYPE svg PUBLIC "-//W3C//DTD SVG 20010904//EN"
 "http://www.w3.org/TR/2001/REC-SVG-20010904/DTD/svg10.dtd">
<svg version="1.0" xmlns="http://www.w3.org/2000/svg"
 width="626.000000pt" height="626.000000pt" viewBox="0 0 626.000000 626.000000"
 preserveAspectRatio="xMidYMid meet">

<g transform="translate(0.000000,626.000000) scale(0.100000,-0.100000)"
fill="#000000" stroke="none">
<path d="M2236 5594 c-43 -8 -116 -27 -162 -42 -72 -24 -86 -26 -116 -16 -44
17 -130 17 -152 1 -15 -11 44 -48 496 -307 505 -291 514 -296 598 -380 47 -47
100 -111 118 -142 38 -65 92 -192 92 -217 0 -10 -34 -35 -87 -66 -69 -40 -93
-60 -122 -104 l-36 -54 -3 -201 c-2 -110 -1 -210 3 -223 7 -31 140 -105 176
-99 43 8 194 102 221 139 37 47 58 103 58 151 l0 42 146 85 c172 100 247 163
295 251 l34 63 0 225 0 225 -29 59 c-52 106 -113 154 -432 337 -159 92 -307
176 -329 187 -65 32 -194 70 -289 87 -112 19 -371 19 -480 -1z m484 -330 c168
-31 223 -57 620 -288 162 -95 252 -153 288 -189 79 -77 80 -81 38 -132 -45
-55 -101 -96 -248 -180 l-116 -67 -57 34 -56 33 -47 141 c-90 269 -140 323
-477 518 -132 76 -244 143 -250 148 -14 14 205 1 305 -18z"/>
<path d="M1127 5177 c-8 -12 -33 -58 -55 -102 l-40 -80 102 -215 c119 -254
140 -291 198 -347 50 -48 1044 -626 1105 -642 21 -6 51 -7 65 -3 15 4 79 55
141 114 l114 107 -51 158 -51 158 -115 115 c-81 81 -145 134 -215 179 -140 89
-772 452 -880 506 -152 76 -288 98 -318 52z m547 -408 c30 -18 39 -31 56 -88
11 -38 20 -73 20 -80 0 -26 19 -7 39 39 23 53 26 54 74 18 17 -13 16 -18 -24
-103 -22 -50 -42 -91 -44 -93 -5 -6 -63 27 -71 40 -9 14 -93 288 -88 288 1 0
19 -9 38 -21z m283 -163 c32 -19 70 -47 85 -63 49 -52 62 -121 29 -150 -19
-15 -19 -17 0 -59 10 -24 16 -44 12 -44 -18 0 -73 44 -79 63 -3 12 -13 33 -22
47 l-17 25 -5 -32 -5 -32 -32 20 -33 21 0 119 c0 65 2 119 4 119 3 0 31 -15
63 -34z m-58 -396 c345 -199 443 -260 448 -278 3 -13 2 -27 -3 -32 -5 -5 -123
57 -274 144 -705 406 -640 365 -640 403 0 16 5 23 14 21 8 -2 212 -118 455
-258z"/>
<path d="M1960 4507 c0 -23 34 -52 50 -42 15 9 12 23 -10 45 -26 26 -40 25
-40 -3z"/>
<path d="M1243 4433 c-19 -7 -16 -74 4 -103 38 -56 88 -68 99 -25 7 29 -25
101 -44 98 -6 -2 -11 2 -9 8 2 13 -32 28 -50 22z m87 -135 c0 -4 -6 -8 -14 -8
-8 0 -17 4 -20 8 -2 4 4 8 15 8 10 0 19 -4 19 -8z"/>
<path d="M3970 4171 c-190 -109 -181 -102 -223 -179 -39 -72 -39 -73 -160
-143 -67 -40 -169 -99 -226 -133 -171 -100 -256 -193 -279 -306 -6 -26 -7
-130 -3 -245 7 -194 8 -202 35 -255 52 -100 117 -150 434 -333 316 -182 364
-206 486 -241 129 -38 246 -49 423 -43 283 10 373 41 743 257 l272 158 32 -19
c45 -27 62 -24 151 27 99 57 130 85 163 149 27 49 27 53 27 246 0 179 -2 199
-19 218 -29 32 -123 81 -156 81 -17 0 -63 -20 -114 -50 -79 -47 -110 -74 -147
-130 -15 -23 -16 -22 -43 66 -42 134 -90 218 -176 305 -70 71 -100 91 -480
310 -528 304 -538 309 -603 309 -45 0 -66 -7 -137 -49z m515 -619 c61 -34 70
-44 73 -71 2 -17 0 -31 -4 -31 -4 0 -51 26 -106 57 -94 54 -98 58 -98 91 l0
34 33 -20 c17 -11 64 -38 102 -60z m-872 -119 c28 -108 92 -226 147 -276 58
-51 310 -197 355 -204 21 -3 45 2 71 15 l39 20 81 -47 c74 -42 84 -51 114
-108 40 -75 86 -122 159 -162 l55 -29 -40 -9 c-21 -4 -111 -8 -199 -8 -289 0
-382 32 -794 270 -288 166 -376 229 -410 293 -11 21 -7 28 51 85 43 43 107 88
203 145 77 45 142 82 145 82 3 0 14 -30 23 -67z"/>
<path d="M803 4166 c-189 -46 -350 -206 -399 -395 -8 -34 -26 -78 -40 -98 -20
-30 -24 -48 -24 -109 0 -185 144 -390 302 -428 16 -4 34 -18 43 -35 14 -27 10
-53 -50 -378 -47 -250 -64 -359 -59 -388 25 -153 179 -255 383 -255 198 0 346
86 387 225 l16 58 -67 351 c-71 372 -71 368 -60 433 6 33 21 55 79 115 110
111 156 222 156 373 0 154 -52 279 -159 385 -75 75 -159 123 -252 145 -76 18
-184 18 -256 1z m220 -52 c49 -25 67 -45 67 -74 0 -53 -66 -90 -158 -90 -151
1 -217 107 -99 160 53 24 146 26 190 4z m-509 -441 c-16 -36 -16 -132 1 -182
34 -104 132 -205 211 -218 25 -4 34 -10 32 -22 -5 -22 -42 -16 -94 14 -101 59
-194 219 -194 334 0 66 9 91 32 91 16 0 18 -4 12 -17z m56 -11 c0 -3 -8 -14
-17 -24 -21 -23 -22 -101 -3 -149 39 -98 116 -169 182 -169 26 0 38 -4 38 -14
0 -23 -17 -28 -58 -16 -94 25 -190 158 -200 276 -5 70 14 119 43 108 8 -4 15
-9 15 -12z m795 -8 c25 -10 45 -59 45 -112 0 -133 -110 -279 -218 -289 -41 -4
-50 -2 -72 22 -21 23 -25 36 -25 88 1 163 159 333 270 291z m-575 -790 c25
-29 30 -43 28 -72 -2 -30 -7 -38 -26 -40 -48 -7 -106 83 -82 128 16 30 44 24
80 -16z"/>
<path d="M1265 3614 c-118 -61 -187 -242 -119 -311 21 -21 32 -24 60 -20 71
12 143 89 170 185 20 67 12 114 -23 142 -31 24 -48 25 -88 4z"/>
<path d="M747 2844 c-8 -9 11 -44 23 -44 6 0 10 6 10 14 0 16 -24 38 -33 30z"/>
<path d="M2444 3703 c-9 -34 28 -106 62 -121 36 -17 54 -5 54 36 0 41 -38 105
-58 97 -7 -3 -10 0 -7 5 3 6 -5 10 -19 10 -19 0 -27 -7 -32 -27z"/>
<path d="M2160 3033 c-192 -32 -349 -123 -406 -235 -21 -41 -24 -61 -24 -156
0 -96 3 -114 25 -158 14 -27 25 -59 25 -71 0 -45 24 -74 88 -110 62 -35 66
-36 92 -21 26 15 34 14 111 -9 96 -28 299 -42 386 -26 l51 10 6 -31 c3 -17 37
-258 76 -536 39 -278 75 -514 80 -526 4 -12 29 -33 55 -48 l46 -28 151 89 151
88 123 360 c68 198 128 387 133 420 12 70 2 136 -26 173 -28 38 -107 83 -156
89 -33 5 -49 14 -75 44 -18 21 -66 57 -108 81 -54 31 -73 46 -69 58 28 70 28
229 1 293 -7 19 -34 57 -60 86 -25 28 -46 58 -46 65 0 18 -51 61 -103 88 -39
19 -43 20 -71 4 -28 -15 -37 -15 -101 -1 -65 14 -290 19 -355 8z m334 -229
c33 -9 80 -26 106 -39 45 -23 130 -104 130 -125 0 -5 -17 -28 -37 -51 -44 -48
-129 -94 -215 -114 -72 -17 -211 -20 -284 -6 -119 23 -229 85 -267 150 l-18
31 40 43 c109 118 337 165 545 111z m187 -963 c26 -27 29 -35 29 -99 0 -78
-14 -101 -49 -83 -38 21 -51 52 -51 127 0 39 3 74 7 77 13 14 35 6 64 -22z"/>
<path d="M3893 1968 l-312 -181 39 -18 c22 -10 40 -21 40 -24 0 -3 -14 2 -31
10 -17 9 -40 15 -52 13 -21 -3 -22 -8 -28 -193 -10 -305 -10 -547 1 -586 5
-19 22 -47 37 -61 32 -31 647 -388 667 -388 27 0 35 28 39 131 l3 104 0 -113
c-1 -61 0 -112 1 -112 4 0 560 323 596 346 l38 25 -3 393 -3 393 -27 35 c-15
19 -62 55 -105 80 -43 24 -189 108 -324 186 -135 78 -250 142 -255 142 -5 0
-149 -82 -321 -182z m-118 -291 c6 -6 -12 2 -40 18 -27 15 -54 32 -60 38 -5 6
13 -2 40 -18 28 -15 55 -32 60 -38z m75 -43 c0 -2 -13 2 -30 11 -16 9 -30 18
-30 21 0 2 14 -2 30 -11 17 -9 30 -18 30 -21z m70 -40 c0 -2 -13 2 -30 11 -16
9 -30 18 -30 21 0 2 14 -2 30 -11 17 -9 30 -18 30 -21z m50 -30 c0 -2 -9 0
-20 6 -11 6 -20 13 -20 16 0 2 9 0 20 -6 11 -6 20 -13 20 -16z m70 -40 c0 -2
-13 2 -30 11 -16 9 -30 18 -30 21 0 2 14 -2 30 -11 17 -9 30 -18 30 -21z m50
-30 c0 -2 -9 0 -20 6 -11 6 -20 13 -20 16 0 2 9 0 20 -6 11 -6 20 -13 20 -16z
m90 -50 c0 -2 -13 2 -30 11 -16 9 -30 18 -30 21 0 2 14 -2 30 -11 17 -9 30
-18 30 -21z m56 -35 c3 -6 -5 -3 -20 6 -14 10 -26 19 -26 22 0 7 39 -17 46
-28z m-17 -75 c25 -31 27 -62 6 -70 -32 -13 -76 55 -54 82 16 20 25 18 48 -12z
m78 -306 c-3 -7 -5 -2 -5 12 0 14 2 19 5 13 2 -7 2 -19 0 -25z"/>
<path d="M1887 1590 c135 -63 137 -176 5 -238 -51 -24 -69 -27 -167 -27 -101
0 -115 2 -168 29 -63 30 -97 72 -97 117 0 39 39 89 90 117 36 20 39 23 15 17
-62 -14 -140 -60 -204 -120 -87 -82 -166 -139 -305 -220 -62 -37 -129 -82
-147 -101 -32 -33 -34 -40 -37 -113 -3 -53 1 -88 11 -113 33 -78 166 -138 306
-138 104 0 180 22 276 78 146 85 266 144 396 193 173 65 214 89 253 150 22 35
32 165 16 213 -25 75 -96 131 -212 167 -91 27 -102 23 -31 -11z"/>
<path d="M1665 1571 c-110 -27 -150 -100 -85 -154 42 -36 93 -50 163 -45 106
7 175 59 159 120 -15 59 -143 101 -237 79z"/>
</g>
</svg>
