<?xml version="1.0" encoding="UTF-8"?>
<svg version="1.1" xmlns="http://www.w3.org/2000/svg" width="512" height="512">
<path d="M0 0 C19.30291012 15.87565873 25.06347313 41.20868923 27.40234375 65.03125 C28.49445698 77.21519883 29.11038178 89.40820339 29.47119141 101.63452148 C29.64466082 107.26071266 30.0031581 112.74074954 30.8125 118.3125 C31.37195313 117.79042969 31.93140625 117.26835937 32.5078125 116.73046875 C37.6048088 112.05139336 42.82403577 107.6036359 48.25 103.3125 C48.85279785 102.83192139 49.4555957 102.35134277 50.07666016 101.85620117 C52.64255036 99.84696518 54.69610426 98.35129858 57.8125 97.3125 C56.47161749 90.09435765 56.47161749 90.09435765 53.8125 83.3125 C46.86065502 80.99521834 38.95480969 82.39091165 31.8125 83.3125 C31.4825 81.6625 31.1525 80.0125 30.8125 78.3125 C37.82451487 73.95367994 43.66092296 73.76036116 51.8125 74.3125 C56.59799799 75.907666 59.04649352 78.11226794 61.8125 82.3125 C62.5625 84.625 62.5625 84.625 62.8125 86.3125 C63.4725 86.3125 64.1325 86.3125 64.8125 86.3125 C68.03740201 77.80874053 69.9338034 68.47741263 66.375 59.8125 C59.813332 53.41087268 51.42517869 50.92107781 42.8125 48.3125 C42.769779 46.64638095 42.77186168 44.97867115 42.8125 43.3125 C43.8125 42.3125 43.8125 42.3125 46.5625 41.9375 C55.81156992 42.12781008 64.63600182 46.91757244 71.06640625 53.30078125 C76.4016779 59.4476826 76.38448103 65.35605922 76.2421875 73.30078125 C75.67266933 80.73897876 72.93276826 88.13209761 68.8125 94.3125 C70.20662109 94.49425781 70.20662109 94.49425781 71.62890625 94.6796875 C72.86511719 94.84726563 74.10132813 95.01484375 75.375 95.1875 C76.59316406 95.34992188 77.81132812 95.51234375 79.06640625 95.6796875 C82.75988982 96.30361277 86.22254167 97.25674041 89.8125 98.3125 C89.88243164 97.24104736 89.95236328 96.16959473 90.02441406 95.06567383 C94.83267271 22.55095362 94.83267271 22.55095362 116.2734375 2.2890625 C127.45234507 -6.41328708 139.12148811 -7.80881251 152.8125 -6.6875 C164.23865686 -4.35427077 173.094101 3.01110488 179.8125 12.3125 C194.62873677 36.05850406 196.24976131 64.96510495 197.30577087 92.19876099 C198.77088366 129.8705146 202.1887461 167.29428342 210.46875 204.14892578 C213.55154195 218.46045231 214.19349146 233.03575607 214.125 247.625 C214.12226578 248.84999207 214.12226578 248.84999207 214.11947632 250.09973145 C213.94702253 296.45665862 206.68674667 351.51513646 175.8125 388.3125 C175.36777344 388.90160156 174.92304688 389.49070312 174.46484375 390.09765625 C167.67070923 398.79335612 157.93453109 406.28249341 146.85546875 407.6875 C135.8428333 408.31455398 127.96880481 404.25228894 119.6875 397.25 C84.20257845 363.18447532 74.76445244 305.56157868 73.60513306 258.72070312 C73.14963923 234.86938989 75.42717491 212.55988035 80.12963867 189.19042969 C83.48742366 172.40992681 85.99832623 155.51356334 87.60742188 138.47021484 C87.78117368 136.64209759 87.98319701 134.81670148 88.19140625 132.9921875 C88.4567303 128.9389392 88.63747923 125.67128932 86.484375 122.125 C84.39318361 119.94594343 82.20979512 118.15220203 79.8125 116.3125 C78.69290686 115.41022181 77.57448801 114.50648522 76.45703125 113.6015625 C71.11931726 108.67065248 71.11931726 108.67065248 64.8125 106.3125 C64.59335937 107.36566406 64.37421875 108.41882813 64.1484375 109.50390625 C59.82882733 129.49172966 52.80956347 146.58880031 35.8125 159.3125 C35.1525 159.3125 34.4925 159.3125 33.8125 159.3125 C35.33708862 167.56981217 36.89903218 175.81709899 38.56640625 184.046875 C51.33652995 247.25282375 51.15154343 322.87784507 15.078125 379.06640625 C11.71395035 383.88645649 7.9424927 388.14185777 3.8125 392.3125 C2.9875 393.199375 2.1625 394.08625 1.3125 395 C-7.82176025 403.44919073 -15.09012102 408.1448435 -27.8203125 407.77734375 C-41.20326725 405.92981287 -51.10455725 395.36301561 -59.25 385.375 C-79.89083248 358.09611499 -87.55201817 322.49675558 -92.1875 289.3125 C-92.30609375 288.49410645 -92.4246875 287.67571289 -92.546875 286.83251953 C-97.13343338 253.84615549 -94.13378095 220.98705226 -87.8659668 188.53662109 C-81.51364067 155.53543679 -78.81874278 122.37338769 -77.30508423 88.84469604 C-74.44667399 25.76901119 -74.44667399 25.76901119 -53.47265625 4.36328125 C-38.60372494 -8.98063146 -16.87951897 -11.6758137 0 0 Z M74.8125 102.3125 C79.07837874 106.85359672 83.84862328 110.55985246 88.8125 114.3125 C90.11157331 112.17284985 90.80712451 110.727181 90.83984375 108.203125 C89.89096992 105.99766459 89.89096992 105.99766459 86.94140625 105.046875 C85.76449219 104.72203125 84.58757812 104.3971875 83.375 104.0625 C82.20066406 103.72734375 81.02632812 103.3921875 79.81640625 103.046875 C77.00409768 102.23334014 77.00409768 102.23334014 74.8125 102.3125 Z M51.65234375 109.875 C50.71455078 110.69230591 50.71455078 110.69230591 49.7578125 111.52612305 C48.40739031 112.72761127 47.05977538 113.93226143 45.71484375 115.13989258 C42.81174856 117.73697641 40.03593564 120.16402342 36.78515625 122.32421875 C34.03103477 124.19075606 32.45777034 125.40373476 30.8125 128.3125 C29.76223378 135.88915739 31.17971924 143.90561275 32.8125 151.3125 C46.51976501 143.03102739 51.99339362 128.00211332 56.11328125 113.28125 C56.92712674 110.33414677 56.92712674 110.33414677 56.8125 107.3125 C54.18171238 107.3125 53.60740619 108.15339881 51.65234375 109.875 Z " fill="#4C4C4B" transform="translate(196.1875,55.6875)"/>
<path d="M0 0 C0.33 0 0.66 0 1 0 C1.05945801 1.6099585 1.05945801 1.6099585 1.12011719 3.25244141 C2.64679042 43.48871246 5.80924645 83.45804437 14.65625 122.83642578 C17.73904195 137.14795231 18.38099146 151.72325607 18.3125 166.3125 C18.31067719 167.12916138 18.30885437 167.94582275 18.30697632 168.78723145 C18.13452253 215.14415862 10.87424667 270.20263646 -20 307 C-20.66708984 307.88365234 -20.66708984 307.88365234 -21.34765625 308.78515625 C-28.14179077 317.48085612 -37.87796891 324.96999341 -48.95703125 326.375 C-59.9696667 327.00205398 -67.84369519 322.93978894 -76.125 315.9375 C-111.60992155 281.87197532 -121.04804756 224.24907868 -122.20736694 177.40820312 C-122.66306484 153.54620392 -120.37115622 131.23499638 -115.68066406 107.85375977 C-111.46541565 86.73627235 -108.78223263 65.45714288 -107 44 C-103.09865249 45.47982147 -101.73753293 47.23432348 -100 51 C-99.5853739 54.10295306 -99.62706765 57.17066708 -99.671875 60.296875 C-99.67468475 61.65743011 -99.67468475 61.65743011 -99.67755127 63.04547119 C-99.68426694 64.96866524 -99.69817182 66.89184573 -99.71875 68.81494141 C-99.74945037 71.6983777 -99.75968457 74.58126132 -99.765625 77.46484375 C-99.83083225 93.39877994 -100.3919425 109.00975294 -103.0625 124.75 C-103.43178816 126.97339584 -103.79780623 129.19733791 -104.16015625 131.421875 C-104.32136963 132.37674805 -104.48258301 133.33162109 -104.64868164 134.31542969 C-104.98858464 136.91277043 -105.06382261 139.38416334 -105 142 C-88.7745216 151.86646053 -88.7745216 151.86646053 -70.375 155.125 C-69.24835938 155.12757813 -68.12171875 155.13015625 -66.9609375 155.1328125 C-63.94211918 155.13259517 -63.94211918 155.13259517 -61 154 C-59.30718907 151.22286692 -59.30718907 151.22286692 -57.8125 147.9375 C-57.28269531 146.83277344 -56.75289063 145.72804688 -56.20703125 144.58984375 C-55.80871094 143.73519531 -55.41039062 142.88054687 -55 142 C-53.02 142 -51.04 142 -49 142 C-48.60167969 142.85464844 -48.20335937 143.70929688 -47.79296875 144.58984375 C-47.26316406 145.69457031 -46.73335938 146.79929687 -46.1875 147.9375 C-45.66542969 149.03964844 -45.14335937 150.14179688 -44.60546875 151.27734375 C-43.23205279 154.28740777 -43.23205279 154.28740777 -40 155 C-24.00009183 156.52795849 -11.90944966 150.64204022 1 142 C0.65302963 136.78347994 0.11916534 131.61306191 -0.69921875 126.44921875 C-0.82965576 125.62518555 -0.96009277 124.80115234 -1.09448242 123.95214844 C-1.35349224 122.34600686 -1.61985047 120.74102162 -1.89575195 119.13769531 C-4.6502191 102.0491835 -4.20123423 84.50217961 -4.1875 67.25 C-4.18756042 66.08512054 -4.18762085 64.92024109 -4.18768311 63.72006226 C-4.15416607 18.31655922 -4.15416607 18.31655922 0 0 Z " fill="#30302F" transform="translate(392,137)"/>
<path d="M0 0 C0.66 0.33 1.32 0.66 2 1 C2.94518397 6.16360706 3.21851797 11.45531834 3.625 16.6875 C3.69036957 17.50666901 3.75573914 18.32583801 3.8230896 19.16983032 C6.74380099 56.94469583 7.37362585 96.56259518 0.87768555 134.00634766 C0.0827071 138.54004945 0.0827071 138.54004945 1 143 C2.77947483 144.30635429 2.77947483 144.30635429 5.0078125 145.41015625 C5.83023438 145.84263672 6.65265625 146.27511719 7.5 146.72070312 C8.36625 147.16349609 9.2325 147.60628906 10.125 148.0625 C10.96804687 148.50916016 11.81109375 148.95582031 12.6796875 149.41601562 C19.86635075 153.14883994 26.04405436 155.28518983 34.25 155.1875 C35.45140625 155.18105469 36.6528125 155.17460937 37.890625 155.16796875 C41.03392678 155.13568775 41.03392678 155.13568775 44 154 C45.20175547 152.27861696 45.20175547 152.27861696 46.125 150.1875 C46.45757812 149.50042969 46.79015625 148.81335938 47.1328125 148.10546875 C47.96581322 146.08300305 48.53024571 144.13306793 49 142 C51.31 142 53.62 142 56 142 C56.39832031 142.85464844 56.79664063 143.70929688 57.20703125 144.58984375 C57.73683594 145.69457031 58.26664062 146.79929687 58.8125 147.9375 C59.33457031 149.03964844 59.85664063 150.14179688 60.39453125 151.27734375 C61.76794721 154.28740777 61.76794721 154.28740777 65 155 C76.85643185 156.05752051 86.74655818 152.93929756 97.1875 147.625 C97.94305176 147.24996338 98.69860352 146.87492676 99.47705078 146.48852539 C103.56527627 144.37332835 103.56527627 144.37332835 106.0703125 140.68359375 C105.9784835 137.17878677 105.39706642 133.85784125 104.6875 130.4375 C101.68773222 114.6667507 100.65142165 99.03460426 101 83 C104.3 81.35 107.6 79.7 111 78 C111.17523193 78.94907227 111.35046387 79.89814453 111.53100586 80.87597656 C112.88525728 88.17336547 114.28012594 95.46013339 115.75390625 102.734375 C128.52402995 165.94032375 128.33904343 241.56534507 92.265625 297.75390625 C88.90145035 302.57395649 85.1299927 306.82935777 81 311 C80.175 311.886875 79.35 312.77375 78.5 313.6875 C69.36573975 322.13669073 62.09737898 326.8323435 49.3671875 326.46484375 C35.98423275 324.61731287 26.08294275 314.05051561 17.9375 304.0625 C-2.70333248 276.78361499 -10.36451817 241.18425558 -15 208 C-15.17789063 206.77240967 -15.17789063 206.77240967 -15.359375 205.52001953 C-19.94593338 172.53365549 -16.94628095 139.67455226 -10.6784668 107.22412109 C-3.86480512 71.8262369 -0.89216297 36.01183774 0 0 Z " fill="#313130" transform="translate(119,137)"/>
<path d="M0 0 C19.2582679 15.83894278 24.91137565 40.94618029 27.40234375 64.6796875 C27.90267277 69.93512594 28.26839611 75.19322845 28.58203125 80.46289062 C28.7490158 83.25209871 28.92901746 86.03871614 29.12109375 88.82617188 C29.39470757 92.86827419 29.61764478 96.91095519 29.81195068 100.95761108 C29.89497747 102.55625009 29.99196343 104.15423134 30.10357666 105.75112915 C30.96566064 118.39331373 30.96566064 118.39331373 28.20751953 122.98364258 C26.19259869 125.03307364 24.1671284 126.67188204 21.8125 128.3125 C20.87664062 129.13878906 19.94078125 129.96507812 18.9765625 130.81640625 C0.69890919 145.63536516 0.69890919 145.63536516 -8.1875 149.3125 C-8.8475 148.9825 -9.5075 148.6525 -10.1875 148.3125 C-9.67960937 147.74144531 -9.17171875 147.17039063 -8.6484375 146.58203125 C5.17748955 130.29643553 9.00012562 111.15479548 8.99780273 90.37890625 C8.99997409 88.21333698 9.01813556 86.04829105 9.03710938 83.8828125 C9.091897 70.87437404 7.44247867 58.52123355 4.0625 45.9375 C3.79937012 44.94999756 3.53624023 43.96249512 3.26513672 42.94506836 C0.96086223 34.50269523 -1.73142088 26.35111394 -5.1875 18.3125 C-5.48914063 17.59352539 -5.79078125 16.87455078 -6.1015625 16.13378906 C-7.05314229 13.90473274 -8.04870008 11.70137279 -9.0625 9.5 C-9.49925049 8.48498413 -9.49925049 8.48498413 -9.94482422 7.44946289 C-11.75849384 3.70066826 -13.42369197 1.87043629 -17.22265625 0.38671875 C-22.99077962 -1.43099954 -27.9272552 -1.27433254 -33.49975586 1.22802734 C-36.51579419 3.1660054 -37.78075546 6.14895428 -39.1875 9.3125 C-39.68213745 10.36667114 -39.68213745 10.36667114 -40.18676758 11.44213867 C-45.45280203 22.93063738 -49.67492767 34.81224903 -53 47 C-53.19489014 47.69843018 -53.38978027 48.39686035 -53.59057617 49.11645508 C-56.79006801 61.50690671 -57.52540058 74.21943529 -57.44824219 86.95947266 C-57.43743037 89.07613258 -57.44827178 91.19195761 -57.4609375 93.30859375 C-57.48803565 116.48592942 -51.10931055 135.50079431 -34.625 152.125 C-33.15593269 153.53145866 -31.68061756 154.93160005 -30.1875 156.3125 C-32.32783816 158.45283816 -33.234877 158.77470302 -36.07421875 159.53125 C-37.2353418 159.84642578 -37.2353418 159.84642578 -38.41992188 160.16796875 C-39.23009766 160.38066406 -40.04027344 160.59335938 -40.875 160.8125 C-42.4622891 161.23939927 -44.04952935 161.66648019 -45.63671875 162.09375 C-46.78406494 162.39925781 -46.78406494 162.39925781 -47.95458984 162.7109375 C-51.04274538 163.54290943 -54.11514343 164.42410774 -57.1875 165.3125 C-57.1875 166.6325 -57.1875 167.9525 -57.1875 169.3125 C-48.13648401 168.81880822 -39.75819676 166.06537433 -31.1875 163.3125 C-30.37216797 163.05162598 -29.55683594 162.79075195 -28.71679688 162.52197266 C-7.27235692 155.56960858 9.35106083 146.56425895 25.7890625 131.02734375 C27.8125 129.3125 27.8125 129.3125 30.8125 128.3125 C31.14997548 131.18706792 31.48260463 134.06206059 31.8125 136.9375 C31.90789062 137.74574219 32.00328125 138.55398437 32.1015625 139.38671875 C32.36411992 141.69347319 32.59170399 144.00143238 32.8125 146.3125 C32.93625 147.41335937 33.06 148.51421875 33.1875 149.6484375 C32.8125 152.3125 32.8125 152.3125 30.6640625 154.5 C22.57013091 159.64463597 13.88513344 163.27638251 4.8125 166.3125 C5.1425 167.6325 5.4725 168.9525 5.8125 170.3125 C9.56444003 169.66325719 12.9441451 168.60345637 16.5 167.25 C21.59541815 165.3125 21.59541815 165.3125 23.8125 165.3125 C23.87981323 166.4277002 23.87981323 166.4277002 23.94848633 167.56542969 C24.80811754 181.46083828 25.82374513 195.20868238 28.12890625 208.9453125 C28.92112969 213.71183854 29.38101659 218.50167914 29.8125 223.3125 C17.25770699 232.30432371 3.58687354 239.00172425 -12.1875 237.3125 C-14.3671875 236.64453125 -14.3671875 236.64453125 -16.1875 235.3125 C-17.42578125 232.74609375 -17.42578125 232.74609375 -18.5 229.75 C-19.65833727 226.78751216 -19.65833727 226.78751216 -21.1875 224.3125 C-24.84371408 222.92766078 -24.84371408 222.92766078 -28.1875 223.3125 C-28.27 224.158125 -28.3525 225.00375 -28.4375 225.875 C-29.36250366 230.11460009 -30.78068736 232.70228104 -33.1875 236.3125 C-44.46933843 240.07311281 -55.00859062 236.33546542 -65.1328125 231.40625 C-66.5076116 230.71307945 -67.88002968 230.01516587 -69.25 229.3125 C-69.90605225 228.98056641 -70.56210449 228.64863281 -71.23803711 228.30664062 C-73.7108947 226.98466661 -75.83498444 225.71238199 -77.69921875 223.59765625 C-78.49086873 219.89273437 -77.6173862 216.41525388 -76.9375 212.75 C-70.53278156 173.33799301 -71.43779735 131.89929046 -75.32943726 92.26486206 C-76.47895173 80.45456991 -76.81151663 68.7589882 -75 57 C-74.8661792 56.11610596 -74.7323584 55.23221191 -74.59448242 54.3215332 C-71.35464584 34.15512982 -65.3652132 13.83649912 -48.93359375 0.48046875 C-34.59110724 -9.77129117 -14.58216997 -10.08670331 0 0 Z " fill="#4C4C4B" transform="translate(196.1875,55.6875)"/>
<path d="M0 0 C4.25474653 2.87622541 5.86795398 7.22753936 7.85620117 11.82080078 C8.31639648 12.83392334 8.7765918 13.8470459 9.25073242 14.89086914 C19.06308868 37.15591631 24.41921338 60.38355988 24.41650391 84.68212891 C24.41868967 86.87178016 24.43690113 89.06092571 24.45581055 91.25048828 C24.52778391 108.70959389 20.96889548 125.72143165 11.23120117 140.50830078 C10.65370117 141.39517578 10.07620117 142.28205078 9.48120117 143.19580078 C2.95308904 151.76394796 -5.77109165 153.85518755 -15.76879883 156.50830078 C-32.41000464 141.13419186 -42.79916841 123.97847955 -43.95800781 100.70898438 C-44.04367707 97.26654174 -44.05014539 93.82612025 -44.02954102 90.3828125 C-44.01888127 88.27460507 -44.0294684 86.16726279 -44.04223633 84.05908203 C-44.05831376 70.58776054 -42.77078924 57.49671494 -39.01879883 44.50830078 C-38.624104 43.1110376 -38.624104 43.1110376 -38.22143555 41.68554688 C-35.84254835 33.44091041 -33.14123191 25.39963661 -29.76879883 17.50830078 C-29.4671582 16.79319336 -29.16551758 16.07808594 -28.85473633 15.34130859 C-27.90226722 13.12952819 -26.90723928 10.94273962 -25.89379883 8.75830078 C-25.60263184 8.09008301 -25.31146484 7.42186523 -25.01147461 6.73339844 C-22.78613771 2.15667327 -20.33057967 0.2609127 -15.70947266 -1.82275391 C-10.03679269 -3.77811221 -5.23720759 -2.41356293 0 0 Z " fill="#141515" transform="translate(181.768798828125,56.49169921875)"/>
<path d="M0 0 C4.29565505 2.93905826 5.91808 7.43225032 7.92089844 12.09057617 C8.38439697 13.11691162 8.84789551 14.14324707 9.32543945 15.20068359 C19.30774024 37.82408139 24.42147721 61.0379079 24.41870117 85.72241211 C24.42088749 87.89220829 24.43910878 90.06149437 24.45800781 92.23120117 C24.55556596 115.54227954 18.26238669 134.60828321 1.67089844 151.34057617 C0.20183113 152.74703483 -1.27348401 154.14717622 -2.76660156 155.52807617 C-17.33173427 150.58679669 -27.76400625 133.19500725 -36.44824219 121.25268555 C-37.83866939 119.36311854 -37.83866939 119.36311854 -40.00097656 117.23120117 C-45.50663039 108.80219133 -44.13009282 96.70237723 -44.07910156 86.96557617 C-44.07661407 86.20907776 -44.07412659 85.45257935 -44.07156372 84.67315674 C-44.01405223 73.37252174 -43.61631415 62.50771259 -40.76660156 51.52807617 C-40.53553711 50.61445312 -40.30447266 49.70083008 -40.06640625 48.75952148 C-36.71003982 35.76890577 -32.56540482 23.37229136 -26.64501953 11.32104492 C-25.86854787 9.73616223 -25.129121 8.1332469 -24.39550781 6.52807617 C-22.43914027 2.52554061 -21.2755279 0.83908671 -17.39160156 -1.53442383 C-10.85312087 -3.22541021 -6.07110699 -2.79981239 0 0 Z " fill="#141515" transform="translate(349.7666015625,56.471923828125)"/>
<path d="M0 0 C9.24906992 0.19031008 18.07350182 4.98007244 24.50390625 11.36328125 C29.8391779 17.5101826 29.82198103 23.41855922 29.6796875 31.36328125 C29.11016933 38.80147876 26.37026826 46.19459761 22.25 52.375 C23.1678125 52.48457031 24.085625 52.59414062 25.03125 52.70703125 C38.07745794 54.39262324 38.07745794 54.39262324 44.25 57.375 C45.07628906 57.75140625 45.90257812 58.1278125 46.75390625 58.515625 C61.20968819 65.6715455 70.26431464 77.74281896 79.72119141 90.34277344 C82.79962049 94.43489156 85.96071187 98.45053899 89.25 102.375 C90.01376953 103.30119141 90.01376953 103.30119141 90.79296875 104.24609375 C100.45763068 114.96074365 114.68906196 120.125922 128.58984375 121.9453125 C131.25 122.375 131.25 122.375 132.25 123.375 C132.29063832 125.04117115 132.292721 126.70888095 132.25 128.375 C116.20237036 129.50114945 101.71998127 122.65099062 89.640625 112.546875 C82.33034783 105.90551208 76.54909154 98.18131042 70.69848633 90.27954102 C60.91895333 77.13668482 51.38064407 67.06087652 35.25 62.375 C33.93 62.375 32.61 62.375 31.25 62.375 C31.98863281 62.93445313 32.72726562 63.49390625 33.48828125 64.0703125 C41.76955703 70.61536146 48.15926025 77.77049783 54.25 86.375 C54.84683594 87.21804687 55.44367188 88.06109375 56.05859375 88.9296875 C63.346022 100.17314823 68.72917029 114.95823197 68.25 128.375 C66.6 128.375 64.95 128.375 63.25 128.375 C63.11013672 127.82263672 62.97027344 127.27027344 62.82617188 126.70117188 C58.7675142 110.949404 53.81151592 91.95513961 40.6875 81.0625 C40.01074219 80.49402344 39.33398438 79.92554688 38.63671875 79.33984375 C37.84910156 78.69144531 37.06148437 78.04304688 36.25 77.375 C35.24582031 76.53066406 34.24164063 75.68632812 33.20703125 74.81640625 C26.41719265 67.92613868 26.41719265 67.92613868 18.25 64.375 C18.03085937 65.42816406 17.81171875 66.48132813 17.5859375 67.56640625 C14.25928971 82.95956582 9.88406169 96.2940086 -0.75 108.375 C-1.80574219 109.57576172 -1.80574219 109.57576172 -2.8828125 110.80078125 C-10.37217659 118.3553837 -20.07681509 122.31635019 -29.75 126.375 C-30.48444336 126.69114258 -31.21888672 127.00728516 -31.97558594 127.33300781 C-35.70012277 128.8548801 -37.91348773 129.61787342 -41.75 128.375 C-42.08 127.055 -42.41 125.735 -42.75 124.375 C-42.25113281 124.15585938 -41.75226563 123.93671875 -41.23828125 123.7109375 C-38.73857158 122.60693646 -36.24400909 121.49182275 -33.75 120.375 C-32.6671875 119.89289063 -31.584375 119.41078125 -30.46875 118.9140625 C-22.27019254 115.24203683 -22.27019254 115.24203683 -14.75 110.375 C-14.21375 109.98183594 -13.6775 109.58867187 -13.125 109.18359375 C0.86260167 98.22455762 5.73788794 81.75300675 10.25 65.375 C4.41480921 69.94634762 -1.27004246 74.65118934 -6.875 79.5 C-11.02949883 83.09055969 -15.19771735 86.54997112 -19.65234375 89.765625 C-21.9212288 91.50637107 -24.06631196 93.36793615 -26.21948242 95.2487793 C-38.34653037 105.78774015 -50.73060015 112.7422708 -65.75 118.375 C-66.90113281 118.82617188 -68.05226562 119.27734375 -69.23828125 119.7421875 C-76.15540396 122.35947717 -83.15754154 124.39493905 -90.3125 126.25 C-91.17012939 126.47768066 -92.02775879 126.70536133 -92.91137695 126.93994141 C-97.16209202 127.99894017 -100.45472718 128.79797382 -104.75 127.375 C-104.42 125.725 -104.09 124.075 -103.75 122.375 C-103.09741211 122.19960693 -102.44482422 122.02421387 -101.77246094 121.84350586 C-65.29819915 112.26451658 -65.29819915 112.26451658 -33.75 92.375 C-32.69080936 91.49497427 -31.62948341 90.61751432 -30.56640625 89.7421875 C-24.74596527 84.92594179 -19.26682897 79.97224141 -13.98828125 74.55859375 C-9.84149996 70.51312997 -5.279341 66.97817323 -0.75 63.375 C0.19101563 62.6015625 1.13203125 61.828125 2.1015625 61.03125 C2.99617188 60.2990625 3.89078125 59.566875 4.8125 58.8125 C5.61816406 58.15121094 6.42382812 57.48992187 7.25390625 56.80859375 C9.25 55.375 9.25 55.375 11.25 55.375 C9.90911749 48.15685765 9.90911749 48.15685765 7.25 41.375 C0.29815502 39.05771834 -7.60769031 40.45341165 -14.75 41.375 C-15.08 39.725 -15.41 38.075 -15.75 36.375 C-8.73798513 32.01617994 -2.90157704 31.82286116 5.25 32.375 C10.03549799 33.970166 12.48399352 36.17476794 15.25 40.375 C16 42.6875 16 42.6875 16.25 44.375 C16.91 44.375 17.57 44.375 18.25 44.375 C21.47490201 35.87124053 23.3713034 26.53991263 19.8125 17.875 C13.250832 11.47337268 4.86267869 8.98357781 -3.75 6.375 C-3.792721 4.70888095 -3.79063832 3.04117115 -3.75 1.375 C-2.75 0.375 -2.75 0.375 0 0 Z " fill="#F7C501" transform="translate(242.75,97.625)"/>
<path d="M0 0 C1.23475571 -0.00637985 2.46951141 -0.0127597 3.74168396 -0.01933289 C5.10000571 -0.02086145 6.45832798 -0.02197547 7.81665039 -0.02270508 C9.20048559 -0.02591603 10.58432044 -0.02927997 11.96815491 -0.03279114 C14.87265815 -0.03878857 17.77713162 -0.04063042 20.68164062 -0.04003906 C24.4088281 -0.03993742 28.13582517 -0.05358905 31.86296749 -0.07081127 C34.72222272 -0.08191413 37.58143167 -0.0839588 40.44070625 -0.08342934 C41.8150657 -0.08461207 43.18942625 -0.0890502 44.56376457 -0.0967617 C46.48389116 -0.1065263 48.40407326 -0.10242848 50.32421875 -0.09765625 C51.96516762 -0.09979378 51.96516762 -0.09979378 53.63926697 -0.10197449 C56.22680664 0.14526367 56.22680664 0.14526367 58.22680664 2.14526367 C57.69109235 5.68097796 57.69109235 5.68097796 56.22680664 7.14526367 C54.29918847 7.2444723 52.3679131 7.27325732 50.43774414 7.2746582 C49.19976074 7.27781036 47.96177734 7.28096252 46.6862793 7.28421021 C45.32478805 7.28242042 43.96329713 7.28036947 42.60180664 7.27807617 C41.215576 7.27874926 39.82934547 7.27971933 38.44311523 7.28097534 C35.53441242 7.28245207 32.62574027 7.28029857 29.71704102 7.27563477 C25.98084066 7.26993748 22.24471213 7.27321662 18.5085144 7.27920723 C15.64501398 7.28281352 12.78153071 7.28167394 9.91802979 7.27907944 C8.54005932 7.27841036 7.16208732 7.27923794 5.78411865 7.28155899 C3.8613691 7.28408659 1.93861412 7.27955391 0.01586914 7.2746582 C-1.62841064 7.27346481 -1.62841064 7.27346481 -3.3059082 7.27224731 C-5.77319336 7.14526367 -5.77319336 7.14526367 -6.77319336 6.14526367 C-6.89819336 3.64526367 -6.89819336 3.64526367 -6.77319336 1.14526367 C-4.99631691 -0.63161278 -2.40440081 0.00838395 0 0 Z " fill="#E7BA07" transform="translate(314.773193359375,236.854736328125)"/>
<path d="M0 0 C1.8569751 -0.00472824 1.8569751 -0.00472824 3.75146484 -0.009552 C5.11295609 -0.00776222 6.47444701 -0.00571127 7.8359375 -0.00341797 C9.22216814 -0.00409106 10.60839867 -0.00506113 11.99462891 -0.00631714 C14.90333172 -0.00779387 17.81200387 -0.00564037 20.72070312 -0.00097656 C24.45690348 0.00472073 28.19303202 0.00144159 31.92922974 -0.00454903 C34.79273016 -0.00815532 37.65621343 -0.00701574 40.51971436 -0.00442123 C41.89768482 -0.00375215 43.27565682 -0.00457973 44.65362549 -0.00690079 C46.57637504 -0.00942839 48.49913002 -0.0048957 50.421875 0 C52.06615479 0.00119339 52.06615479 0.00119339 53.74365234 0.00241089 C56.2109375 0.12939453 56.2109375 0.12939453 57.2109375 1.12939453 C57.3359375 3.62939453 57.3359375 3.62939453 57.2109375 6.12939453 C55.43406105 7.90627098 52.84214496 7.26627425 50.43774414 7.2746582 C48.58561058 7.28422798 48.58561058 7.28422798 46.69606018 7.29399109 C45.33773843 7.29551965 43.97941616 7.29663367 42.62109375 7.29736328 C41.23725855 7.30057423 39.8534237 7.30393818 38.46958923 7.30744934 C35.56508599 7.31344677 32.66061252 7.31528862 29.75610352 7.31469727 C26.02891604 7.31459562 22.30191897 7.32824725 18.57477665 7.34546947 C15.71552142 7.35657233 12.85631247 7.358617 9.99703789 7.35808754 C8.62267844 7.35927027 7.24831789 7.36370841 5.87397957 7.37141991 C3.95385298 7.38118451 2.03367088 7.37708668 0.11352539 7.37231445 C-1.52742348 7.37445198 -1.52742348 7.37445198 -3.20152283 7.37663269 C-5.7890625 7.12939453 -5.7890625 7.12939453 -7.7890625 5.12939453 C-6.95966941 -0.34459983 -5.20946751 0.00378094 0 0 Z " fill="#E7BA07" transform="translate(146.7890625,236.87060546875)"/>
<path d="M0 0 C1.23475571 -0.00637985 2.46951141 -0.0127597 3.74168396 -0.01933289 C5.10000571 -0.02086145 6.45832798 -0.02197547 7.81665039 -0.02270508 C9.20048559 -0.02591603 10.58432044 -0.02927997 11.96815491 -0.03279114 C14.87265815 -0.03878857 17.77713162 -0.04063042 20.68164062 -0.04003906 C24.4088281 -0.03993742 28.13582517 -0.05358905 31.86296749 -0.07081127 C34.72222272 -0.08191413 37.58143167 -0.0839588 40.44070625 -0.08342934 C41.8150657 -0.08461207 43.18942625 -0.0890502 44.56376457 -0.0967617 C46.48389116 -0.1065263 48.40407326 -0.10242848 50.32421875 -0.09765625 C51.96516762 -0.09979378 51.96516762 -0.09979378 53.63926697 -0.10197449 C56.22680664 0.14526367 56.22680664 0.14526367 58.22680664 2.14526367 C57.89680664 3.46526367 57.56680664 4.78526367 57.22680664 6.14526367 C36.10680664 6.14526367 14.98680664 6.14526367 -6.77319336 6.14526367 C-6.77319336 -0.7621418 -6.23556107 0.02174291 0 0 Z " fill="#F4C302" transform="translate(314.773193359375,271.854736328125)"/>
<path d="M0 0 C1.09396591 0.00142502 2.18793182 0.00285004 3.31504822 0.00431824 C5.17191002 -0.00029671 5.17191002 -0.00029671 7.06628418 -0.00500488 C8.42256353 0.00189233 9.77884104 0.00915926 11.13511658 0.01676941 C12.51991737 0.01796113 13.90471898 0.01841439 15.28952026 0.01815796 C18.19228675 0.01972298 21.09492993 0.02801477 23.99766541 0.04142761 C27.7259989 0.05843337 31.454197 0.06224152 35.18256474 0.06148243 C38.04178164 0.06175379 40.9009687 0.06722929 43.7601757 0.07448387 C45.1353527 0.07767473 46.51053308 0.07963892 47.88571358 0.08037758 C49.803577 0.08253581 51.72142793 0.09206522 53.63926697 0.10197449 C55.27902245 0.10769218 55.27902245 0.10769218 56.9519043 0.11352539 C59.41246033 0.24723816 59.41246033 0.24723816 60.41246033 1.24723816 C60.41246033 2.89723816 60.41246033 4.54723816 60.41246033 6.24723816 C39.29246033 6.24723816 18.17246033 6.24723816 -3.58753967 6.24723816 C-3.91753967 4.92723816 -4.24753967 3.60723816 -4.58753967 2.24723816 C-2.58753967 0.24723816 -2.58753967 0.24723816 0 0 Z " fill="#F4C302" transform="translate(143.58753967285156,271.7527618408203)"/>
<path d="M0 0 C1.64547318 0.00666183 1.64547318 0.00666183 3.32418823 0.01345825 C4.56532379 0.01360931 5.80645935 0.01376038 7.08520508 0.01391602 C8.4446529 0.02413003 9.8040991 0.03456204 11.1635437 0.04519653 C12.55073849 0.04892619 13.93793591 0.05177339 15.32513428 0.05377197 C18.97813171 0.0614122 22.63097037 0.08106388 26.28390503 0.10317993 C30.01068982 0.12363007 33.73750024 0.1327719 37.46432495 0.14285278 C44.77819945 0.16430953 52.09194309 0.19845001 59.4057312 0.24050903 C60.3957312 2.22050903 60.3957312 2.22050903 61.4057312 4.24050903 C59.4057312 6.24050903 59.4057312 6.24050903 56.8114624 6.48101807 C55.16598923 6.47435623 55.16598923 6.47435623 53.48727417 6.46755981 C52.24613861 6.46740875 51.00500305 6.46725769 49.72625732 6.46710205 C48.3668095 6.45688803 47.0073633 6.44645603 45.6479187 6.43582153 C44.26072391 6.43209187 42.87352649 6.42924468 41.48632812 6.42724609 C37.83333069 6.41960587 34.18049203 6.39995419 30.52755737 6.37783813 C26.80077258 6.357388 23.07396217 6.34824617 19.34713745 6.33816528 C12.03326295 6.31670854 4.71951931 6.28256806 -2.5942688 6.24050903 C-3.2542688 4.92050903 -3.9142688 3.60050903 -4.5942688 2.24050903 C-2.5942688 0.24050903 -2.5942688 0.24050903 0 0 Z " fill="#FAC700" transform="translate(311.5942687988281,254.75949096679688)"/>
<path d="M0 0 C1.64547318 0.00666183 1.64547318 0.00666183 3.32418823 0.01345825 C4.56532379 0.01360931 5.80645935 0.01376038 7.08520508 0.01391602 C8.4446529 0.02413003 9.8040991 0.03456204 11.1635437 0.04519653 C12.55073849 0.04892619 13.93793591 0.05177339 15.32513428 0.05377197 C18.97813171 0.0614122 22.63097037 0.08106388 26.28390503 0.10317993 C30.01068982 0.12363007 33.73750024 0.1327719 37.46432495 0.14285278 C44.77819945 0.16430953 52.09194309 0.19845001 59.4057312 0.24050903 C59.78791887 1.89665561 60.11968222 3.56507928 60.4057312 5.24050903 C59.4057312 6.24050903 59.4057312 6.24050903 56.93171692 6.36076355 C55.83251419 6.35854294 54.73331146 6.35632233 53.60079956 6.35403442 C51.73898293 6.35392113 51.73898293 6.35392113 49.83955383 6.35380554 C48.4748938 6.34869814 47.11023418 6.34348213 45.74557495 6.33816528 C44.35694937 6.33630104 42.96832313 6.33487717 41.57969666 6.33387756 C37.91852005 6.3300529 34.2573829 6.32022307 30.59622192 6.30917358 C26.86280857 6.29895835 23.12938887 6.2943797 19.39596558 6.28933716 C12.06586944 6.27860074 4.73580584 6.26152495 -2.5942688 6.24050903 C-3.2542688 4.92050903 -3.9142688 3.60050903 -4.5942688 2.24050903 C-2.5942688 0.24050903 -2.5942688 0.24050903 0 0 Z " fill="#FBC800" transform="translate(143.59426879882813,254.75949096679688)"/>
<path d="M0 0 C0.33747548 2.87456792 0.67010463 5.74956059 1 8.625 C1.09539062 9.43324219 1.19078125 10.24148437 1.2890625 11.07421875 C2.31239962 20.06496631 2.31239962 20.06496631 2 24 C-0.72938257 26.80519876 -3.10476671 28.4229284 -7 29 C-8.41961143 24.74116572 -8.38514448 20.65091326 -8.5 16.1875 C-8.55414063 15.29740234 -8.60828125 14.40730469 -8.6640625 13.49023438 C-8.7985373 7.01143055 -8.7985373 7.01143055 -6.44140625 4.02587891 C-1.8160793 0 -1.8160793 0 0 0 Z " fill="#333330" transform="translate(227,184)"/>
<path d="M0 0 C0.66 0.33 1.32 0.66 2 1 C2.24206498 6.05291616 2.45699494 11.10598977 2.64697266 16.16113281 C2.71538497 17.88019476 2.79117342 19.59897979 2.87451172 21.31738281 C2.99310915 23.78935336 3.0850398 26.26111006 3.171875 28.734375 C3.21439392 29.50118591 3.25691284 30.26799683 3.30072021 31.05804443 C3.40244798 34.66428873 3.31103691 36.58490827 1.11425781 39.51660156 C-1 41 -1 41 -3 41 C-3.20643344 32.20937602 -2.39614855 23.60392798 -1.5 14.875 C-1.35501823 13.42712837 -1.21048369 11.97921189 -1.06640625 10.53125 C-0.71608615 7.02030177 -0.35973804 3.50999726 0 0 Z " fill="#313130" transform="translate(223,139)"/>
<path d="M0 0 C3.9975 1.5375 3.9975 1.5375 5.4375 3.9375 C5.3125 7.5 5.3125 7.5 4.4375 10.9375 C0.5871895 13.50437367 -1.14819763 12.77038724 -5.5625 11.9375 C-5.5625 11.2775 -5.5625 10.6175 -5.5625 9.9375 C-4.2425 9.6075 -2.9225 9.2775 -1.5625 8.9375 C-1.5625 7.6175 -1.5625 6.2975 -1.5625 4.9375 C-3.2125 4.6075 -4.8625 4.2775 -6.5625 3.9375 C-3.27554348 -0.0798913 -3.27554348 -0.0798913 0 0 Z " fill="#1E1D17" transform="translate(204.5625,251.0625)"/>
<path d="M0 0 C3.9975 1.5375 3.9975 1.5375 5.4375 3.9375 C5.3125 7.5 5.3125 7.5 4.4375 10.9375 C0.5871895 13.50437367 -1.14819763 12.77038724 -5.5625 11.9375 C-5.5625 11.2775 -5.5625 10.6175 -5.5625 9.9375 C-3.9125 9.2775 -2.2625 8.6175 -0.5625 7.9375 C-0.8925 6.9475 -1.2225 5.9575 -1.5625 4.9375 C-3.2125 4.6075 -4.8625 4.2775 -6.5625 3.9375 C-3.27554348 -0.0798913 -3.27554348 -0.0798913 0 0 Z " fill="#1C1B17" transform="translate(372.5625,251.0625)"/>
<path d="M0 0 C1.36125 0.37125 1.36125 0.37125 2.75 0.75 C3.08 1.74 3.41 2.73 3.75 3.75 C1.77 4.41 -0.21 5.07 -2.25 5.75 C-1.92 6.74 -1.59 7.73 -1.25 8.75 C0.4 9.08 2.05 9.41 3.75 9.75 C2.76 11.235 2.76 11.235 1.75 12.75 C-1.3805429 13.14964378 -3.38083761 13.27149743 -6.125 11.625 C-7.80468045 8.82553259 -7.70742277 6.95195936 -7.25 3.75 C-4.97472591 0.33708887 -4.14843699 -0.31911054 0 0 Z " fill="#1C1C17" transform="translate(310.25,251.25)"/>
<path d="M0 0 C0.66 0.33 1.32 0.66 2 1 C2 1.66 2 2.32 2 3 C0.02 3.66 -1.96 4.32 -4 5 C-3.67 5.99 -3.34 6.98 -3 8 C-1.35 8.33 0.3 8.66 2 9 C1.01 10.485 1.01 10.485 0 12 C-3.0996593 12.39570119 -5.12198451 12.49754211 -7.875 10.9375 C-9.66235303 7.85928089 -9.43386742 5.47093932 -9 2 C-6.14652584 -1.38189531 -4.06707002 -1.2843379 0 0 Z " fill="#1C1C17" transform="translate(144,252)"/>
<path d="M0 0 C3.5 0.1875 3.5 0.1875 7 1 C9 4 9 4 8.8125 7.5625 C8 11 8 11 5 13 C2.4375 13.3125 2.4375 13.3125 0 13 C-0.66 12.01 -1.32 11.02 -2 10 C-0.35 9.34 1.3 8.68 3 8 C2.80528889 6.05000871 2.80528889 6.05000871 2 4 C0.0162233 2.71563266 0.0162233 2.71563266 -2 2 C-1.34 1.34 -0.68 0.68 0 0 Z " fill="#181918" transform="translate(369,234)"/>
<path d="M0 0 C3.5 0.1875 3.5 0.1875 7 1 C9 4 9 4 8.8125 7 C7.98389778 10.05945433 7.64244001 11.30128857 5 13 C2.4375 13.375 2.4375 13.375 0 13 C-0.66 12.01 -1.32 11.02 -2 10 C-0.68 9.67 0.64 9.34 2 9 C2 7.35 2 5.7 2 4 C0.68 3.34 -0.64 2.68 -2 2 C-1.34 1.34 -0.68 0.68 0 0 Z " fill="#1B1B18" transform="translate(201,234)"/>
<path d="M0 0 C3.4375 -0.4375 3.4375 -0.4375 7 0 C9 1.625 9 1.625 10 4 C9.77962372 7.67293796 9.63033454 9.36966546 7 12 C3.375 12.125 3.375 12.125 0 12 C-0.33 11.34 -0.66 10.68 -1 10 C0.32 9.67 1.64 9.34 3 9 C3 7.35 3 5.7 3 4 C1.35 3.67 -0.3 3.34 -2 3 C-1.34 2.01 -0.68 1.02 0 0 Z " fill="#1A1A17" transform="translate(200,269)"/>
<path d="M0 0 C3 0.375 3 0.375 4.875 1.5 C6.52854531 4.25590884 6.39365568 6.22575452 6 9.375 C4.9375 11.25 4.9375 11.25 3 12.375 C-0.6875 12.5625 -0.6875 12.5625 -4 12.375 C-4.33 11.715 -4.66 11.055 -5 10.375 C-3.35 9.715 -1.7 9.055 0 8.375 C-0.33 7.055 -0.66 5.735 -1 4.375 C-2.65 4.045 -4.3 3.715 -6 3.375 C-4.09456498 0.83441997 -3.22246552 0.40280819 0 0 Z " fill="#171817" transform="translate(372,268.625)"/>
<path d="M0 0 C0.33 0.66 0.66 1.32 1 2 C-0.65 2.33 -2.3 2.66 -4 3 C-4 4.65 -4 6.3 -4 8 C-2.35 8.33 -0.7 8.66 1 9 C-0.125 10.5625 -0.125 10.5625 -2 12 C-5.64734979 11.77669287 -7.38372835 11.61627165 -10 9 C-10.543379 3.02283105 -10.543379 3.02283105 -8.9375 0 C-5.80758074 -1.6154422 -3.31825907 -0.79884015 0 0 Z " fill="#1C1B18" transform="translate(313,235)"/>
<path d="M0 0 C0.33 0.66 0.66 1.32 1 2 C-0.98 2.66 -2.96 3.32 -5 4 C-4.67 5.32 -4.34 6.64 -4 8 C-2.35 8.33 -0.7 8.66 1 9 C-0.77489599 11.24197388 -1.62175489 11.94326323 -4.5 12.375 C-7 12 -7 12 -8.8125 10.9375 C-10.67036623 7.90624457 -10.37133265 5.46577141 -10 2 C-7.70989947 -2.31077747 -4.20045325 -1.01122023 0 0 Z " fill="#181918" transform="translate(145,235)"/>
<path d="M0 0 C0.66 0.99 1.32 1.98 2 3 C0.35 3.33 -1.3 3.66 -3 4 C-3 5.65 -3 7.3 -3 9 C-1.68 9.66 -0.36 10.32 1 11 C0 12 0 12 -2.875 12.25 C-6 12 -6 12 -7.875 10.875 C-9.52854531 8.11909116 -9.39365568 6.14924548 -9 3 C-6.79614804 -0.6730866 -4.01201782 -0.51217249 0 0 Z " fill="#1A1915" transform="translate(312,269)"/>
<path d="M0 0 C0.66 0.99 1.32 1.98 2 3 C0.02 3.66 -1.96 4.32 -4 5 C-3.80528889 6.94999129 -3.80528889 6.94999129 -3 9 C-1.0162233 10.28436734 -1.0162233 10.28436734 1 11 C0 12 0 12 -2.875 12.25 C-6 12 -6 12 -7.875 10.875 C-9.52854531 8.11909116 -9.39365568 6.14924548 -9 3 C-6.79614804 -0.6730866 -4.01201782 -0.51217249 0 0 Z " fill="#161716" transform="translate(144,269)"/>
<path d="M0 0 C1.875 1.125 1.875 1.125 3 3 C3.38976435 6.11811483 3.50422245 8.11019567 1.9375 10.875 C-1.09814371 12.63763183 -3.57798172 12.37331109 -7 12 C-7.66 11.01 -8.32 10.02 -9 9 C-6.03 9 -3.06 9 0 9 C-0.33 7.35 -0.66 5.7 -1 4 C-3.31 3.67 -5.62 3.34 -8 3 C-8 2.34 -8 1.68 -8 1 C-5.20129973 -0.39935013 -3.09501208 -0.25265405 0 0 Z " fill="#1F1E17" transform="translate(375,217)"/>
<path d="M0 0 C0.33 0.66 0.66 1.32 1 2 C-0.98 2.66 -2.96 3.32 -5 4 C-5 5.32 -5 6.64 -5 8 C-2.36 8 0.28 8 3 8 C1.9375 10 1.9375 10 0 12 C-3.5625 12.4375 -3.5625 12.4375 -7 12 C-9.31282587 8.53076119 -9.42478586 7.07794425 -9 3 C-6.77089201 -0.71517998 -4.03410755 -0.2689405 0 0 Z " fill="#191916" transform="translate(144,217)"/>
<path d="M0 0 C2 1.125 2 1.125 4 3 C4.46376624 6.18011138 4.54663625 8.08893958 2.875 10.875 C0.11909116 12.52854531 -1.85075452 12.39365568 -5 12 C-6.875 10.875 -6.875 10.875 -8 9 C-8.1875 5.8125 -8.1875 5.8125 -8 3 C-7.01 3.495 -7.01 3.495 -6 4 C-5.375 6.5625 -5.375 6.5625 -5 9 C-3.35 9 -1.7 9 0 9 C0 6.03 0 3.06 0 0 Z " fill="#1F1E15" transform="translate(311,217)"/>
<path d="M0 0 C-2.22189824 2.22189824 -4.08482708 2.92598892 -7 4 C-6.67 5.32 -6.34 6.64 -6 8 C-3.69 8 -1.38 8 1 8 C0.01 9.485 0.01 9.485 -1 11 C-4.4375 11.4375 -4.4375 11.4375 -8 11 C-10 9.375 -10 9.375 -11 7 C-10.875 3.875 -10.875 3.875 -10 1 C-6.1496895 -1.56687367 -4.41430237 -0.83288724 0 0 Z " fill="#191A17" transform="translate(208,218)"/>
<path d="M0 0 C1.98 0.495 1.98 0.495 4 1 C5.10228696 5.40914783 5.07654536 9.48382401 5 14 C0.68393782 11.26943005 0.68393782 11.26943005 -1 9 C-1.23574867 5.86716216 -0.72936048 3.04342235 0 0 Z " fill="#343330" transform="translate(287,163)"/>
<path d="M0 0 C0.33 0 0.66 0 1 0 C1.70132913 6.70019789 2.11044961 13.26257354 2 20 C1.01 20 0.02 20 -1 20 C-1.02712351 17.60408962 -1.0468982 15.20849043 -1.0625 12.8125 C-1.07087891 12.13896484 -1.07925781 11.46542969 -1.08789062 10.77148438 C-1.10606538 7.04565869 -0.89299392 3.6211958 0 0 Z " fill="#353533" transform="translate(288,136)"/>
<path d="M0 0 C2.95012857 1.36970255 5.5652222 2.82609125 8 5 C8 5.99 8 6.98 8 8 C7.34 8 6.68 8 6 8 C4.64613064 6.34997172 3.31321858 4.6825613 2 3 C1.34 2.67 0.68 2.34 0 2 C0 1.34 0 0.68 0 0 Z " fill="#2A2718" transform="translate(333,211)"/>
</svg>
