<?xml version="1.0" encoding="UTF-8"?>
<svg version="1.1" xmlns="http://www.w3.org/2000/svg" width="512" height="512">
<path d="M0 0 C2.56704053 0.02950906 5.1320737 0.02044295 7.69921875 0.00756836 C9.34506208 0.01379247 10.990899 0.02217294 12.63671875 0.03295898 C13.77726715 0.02855553 13.77726715 0.02855553 14.94085693 0.02406311 C18.11321052 0.08082979 20.42306493 0.27546562 23.23925781 1.79443359 C25.41234467 4.15688944 25.49914778 6.33684807 25.77734375 9.46655273 C26.89109375 9.56967773 28.00484375 9.67280273 29.15234375 9.77905273 C32.63079777 10.18065045 35.66312913 11.06318016 38.96484375 12.21655273 C42.80362551 13.5529421 42.80362551 13.5529421 46.52734375 12.09155273 C47.64109375 11.28717773 47.64109375 11.28717773 48.77734375 10.46655273 C57.41982028 10.27013281 65.3357254 18.33939087 71.28515625 23.85327148 C78.81538 31.74938384 85.50812317 41.53190786 87.07421875 52.55639648 C88.12912308 55.4222199 90.00376104 56.30361384 92.52734375 57.96655273 C120.49304668 77.57510511 141.38843025 109.05656493 148.77734375 142.46655273 C148.9296875 145.50561523 148.9296875 145.50561523 148.77734375 147.46655273 C149.34839844 147.48073242 149.91945313 147.49491211 150.5078125 147.50952148 C164.72730397 148.34596216 177.41355758 155.1905445 187.12109375 165.47045898 C198.17183428 178.78868637 201.67657589 193.49990858 200.77734375 210.46655273 C198.84286188 224.80656513 191.54414271 238.15347001 180.46875 247.39233398 C170.8477968 254.58111022 160.62666584 258.0589205 148.77734375 259.46655273 C148.66519531 260.61124023 148.55304688 261.75592773 148.4375 262.93530273 C147.86402625 267.47522018 146.67978894 271.64102126 145.21484375 275.96655273 C144.9530835 276.74337402 144.69132324 277.52019531 144.42163086 278.32055664 C141.59338 286.41795647 137.87977505 293.94915756 133.77734375 301.46655273 C133.18824219 302.55967773 132.59914063 303.65280273 131.9921875 304.77905273 C124.5498836 318.07009204 114.20850195 329.31892336 103.30859375 339.87280273 C101.68387761 341.4058228 101.68387761 341.4058228 100.77734375 343.46655273 C101.34066406 343.7153418 101.90398437 343.96413086 102.484375 344.22045898 C123.81371489 355.81170161 137.60264328 384.8829926 144.23144531 407.23144531 C147.68074757 419.68117282 148.08952778 431.83429244 148.078125 444.65405273 C148.08201937 446.48820084 148.08635555 448.32234806 148.09111023 450.15649414 C148.09852472 453.97553453 148.09831313 457.79448234 148.09301758 461.61352539 C148.08718601 466.50723046 148.10426518 471.40056157 148.12736225 476.29420471 C148.14207525 480.07055879 148.14297536 483.84682181 148.13985252 487.62319946 C148.14036554 489.42852528 148.1455997 491.23385622 148.15566444 493.03915405 C148.16798359 495.55426772 148.16126816 498.06863873 148.1496582 500.58374023 C148.15730194 501.32661789 148.16494568 502.06949554 148.17282104 502.83488464 C148.12954938 507.07013367 147.76312204 509.42310226 144.77734375 512.46655273 C142.59474665 512.96794939 142.59474665 512.96794939 139.99965763 512.9699173 C139.01035033 512.98034829 138.02104303 512.99077928 137.00175673 513.00152636 C135.91208536 512.99260347 134.822414 512.98368058 133.69972229 512.9744873 C132.54433596 512.98072727 131.38894963 512.98696723 130.1985516 512.99339628 C126.9862014 513.0066201 123.77445249 513.00182138 120.56211698 512.98945141 C117.09986005 512.98042317 113.63768614 512.99435958 110.17544556 513.00537109 C103.39056524 513.02318543 96.60586162 513.01930329 89.8209743 513.00772053 C84.3076208 512.99869715 78.79431693 512.99745745 73.28095818 513.0018158 C72.49709231 513.00242873 71.71322644 513.00304166 70.90560706 513.00367317 C69.31332357 513.00495203 67.72104009 513.00624889 66.12875663 513.00756353 C51.18704942 513.01897805 36.24544027 513.00584237 21.30374914 512.98436207 C8.47743401 512.96649376 -4.34873632 512.96959126 -17.17504883 512.98803711 C-32.06071914 513.00943448 -46.94630342 513.01787565 -61.83198696 513.00558805 C-63.4188096 513.00431383 -65.00563225 513.00305635 -66.59245491 513.0018158 C-67.763648 513.00089014 -67.763648 513.00089014 -68.95850156 512.99994579 C-74.46601722 512.99648922 -79.97347841 513.0023279 -85.48098564 513.01173401 C-92.19180707 513.02294297 -98.90244131 513.01993751 -105.61324125 512.99861103 C-109.03858816 512.988085 -112.46362278 512.98400471 -115.88896751 512.99720764 C-119.59897705 513.00808146 -123.30809872 512.99449685 -127.01805115 512.9744873 C-128.10549179 512.98341019 -129.19293243 512.99233308 -130.31332582 513.00152636 C-137.57453143 512.92516744 -137.57453143 512.92516744 -140.89059544 510.57871246 C-142.46815326 508.07728456 -142.73783235 506.60436144 -142.75390625 503.65795898 C-142.76164062 502.28994141 -142.76164062 502.28994141 -142.76953125 500.89428711 C-142.7540625 499.94875977 -142.73859375 499.00323242 -142.72265625 498.02905273 C-142.738125 497.08739258 -142.75359375 496.14573242 -142.76953125 495.17553711 C-142.74480959 490.79671285 -142.61905388 488.14597156 -140.37890625 484.30639648 C-138.22265625 482.46655273 -138.22265625 482.46655273 -135.22265625 482.46655273 C-135.24545026 479.36075779 -135.32273444 476.2586479 -135.41015625 473.15405273 C-135.41595703 472.27297852 -135.42175781 471.3919043 -135.42773438 470.48413086 C-135.51120399 468.04496317 -135.63354245 465.83617567 -136.22265625 463.46655273 C-138.57331095 461.40408266 -138.57331095 461.40408266 -141.22265625 460.46655273 C-148.61880204 445.67426116 -141.50623431 416.70403974 -136.53515625 401.27905273 C-129.1002281 379.72643088 -115.53480895 356.3413212 -96.22265625 343.46655273 C-97.50676764 340.62286304 -98.81164611 338.6608282 -101.09375 336.54077148 C-101.66262939 335.99952637 -102.23150879 335.45828125 -102.81762695 334.90063477 C-103.42566162 334.3242627 -104.03369629 333.74789063 -104.66015625 333.15405273 C-122.02133016 316.18790747 -133.71373292 294.93009611 -141.09765625 271.90405273 C-141.31325195 271.23696289 -141.52884766 270.56987305 -141.75097656 269.88256836 C-142.84515397 266.3151508 -143.46625946 263.1994137 -143.22265625 259.46655273 C-144.31320313 259.33700195 -144.31320313 259.33700195 -145.42578125 259.20483398 C-161.83639333 256.91155614 -175.02371442 249.64511188 -185.21484375 236.45874023 C-194.30047323 222.91867762 -197.0903063 208.3517686 -194.7578125 192.25952148 C-191.34618487 176.85672927 -182.81197077 164.24893973 -169.72265625 155.46655273 C-161.65834965 150.74514246 -153.28719191 148.39261114 -144.22265625 146.46655273 C-144.08802979 145.93513672 -143.95340332 145.4037207 -143.81469727 144.85620117 C-139.19880166 126.95978567 -133.11232243 109.59371945 -122.22265625 94.46655273 C-121.5471875 93.5087793 -120.87171875 92.55100586 -120.17578125 91.56420898 C-110.57705647 78.34043389 -99.14802801 64.91818721 -84.84765625 56.77905273 C-79.20653623 53.18990825 -77.60397844 49.44061118 -75.94726562 43.25488281 C-71.81473258 27.95040503 -60.11174503 18.16889105 -46.98193359 10.45629883 C-32.27810503 2.18411995 -16.57859128 -0.20852557 0 0 Z " fill="#010101" transform="translate(253.22265625,-0.466552734375)"/>
<path d="M0 0 C0.20302734 1.27230469 0.20302734 1.27230469 0.41015625 2.5703125 C2.93159703 16.30989997 8.57444982 27.63017794 18 38 C18.73863281 38.81984375 19.47726563 39.6396875 20.23828125 40.484375 C37.44102015 58.61623073 71.31237775 80.92011839 96.765625 82.1875 C99.89421726 82.23831994 99.89421726 82.23831994 101.9375 80.9375 C103.61400994 77.88033482 103.72058711 75.33496377 103 72 C100.94931644 67.92906069 98.4510413 64.17302597 95.9375 60.375 C94.5998128 58.34997876 93.27495251 56.31640913 91.96484375 54.2734375 C91.07720337 52.93418213 91.07720337 52.93418213 90.17163086 51.56787109 C88.77262198 48.5016541 88.94247704 47.15271718 90 44 C91.3125 42.125 91.3125 42.125 93 41 C97.05131415 41.42940196 100.20645135 43.87248901 103.5625 46 C115.50157971 53.3341749 128.16015305 59.09676683 141.25 64.0625 C142.02375977 64.36172363 142.79751953 64.66094727 143.59472656 64.96923828 C148.20520214 66.65356375 152.01898626 67.40506338 157 67 C159.08333333 66.08333333 159.08333333 66.08333333 160 64 C160.75421294 57.52025654 158.7554943 54.14007872 155.25 49 C154.35813636 47.64664879 153.46749953 46.29248826 152.578125 44.9375 C152.1452417 44.28273682 151.7123584 43.62797363 151.26635742 42.95336914 C146.10562655 34.99288953 146.10562655 34.99288953 145.6875 31.0625 C147.45693024 26.93382945 150.29625111 25.04302174 153.70703125 22.20703125 C159.00319571 17.10936017 161.32265896 10.01433526 163 3 C183.56808408 11.7523762 198.48841668 41.37220003 206.40625 60.375 C214.81194037 83.33688589 214.61332301 107.33809723 214.44952393 131.42419434 C214.43343819 134.78652123 214.44349908 138.1485673 214.45364285 141.51090145 C214.46067292 144.80998175 214.45273095 148.10890119 214.44038582 151.40796089 C214.4359536 152.95412131 214.43545998 154.50029949 214.43945122 156.04646111 C214.45921941 170.41299668 212.54533955 184.28798644 208.3125 198.0625 C208.06048828 198.89120605 207.80847656 199.71991211 207.54882812 200.57373047 C204.91046452 208.86550332 201.21422248 216.40927067 197 224 C196.51917969 224.8971875 196.03835938 225.794375 195.54296875 226.71875 C178.80517708 256.43194788 149.23714657 277.87383209 116.75732422 287.28466797 C80.54691475 296.67872674 44.22060714 292.24029075 11.71728516 273.69775391 C1.75271962 267.81459175 -6.78125772 261.13104228 -15 253 C-15.70125 252.35933594 -16.4025 251.71867188 -17.125 251.05859375 C-31.61265497 237.53483518 -41.54103351 219.0483668 -47.9375 200.5 C-48.20788086 199.73155762 -48.47826172 198.96311523 -48.75683594 198.17138672 C-53.5080956 183.43284675 -54.48271374 167.93138292 -54.50390625 152.55859375 C-54.51360192 150.85441363 -54.52369789 149.15023574 -54.53416443 147.44606018 C-54.55193461 143.90237667 -54.55770563 140.35891032 -54.5559082 136.81518555 C-54.55566492 133.24212928 -54.57644187 129.67023114 -54.61743164 126.09741211 C-55.06654719 86.33645785 -48.79345178 50.96836833 -22 20 C-21.31550781 19.18273437 -20.63101563 18.36546875 -19.92578125 17.5234375 C-4.81656347 0 -4.81656347 0 0 0 Z " fill="#FECDBE" transform="translate(176,70)"/>
<path d="M0 0 C0.33 0 0.66 0 1 0 C1.06731323 1.07930786 1.06731323 1.07930786 1.13598633 2.18041992 C2.0468499 20.83727311 2.0468499 20.83727311 6 39 C6.29366455 39.91386475 6.29366455 39.91386475 6.59326172 40.84619141 C15.29915368 67.32851197 32.36120071 87.77894353 56.99853516 101.00244141 C82.32161098 113.62382318 110.74248863 113.93852532 137.5 105.875 C150.44380917 101.31462841 161.86634949 94.2447338 172 85 C172.77730469 84.30390625 173.55460938 83.6078125 174.35546875 82.890625 C197.95309793 60.63330866 203.91766615 31.02250397 205 0 C215.00380005 9.8185445 221.82311083 21.24828011 226.75 34.3125 C227.03157959 35.04573486 227.31315918 35.77896973 227.60327148 36.53442383 C238.29399036 66.13237889 233 98.17219502 233 129 C147.2 129 61.4 129 -27 129 C-27.33 125.37 -27.66 121.74 -28 118 C-31.63106761 114.94729537 -31.63106761 114.94729537 -35 114 C-35 107.73 -35 101.46 -35 95 C-33.02 94.01 -31.04 93.02 -29 92 C-26.6323253 88.44848795 -26.72428257 86.81782248 -26.65625 82.6015625 C-26.62660156 81.31636719 -26.59695312 80.03117187 -26.56640625 78.70703125 C-26.54324469 77.34637125 -26.52111365 75.98569332 -26.5 74.625 C-26.28365143 61.70771765 -25.57770602 49.28583247 -21.3125 37 C-21.05049805 36.23655273 -20.78849609 35.47310547 -20.51855469 34.68652344 C-16.20602153 22.55338706 -9.24325423 9.24325423 0 0 Z " fill="#3B86CE" transform="translate(153,368)"/>
<path d="M0 0 C7.02952752 0.4535179 12.5849443 2.12059087 19 5 C18.9071875 6.7015625 18.9071875 6.7015625 18.8125 8.4375 C19.3582189 13.03945785 21.60091182 14.78548162 25.125 17.625 C27.06926441 19.10203808 29.0267282 20.56194439 31 22 C39.16346412 28.06786222 44.74761338 35.98224235 47 46 C47.20777871 48.69572644 47.33472303 51.24819169 47.3125 53.9375 C47.30512817 54.99300049 47.30512817 54.99300049 47.29760742 56.06982422 C47.10662291 64.51819548 44.80069785 69.92307845 39 76 C38.154375 76.639375 37.30875 77.27875 36.4375 77.9375 C32.49064714 81.27714473 30.37269557 84.51159827 29.61328125 89.58203125 C29.34115502 96.29135028 30.87983271 101.13496855 34 107 C27.49687321 105.08918334 21.80518175 102.49676535 15.9375 99.125 C15.18662109 98.70347656 14.43574219 98.28195313 13.66210938 97.84765625 C9.26493321 95.36213057 4.96803394 92.75752629 0.72875977 90.01123047 C-3.31023663 87.64863718 -7.45016757 87.51560719 -12 88 C-18.67718378 90.61850344 -23.30510353 94.25484085 -26.26953125 100.80078125 C-28.82854907 108.50520388 -26.30537982 114.93179941 -23 122 C-40.61564171 116.57145094 -56.84571441 105.72062783 -70 93 C-70.62132812 92.46375 -71.24265625 91.9275 -71.8828125 91.375 C-81.21709851 83.00344304 -87.51302863 69.99352769 -88.34375 57.58203125 C-88.90730237 44.59046096 -86.94674574 35.26853909 -78.3125 25.125 C-73.66266744 20.34466992 -68.98488784 16.90745672 -63 14 C-61.62908203 13.32517578 -61.62908203 13.32517578 -60.23046875 12.63671875 C-46.02925195 6.19198984 -31.79520656 5.54001494 -16.50146484 5.63964844 C-14.32841868 5.64817576 -12.15725397 5.62667865 -9.984375 5.6015625 C-8.71303711 5.60494629 -7.44169922 5.60833008 -6.13183594 5.61181641 C-2.8004989 5.32078812 -2.8004989 5.32078812 -1.06347656 2.46240234 C-0.7125293 1.64980957 -0.36158203 0.8372168 0 0 Z " fill="#D67E49" transform="translate(278,9)"/>
<path d="M0 0 C20.56808408 8.7523762 35.48841668 38.37220003 43.40625 57.375 C51.81194037 80.33688589 51.61332301 104.33809723 51.44952393 128.42419434 C51.43343819 131.78652123 51.44349908 135.1485673 51.45364285 138.51090145 C51.46067292 141.80998175 51.45273095 145.10890119 51.44038582 148.40796089 C51.4359536 149.95412131 51.43545998 151.50029949 51.43945122 153.04646111 C51.45921941 167.41299668 49.54533955 181.28798644 45.3125 195.0625 C45.06048828 195.89120605 44.80847656 196.71991211 44.54882812 197.57373047 C41.91046452 205.86550332 38.21422248 213.40927067 34 221 C33.51917969 221.8971875 33.03835938 222.794375 32.54296875 223.71875 C15.384767 254.17826665 -14.1439341 274.33941787 -47.01855469 284.50488281 C-49.39362121 285.0983568 -51.56343502 285.22688662 -54 285 C-51.16194959 282.68698892 -48.18646156 281.0002175 -44.92456055 279.34985352 C-32.89673789 273.25736387 -22.78281005 265.24719726 -13 256 C-12.18917969 255.25363281 -11.37835938 254.50726563 -10.54296875 253.73828125 C7.83258975 236.23085937 20.15018999 212.56378554 26 188 C25.01 188.33 24.02 188.66 23 189 C18.37916564 189.26295488 13.75250217 189.23147146 9.125 189.25 C7.20494141 189.2809375 7.20494141 189.2809375 5.24609375 189.3125 C4.01246094 189.31765625 2.77882813 189.3228125 1.5078125 189.328125 C0.38004395 189.3374707 -0.74772461 189.34681641 -1.90966797 189.35644531 C-6.53318114 188.8231597 -9.07559318 186.92440682 -12.3125 183.6875 C-14.38824731 180.38168021 -14.62720783 178.84164793 -14 175 C-11.96006092 171.3421782 -10.49580738 169.33053826 -7 167 C-2.78614681 166.61206343 1.42884831 166.67087599 5.65917969 166.68432617 C7.72906029 166.68746821 9.79748544 166.66408667 11.8671875 166.63867188 C13.84332031 166.63770508 13.84332031 166.63770508 15.859375 166.63671875 C17.06045898 166.63373779 18.26154297 166.63075684 19.49902344 166.62768555 C22.47792349 166.94447931 24.08373023 167.33732644 26.71881104 168.52326965 C28.34299957 169.25425117 28.34299957 169.25425117 30 170 C29.96160204 159.67100259 29.90175702 149.34235806 29.81609726 139.0136385 C29.77694267 134.21521648 29.74460008 129.4169692 29.72900391 124.6184082 C29.59733687 86.91836996 26.59545277 46.2432287 -0.8203125 17.0625 C-2.3125 15.4375 -2.3125 15.4375 -4 12 C-3.1848386 7.76330591 -1.7395745 3.9382932 0 0 Z " fill="#FDAE9D" transform="translate(339,73)"/>
<path d="M0 0 C0.54599854 0.1868335 1.09199707 0.37366699 1.65454102 0.56616211 C35.49706752 12.01560873 71.05632162 13.87005593 105.19140625 1.87890625 C108 1 108 1 112 1 C112.99828543 19.5117955 111.38571828 34.34312655 99 49 C98.40574219 49.70511719 97.81148438 50.41023438 97.19921875 51.13671875 C87.35560071 61.83630357 73.96727222 67.63095605 59.58203125 68.23828125 C41.75461258 68.65049737 28.47654705 63.82466957 15.3203125 51.47265625 C4.24708098 39.67239437 -0.21754065 24.96299901 -0.0625 9.125 C-0.05798828 8.24585938 -0.05347656 7.36671875 -0.04882812 6.4609375 C-0.03712337 4.30726197 -0.01919069 2.15362183 0 0 Z " fill="#B0C8EA" transform="translate(200,366)"/>
<path d="M0 0 C1.98 0.99 1.98 0.99 4 2 C4.74459492 36.33728124 2.46833108 64.07579038 -22.1875 90.5625 C-40.05520705 107.74142922 -63.29466337 114.52752261 -87.5703125 114.20703125 C-106.87349747 113.65715024 -122.90118778 106.61125809 -138 95 C-138.73605469 94.44828125 -139.47210938 93.8965625 -140.23046875 93.328125 C-153.83541801 82.35726771 -163.69851737 64.75874667 -168 48 C-168.17805176 47.36481445 -168.35610352 46.72962891 -168.53955078 46.07519531 C-170.68557915 37.29822289 -170.21822432 28.34388363 -170.125 19.375 C-170.11494957 17.68620323 -170.10582737 15.99740066 -170.09765625 14.30859375 C-170.07580739 10.20558406 -170.04139154 6.10285718 -170 2 C-166.87811304 1.03629636 -165.27755247 0.90833433 -162.13623047 1.94580078 C-154.53182634 6.21437722 -154.53182634 6.21437722 -153.09863281 11.02636719 C-152.86678917 14.68236302 -152.94051706 18.21651817 -153.125 21.875 C-153.14756805 24.48558765 -153.15415748 27.0963638 -153.14453125 29.70703125 C-153.14018066 30.96338379 -153.13583008 32.21973633 -153.13134766 33.51416016 C-152.44791235 51.6518725 -142.13459382 68.3069239 -129.4375 80.625 C-113.06832938 94.76656177 -93.78895389 98.33650476 -72.67675781 97.22753906 C-67.05827508 96.74993728 -62.1564638 95.31324696 -57 93 C-55.96875 92.55269531 -54.9375 92.10539062 -53.875 91.64453125 C-47.22138321 88.54228242 -41.5047398 84.84417102 -36 80 C-35.24976563 79.35546875 -34.49953125 78.7109375 -33.7265625 78.046875 C-23.19178512 68.33905966 -15.2418069 53.17052663 -13 39 C-12.98944285 36.67033156 -13.02976264 34.34018071 -13.10546875 32.01171875 C-13.12941742 29.94702897 -13.14290221 27.88240843 -13.15649414 25.81762695 C-13.17709273 24.4024876 -13.21733056 22.98749225 -13.27758789 21.57348633 C-13.46597985 16.8603918 -13.39665356 12.55908081 -12 8 C-8.41508939 4.39982092 -4.59026597 2.12963006 0 0 Z " fill="#CFDDF1" transform="translate(339,351)"/>
<path d="M0 0 C10.00380005 9.8185445 16.82311083 21.24828011 21.75 34.3125 C22.03157959 35.04573486 22.31315918 35.77896973 22.60327148 36.53442383 C27.29094182 49.51254603 28.44134087 62.13134961 28.29296875 75.77734375 C28.28735414 77.32531823 28.2830929 78.87329813 28.28010559 80.42127991 C28.26880322 84.44078012 28.23946745 88.45994056 28.20599365 92.47930908 C28.17497227 96.60269579 28.16153268 100.72613891 28.14648438 104.84960938 C28.11457906 112.89991076 28.06193627 120.94987362 28 129 C19.09 129 10.18 129 1 129 C0.97812622 125.94492187 0.97812622 125.94492187 0.95581055 122.828125 C0.90506078 116.03473611 0.83840018 109.24156681 0.76428509 102.44839478 C0.71990277 98.33703642 0.68057996 94.22576987 0.65356445 90.11425781 C0.62720556 86.13290197 0.58658498 82.15190584 0.53681374 78.17077637 C0.52036179 76.66569558 0.50871475 75.1605529 0.50238609 73.65539551 C0.45350586 63.08068327 -0.81862058 53.35287946 -3 43 C-3.94956798 38.09132774 -3.74877344 34.83983277 -2.625 29.9375 C-0.5168496 20.04476939 -0.26620012 10.08324859 0 0 Z " fill="#0077C6" transform="translate(358,368)"/>
<path d="M0 0 C7.02952752 0.4535179 12.5849443 2.12059087 19 5 C18.9071875 6.7015625 18.9071875 6.7015625 18.8125 8.4375 C19.3582189 13.03945785 21.60091182 14.78548162 25.125 17.625 C27.06926441 19.10203808 29.0267282 20.56194439 31 22 C39.16346412 28.06786222 44.74761338 35.98224235 47 46 C47.20777871 48.69572644 47.33472303 51.24819169 47.3125 53.9375 C47.30512817 54.99300049 47.30512817 54.99300049 47.29760742 56.06982422 C47.10662291 64.51819548 44.80069785 69.92307845 39 76 C38.154375 76.639375 37.30875 77.27875 36.4375 77.9375 C32.49064714 81.27714473 30.37269557 84.51159827 29.61328125 89.58203125 C29.34115502 96.29135028 30.87983271 101.13496855 34 107 C27.39538102 105.06406164 21.59634955 102.40076859 15.625 99 C14.43583984 98.34257812 14.43583984 98.34257812 13.22265625 97.671875 C9.72308771 95.70595832 6.7507875 93.96156352 4 91 C6.94716082 86.84374756 9.89591885 82.98745602 13.625 79.5 C20.34921525 72.9687534 23.06261352 64.37720759 23.25 55.125 C22.94468052 42.14088743 18.43674395 30.20564599 9.4375 20.6875 C4.34741465 15.93570471 -1.35264641 12.30206341 -7.2890625 8.71484375 C-8.18367188 8.14894531 -9.07828125 7.58304688 -10 7 C-10 6.67 -10 6.34 -10 6 C-8.906875 5.938125 -7.81375 5.87625 -6.6875 5.8125 C-2.85667284 5.3867767 -2.85667284 5.3867767 -1.0625 2.4375 C-0.711875 1.633125 -0.36125 0.82875 0 0 Z " fill="#C56B35" transform="translate(278,9)"/>
<path d="M0 0 C0 26.07 0 52.14 0 79 C-8.46489172 79 -15.88960828 74.9358091 -22 69 C-31.23986977 58.78882316 -34.00677733 47.90252269 -33.4140625 34.4375 C-32.63208778 24.0053456 -27.4500825 16.0415754 -19.86328125 9.0234375 C-13.99225689 4.20776307 -7.76103984 0 0 0 Z " fill="#FCAE9C" transform="translate(107,163)"/>
<path d="M0 0 C11.04906806 1.84151134 20.20585466 7.3580042 26.82421875 16.52734375 C33.31481843 26.97830934 34.27348578 36.923665 33 49 C31.89460809 53.40733513 30.29604136 57.09003036 28 61 C27.34837891 62.11761719 27.34837891 62.11761719 26.68359375 63.2578125 C21.37209345 71.21749671 13.06591141 76.3427501 4 79 C2.68 79 1.36 79 0 79 C0 52.93 0 26.86 0 0 Z " fill="#FDA58E" transform="translate(405,163)"/>
<path d="M0 0 C3.66083667 0.70101128 4.61364485 1.68625305 6.9375 4.5625 C7.80859375 7.55078125 7.80859375 7.55078125 8.375 10.875 C9.82941506 17.71075079 11.30868876 22.03782883 17.1328125 26.08984375 C22.97336479 29.39460766 28.28345996 30.83140996 34.9375 29.5625 C40.59848527 27.68652386 45.67137758 25.0725844 48.921875 19.93359375 C50.6015188 16.0122715 51.59714151 11.87655038 52.50732422 7.71728516 C53.63463417 2.76441055 53.63463417 2.76441055 56.9375 0.5625 C60.15352851 0.22036931 62.19791433 0.17522605 65.0859375 1.6875 C67.71844903 4.35333446 67.57044402 6.16938972 67.625 9.875 C67.30587733 20.16138751 63.09480771 29.04064501 55.625 36.125 C45.54851656 44.15173724 35.67212277 46.58243546 22.9375 45.5625 C12.53867881 43.29714 4.28316665 37.35126618 -1.78125 28.67578125 C-4.77398806 23.7395883 -7.45221106 18.36024494 -8.0625 12.5625 C-8.18625 11.4075 -8.31 10.2525 -8.4375 9.0625 C-8.0625 5.5625 -8.0625 5.5625 -5.9375 2.625 C-3.0625 0.5625 -3.0625 0.5625 0 0 Z " fill="#050403" transform="translate(226.0625,248.4375)"/>
<path d="M0 0 C8.87945136 5.59315224 14.67245999 13.03230169 18 23 C18.37109375 26.19140625 18.37109375 26.19140625 18.4375 29.5625 C18.49744141 31.23505859 18.49744141 31.23505859 18.55859375 32.94140625 C18 36 18 36 15.62890625 38.36328125 C13 40 13 40 10.5 40.625 C7.41731783 39.85432946 5.90125467 38.4153815 3.98828125 35.91015625 C2.51267515 33.05809545 2.49076268 30.33538304 2.2890625 27.171875 C1.65731534 22.42523417 -1.49765591 19.29975868 -4.9375 16.25 C-10.79900575 11.94358761 -15.82388115 11.14543928 -23 12 C-28.63672993 13.57072898 -32.4360385 16.75684072 -35.76171875 21.5078125 C-37.75856739 25.52670661 -38.45128691 29.73875168 -39.1640625 34.14453125 C-40 37 -40 37 -41.86328125 38.890625 C-45.18825926 40.61693899 -47.4692628 39.96292833 -51 39 C-53.66348812 36.20703677 -54.43126057 34.20601231 -54.4375 30.375 C-54.07680814 19.71106689 -48.40984793 11.01735459 -40.875 3.8125 C-29.00824736 -5.66532213 -13.39673035 -7.13149254 0 0 Z " fill="#050403" transform="translate(343,188)"/>
<path d="M0 0 C10.56074437 -0.55291855 19.61873441 2.6290209 27.734375 9.40625 C34.71391104 16.19254155 39.27986198 24.43350192 39.671875 34.21875 C39.62109657 38.03277396 39.38773426 39.14083114 37.234375 42.46875 C34.296875 44.28125 34.296875 44.28125 30.671875 44.40625 C27.296875 43.28125 27.296875 43.28125 25.484375 41.34375 C24.42048342 38.6000296 23.94522047 36.34903417 23.484375 33.46875 C22.46192086 27.93595378 20.43700814 24.12060423 16.296875 20.28125 C10.75612919 16.59436275 4.87701722 15.1455315 -1.703125 16.28125 C-7.98116607 18.22445319 -11.94426597 22.00063835 -15.703125 27.28125 C-16.83797307 29.55094615 -16.86738551 31.07367861 -17.015625 33.59375 C-17.48187429 37.91525464 -18.26225892 40.38367856 -21.703125 43.28125 C-25.203125 44.34375 -25.203125 44.34375 -28.703125 44.28125 C-31.51137547 42.18261121 -32.56597508 40.92247038 -33.3046875 37.46875 C-33.38039804 27.17211619 -30.10192551 20.42800506 -24.515625 11.96875 C-17.32817415 5.10074141 -9.80393212 1.0200623 0 0 Z " fill="#050403" transform="translate(183.703125,183.71875)"/>
<path d="M0 0 C2.0569558 0.05500535 4.10986333 0.06152675 6.16748047 0.06079102 C17.30618279 0.20923374 17.30618279 0.20923374 21.92919922 3.61743164 C24.04400604 6.31563344 24.8538323 8.17465098 25.42919922 11.55493164 C24.74730155 15.73155483 22.84915223 17.62957275 19.92919922 20.61743164 C15.21373438 23.76107487 10.19226327 22.98938696 4.64233398 22.98803711 C2.63427384 22.99239351 0.6263713 23.02937959 -1.38134766 23.06665039 C-2.656875 23.07051758 -3.93240234 23.07438477 -5.24658203 23.07836914 C-6.4110083 23.08658691 -7.57543457 23.09480469 -8.77514648 23.10327148 C-12.78795396 22.51171012 -14.92430675 21.134513 -18.07080078 18.61743164 C-20.04202059 15.66060193 -20.45195247 14.69205011 -20.63330078 11.30493164 C-20.69646484 10.56629883 -20.75962891 9.82766602 -20.82470703 9.06665039 C-19.7889641 5.7018275 -18.29998189 4.01120353 -15.5559082 1.828125 C-10.66897891 -0.5526867 -5.33513454 -0.14780716 0 0 Z " fill="#FE9084" transform="translate(162.07080078125,239.382568359375)"/>
<path d="M0 0 C2.09184223 0.00315256 4.18225913 -0.02027836 6.27392578 -0.0456543 C7.61116359 -0.04792827 8.94840518 -0.04863033 10.28564453 -0.04760742 C12.10298096 -0.05207886 12.10298096 -0.05207886 13.95703125 -0.05664062 C18.24073469 0.43050686 20.70304935 2.10272958 24.01220703 4.72973633 C26.04931179 7.38058419 25.75662306 9.859905 25.65673828 13.09301758 C24.97764811 16.6379929 23.01521427 18.17891827 20.23095703 20.31567383 C15.18610849 23.67890619 9.27977346 22.64299819 3.35595703 22.62817383 C2.07591797 22.64428711 0.79587891 22.66040039 -0.52294922 22.67700195 C-1.75658203 22.67764648 -2.99021484 22.67829102 -4.26123047 22.67895508 C-5.9528833 22.68342651 -5.9528833 22.68342651 -7.67871094 22.68798828 C-12.29483574 22.13185063 -14.8463619 20.2383549 -18.08154297 17.00317383 C-20.15729028 13.69735404 -20.39625079 12.15732176 -19.76904297 8.31567383 C-14.77902311 -0.63194799 -9.25444804 -0.02925194 0 0 Z " fill="#FE9084" transform="translate(344.76904296875,239.684326171875)"/>
<path d="M0 0 C1.32 0.66 2.64 1.32 4 2 C4 10.58 4 19.16 4 28 C1.5432705 25.5432705 -0.52876252 23.46215458 -2.578125 20.765625 C-2.97418945 20.24774414 -3.37025391 19.72986328 -3.77832031 19.19628906 C-4.26397461 18.55401367 -4.74962891 17.91173828 -5.25 17.25 C-6.8175 15.1875 -8.385 13.125 -10 11 C-10.33 17.93 -10.66 24.86 -11 32 C-11.33 32 -11.66 32 -12 32 C-13.91472991 11.12453439 -13.91472991 11.12453439 -10.82226562 6.078125 C-7.73021875 3.07095784 -4.03207879 1.3920272 0 0 Z " fill="#BACEE9" transform="translate(339,351)"/>
</svg>
