<?xml version="1.0" encoding="UTF-8"?>
<svg version="1.1" xmlns="http://www.w3.org/2000/svg" width="512" height="512">
<path d="M0 0 C14.13643177 13.02294571 19.68541147 32.01645152 20.73828125 50.71606445 C20.83492356 54.61673951 20.86510801 58.51262609 20.84375 62.4140625 C20.84101578 63.45920013 20.84101578 63.45920013 20.83822632 64.52545166 C20.74362179 86.16492863 16.83516203 106.88731442 12.53125 128.0390625 C13.06234375 128.3071875 13.5934375 128.5753125 14.140625 128.8515625 C19.68053889 131.9247994 22.74719145 134.87595115 24.53125 141.0390625 C25.04996538 144.39676853 25.10335287 147.64646549 25.03125 151.0390625 C25.01916504 151.95606934 25.00708008 152.87307617 24.99462891 153.81787109 C24.58335336 168.1477082 21.08757392 182.26096988 11.09375 193.0390625 C6.58275009 197.17496833 1.7012584 198.83587055 -4.1953125 200.11328125 C-4.99791504 200.28819092 -5.80051758 200.46310059 -6.62744141 200.64331055 C-7.23507324 200.77390869 -7.84270508 200.90450684 -8.46875 201.0390625 C-8.62956055 202.01141846 -8.79037109 202.98377441 -8.95605469 203.9855957 C-9.56429974 207.64594999 -10.18645061 211.3038342 -10.8125 214.96118164 C-11.07987996 216.53444917 -11.34365037 218.10833511 -11.60351562 219.68286133 C-13.56353228 231.53719284 -15.56585188 242.74449208 -22.78125 252.6640625 C-23.16571289 253.21344482 -23.55017578 253.76282715 -23.94628906 254.32885742 C-25.72536813 256.83697694 -27.54674576 259.11760084 -29.71484375 261.30078125 C-31.90286675 263.53998608 -33.29088245 265.12515883 -34.46875 268.0390625 C-34.18095245 273.61237266 -32.93074093 278.67081457 -31.46875 284.0390625 C-31.12035554 285.70264604 -30.77963368 287.36806273 -30.46875 289.0390625 C-28.6125 289.07 -28.6125 289.07 -26.71875 289.1015625 C-18.14985132 290.10416375 -11.22970852 295.48026792 -4.80187988 300.89337158 C2.65956478 307.1123361 10.41603737 311.33990783 19.25796509 315.27624512 C22.4150649 316.68282885 25.55129958 318.13354099 28.68965149 319.58135986 C30.29784721 320.32291176 31.90696772 321.06246144 33.51701355 321.79998779 C41.19680574 325.32180937 48.78947272 329.00623261 56.34375 332.7890625 C56.95704163 333.096091 57.57033325 333.40311951 58.20220947 333.7194519 C70.21263647 339.75213646 81.9571816 346.20820408 93.53125 353.0390625 C94.31226074 353.49651855 95.09327148 353.95397461 95.89794922 354.42529297 C111.64223332 363.70408808 124.3125144 373.68741305 129.8125 391.91796875 C131.78462283 400.48169778 133.04794187 409.33252876 128.2578125 417.10546875 C101.02499051 455.29784106 37.41193061 468.04495668 -5.48339844 475.38232422 C-95.24008728 490.36189513 -204.61213464 486.57395729 -294.19140625 433.51171875 C-312.57950922 419.89230346 -312.57950922 419.89230346 -314.40625 408.8515625 C-315.19187174 394.99605188 -310.66672092 381.83067592 -301.6875 371.34375 C-277.78673699 346.51725321 -238.72913027 332.40329801 -208.06864929 317.67463684 C-205.49748143 316.43806455 -202.92906916 315.19584124 -200.36120605 313.9524231 C-199.0897874 313.33879527 -197.81689046 312.72822188 -196.54260254 312.12057495 C-189.62118364 308.81729083 -183.13782822 305.56400057 -177.34375 300.4765625 C-169.89222022 294.30431068 -162.23985449 289.33229692 -152.46875 288.0390625 C-151.74192096 285.14676347 -151.036975 282.25192643 -150.34375 279.3515625 C-150.13621094 278.53494141 -149.92867187 277.71832031 -149.71484375 276.87695312 C-148.2638885 270.77077647 -148.2638885 270.77077647 -150.46875 265.0390625 C-151.81099467 263.30863302 -153.21290818 261.62361178 -154.65625 259.9765625 C-164.10780647 248.54960034 -167.94453451 238.36221241 -170.46875 224.0390625 C-170.65066895 223.03020996 -170.83258789 222.02135742 -171.02001953 220.98193359 C-172.21404343 214.34162656 -173.36160634 207.6943843 -174.46875 201.0390625 C-175.26539063 200.86890625 -176.06203125 200.69875 -176.8828125 200.5234375 C-187.03653549 198.20117482 -193.35717634 194.55518974 -199.46875 186.0390625 C-206.79673624 173.18052061 -210.18051476 156.78593314 -208.0390625 142.0703125 C-206.62832503 137.0457681 -203.96792844 133.18129369 -199.84375 130.0390625 C-197.46875 129.0390625 -197.46875 129.0390625 -194.46875 129.0390625 C-194.68080078 127.98332031 -194.89285156 126.92757812 -195.11132812 125.83984375 C-201.46693872 93.89297486 -207.81364696 61.82985216 -190.15625 32.2265625 C-184.14420134 23.24719369 -176.4912321 18.02132872 -166.46875 14.0390625 C-165.37691406 13.86246094 -164.28507813 13.68585937 -163.16015625 13.50390625 C-162.27199219 13.35050781 -161.38382813 13.19710937 -160.46875 13.0390625 C-159.44424761 10.85768453 -159.44424761 10.85768453 -158.46875 8.0390625 C-148.97089382 -5.30185687 -134.13186137 -10.29169934 -118.58203125 -13.3359375 C-83.66028977 -19.01170587 -29.40778436 -23.35871479 0 0 Z " fill="#ECBA89" transform="translate(347.46875,22.9609375)"/>
<path d="M0 0 C8.47031257 1.20232507 15.40560913 6.53871101 21.79187012 11.91680908 C29.25331478 18.1357736 37.00978737 22.36334533 45.85171509 26.29968262 C49.0088149 27.70626635 52.14504958 29.15697849 55.28340149 30.60479736 C56.89159721 31.34634926 58.50071772 32.08589894 60.11076355 32.82342529 C67.79055574 36.34524687 75.38322272 40.02967011 82.9375 43.8125 C83.85743744 44.27304276 83.85743744 44.27304276 84.79595947 44.7428894 C96.80638647 50.77557396 108.5509316 57.23164158 120.125 64.0625 C120.90601074 64.51995605 121.68702148 64.97741211 122.49169922 65.44873047 C138.23598332 74.72752558 150.9062644 84.71085055 156.40625 102.94140625 C158.37837283 111.50513528 159.64169187 120.35596626 154.8515625 128.12890625 C127.6715295 166.24724521 63.98257363 179.09260585 21.20703125 186.40136719 C1.72014929 189.62369088 -18.11119805 192.20167308 -37.875 192.0625 C-39.31421214 180.44946525 -40.7488444 168.83587472 -42.17766571 157.22155666 C-42.84129844 151.82833249 -43.50649496 146.43531089 -44.17529297 141.04272461 C-44.82090566 135.83660928 -45.46237437 130.62999845 -46.10099792 125.42302132 C-46.34511934 123.43857764 -46.59072225 121.45431563 -46.83784485 119.47024345 C-47.18425617 116.68693055 -47.52534927 113.90301282 -47.86523438 111.11889648 C-47.9680925 110.30249695 -48.07095062 109.48609741 -48.17692566 108.6449585 C-48.72503232 104.10346497 -49.21948467 99.64018353 -48.875 95.0625 C-47.45620324 93.90766543 -46.02734999 92.76141843 -44.53515625 91.703125 C-40.91494097 88.12550048 -39.5482385 82.77303012 -37.875 78.0625 C-37.49859375 77.05058594 -37.1221875 76.03867187 -36.734375 74.99609375 C-35.87437253 72.06035805 -35.44936052 70.08600804 -35.875 67.0625 C-37.33689642 64.64379208 -37.33689642 64.64379208 -39.3125 62.4375 C-41.49194235 59.85739249 -42.79820006 58.29289983 -43.875 55.0625 C-45.73203542 54.00607602 -45.73203542 54.00607602 -47.875 53.0625 C-49.1656863 52.13107689 -50.43620437 51.17120696 -51.6875 50.1875 C-55.26875294 47.44612814 -58.91192957 45.20916315 -62.875 43.0625 C-62.875 42.4025 -62.875 41.7425 -62.875 41.0625 C-62.07578125 40.78277344 -61.2765625 40.50304687 -60.453125 40.21484375 C-43.2777073 33.94541311 -29.66105089 23.71429797 -16.390625 11.39453125 C-13.45927701 8.67711704 -10.45656721 6.05196353 -7.43359375 3.4375 C-3.60298133 0.0581126 -3.60298133 0.0581126 0 0 Z " fill="#F0F1F1" transform="translate(320.875,311.9375)"/>
<path d="M0 0 C2.79355223 1.97850606 5.10982144 4.37202652 7.5 6.8125 C8.92040545 8.20079479 10.34494956 9.58486684 11.7734375 10.96484375 C12.48338867 11.65175293 13.19333984 12.33866211 13.92480469 13.04638672 C25.89261375 24.31302297 39.87908926 33.6184631 55 40 C56.33873455 40.65575302 57.67407959 41.3187091 59 42 C57.72369757 44.55260487 56.5929136 44.85312251 54.0625 46.125 C44.68242273 51.25496277 36.02648477 57.74684414 32 68 C31.57762966 74.76848475 35.21652656 81.37411238 37.87890625 87.43359375 C39 90 39 90 40 93 C42.50447516 94.21869929 42.50447516 94.21869929 45 95 C45.35480276 103.96923346 44.02208932 112.72296986 42.84765625 121.58984375 C42.6253086 123.30173343 42.40351133 125.01369468 42.18223572 126.72572327 C41.60065448 131.21544767 41.0125031 135.70428548 40.42266846 140.19293213 C39.480619 147.37156928 38.54925041 154.55160211 37.61669731 161.73147774 C37.29222399 164.22307139 36.96533321 166.71433775 36.63795471 169.20555115 C35.64440313 176.7944558 34.69951172 184.3770913 34 192 C-15.60650184 192.92643178 -71.73958385 180.86787279 -116 159 C-116.79905762 158.6066748 -117.59811523 158.21334961 -118.42138672 157.80810547 C-128.17755501 152.9556206 -137.54929469 147.95380099 -146 141 C-147.33998047 139.90365234 -147.33998047 139.90365234 -148.70703125 138.78515625 C-154.93907006 133.4473192 -160.56160577 128.20545477 -161.9375 119.8125 C-162.72312174 105.95698938 -158.19797092 92.79161342 -149.21875 82.3046875 C-125.31798699 57.47819071 -86.26038027 43.36423551 -55.59989929 28.63557434 C-53.02873143 27.39900205 -50.46031916 26.15677874 -47.89245605 24.9133606 C-46.6210374 24.29973277 -45.34814046 23.68915938 -44.07385254 23.08151245 C-37.1522593 19.77814512 -30.66960664 16.52447462 -24.875 11.4375 C-9.04884361 -1.65141396 -9.04884361 -1.65141396 0 0 Z " fill="#F0F1F1" transform="translate(195,312)"/>
<path d="M0 0 C14.13643177 13.02294571 19.68541147 32.01645152 20.73828125 50.71606445 C20.83492356 54.61673951 20.86510801 58.51262609 20.84375 62.4140625 C20.84192719 63.11082092 20.84010437 63.80757935 20.83822632 64.52545166 C20.78274248 77.21661176 19.73256903 89.5358259 17.53125 102.0390625 C17.35432617 103.06660645 17.17740234 104.09415039 16.99511719 105.15283203 C14.39129623 120.04497899 11.0073827 134.67452711 7.22460938 149.30615234 C5.98318978 154.19926887 4.85308393 159.11843706 3.73608398 164.04125977 C2.63468549 168.83219153 2.63468549 168.83219153 1.53125 171.0390625 C-2.42875 171.0390625 -6.38875 171.0390625 -10.46875 171.0390625 C-8.66252894 146.73193872 -8.66252894 146.73193872 -7.34375 137.7265625 C-5.25956952 122.93721778 -6.76751695 112.35559661 -15.46875 100.0390625 C-21.77241624 92.41843313 -29.80240685 87.23387021 -39.46875 85.0390625 C-43.79096643 84.67644646 -48.07211558 84.70838053 -52.40625 84.7890625 C-54.1087793 84.79679687 -54.1087793 84.79679687 -55.84570312 84.8046875 C-61.3293413 84.60572599 -61.3293413 84.60572599 -66.46875 86.0390625 C-54.33203201 91.97286808 -42.13354022 97.33326829 -29.46875 102.0390625 C-29.46875 102.3690625 -29.46875 102.6990625 -29.46875 103.0390625 C-51.12736018 103.61076186 -71.66348479 103.00007638 -92.30078125 95.578125 C-98.08624659 94.59366851 -103.32234777 96.57642749 -108.73828125 98.546875 C-126.72056323 105.07992763 -149.11040079 106.29583509 -167.46875 100.0390625 C-169.16628309 99.09240565 -170.84466588 98.10683052 -172.46875 97.0390625 C-172.78340883 98.87202654 -173.09535393 100.70545649 -173.40625 102.5390625 C-173.66728516 104.07046875 -173.66728516 104.07046875 -173.93359375 105.6328125 C-174.11019531 106.756875 -174.28679687 107.8809375 -174.46875 109.0390625 C-174.65179688 110.163125 -174.83484375 111.2871875 -175.0234375 112.4453125 C-175.76078526 118.55414023 -175.65474356 124.7186127 -175.65405273 130.86279297 C-175.65621702 133.00639392 -175.67435751 135.14945995 -175.69335938 137.29296875 C-175.72702499 145.87683697 -175.12688953 154.15081472 -173.8996582 162.6484375 C-173.46875 166.0390625 -173.46875 166.0390625 -173.46875 171.0390625 C-177.42875 171.0390625 -181.38875 171.0390625 -185.46875 171.0390625 C-187.95783054 159.6925624 -190.18959233 148.33483472 -192.07324219 136.87084961 C-192.22696289 135.95182861 -192.38068359 135.03280762 -192.5390625 134.0859375 C-192.67070801 133.27995117 -192.80235352 132.47396484 -192.93798828 131.64355469 C-193.60199527 128.38521678 -194.55196426 125.23506745 -195.46875 122.0390625 C-202.51775812 91.66814773 -206.91301022 60.31990082 -190.15625 32.2265625 C-184.14420134 23.24719369 -176.4912321 18.02132872 -166.46875 14.0390625 C-165.37691406 13.86246094 -164.28507812 13.68585937 -163.16015625 13.50390625 C-162.27199219 13.35050781 -161.38382813 13.19710937 -160.46875 13.0390625 C-159.44424761 10.85768453 -159.44424761 10.85768453 -158.46875 8.0390625 C-148.97089382 -5.30185687 -134.13186137 -10.29169934 -118.58203125 -13.3359375 C-83.66028977 -19.01170587 -29.40778436 -23.35871479 0 0 Z " fill="#403B35" transform="translate(347.46875,22.9609375)"/>
<path d="M0 0 C11.87391506 6.17443583 21.253428 12.91104505 28.125 24.625 C28.48486481 28.4035805 28.401837 29.31816869 27.125 32.625 C26.79371094 33.65882813 26.46242188 34.69265625 26.12109375 35.7578125 C23.78433835 42.5290047 21.32292209 47.65809667 16.125 52.625 C15.465 52.625 14.805 52.625 14.125 52.625 C14.23331146 53.47230179 14.34162292 54.31960358 14.45321655 55.19258118 C15.4848127 63.26556212 16.51436166 71.33880112 17.54173851 79.41232014 C18.06970665 83.56074573 18.59840471 87.70907529 19.12890625 91.85717773 C23.19514864 123.66044927 23.19514864 123.66044927 24.4140625 134.98046875 C24.49175873 135.68738358 24.56945496 136.3942984 24.64950562 137.12263489 C25.07913321 141.30410159 25.18677576 145.42323009 25.125 149.625 C16.10959958 150.54626648 7.18342645 150.77744978 -1.875 150.75 C-3.78925781 150.75580078 -3.78925781 150.75580078 -5.7421875 150.76171875 C-13.50403238 150.7537823 -21.15287881 150.41410875 -28.875 149.625 C-28.99801078 143.1562205 -28.71334636 136.91476593 -27.86523438 130.50341797 C-27.7579451 129.65339706 -27.65065582 128.80337616 -27.54011536 127.92759705 C-27.18889727 125.15667124 -26.82891279 122.38696357 -26.46875 119.6171875 C-26.22158159 117.68098796 -25.97496761 115.74471757 -25.72888184 113.80838013 C-25.08338069 108.74102065 -24.43040733 103.67465186 -23.77581787 98.60845947 C-23.10770581 93.42705562 -22.44674144 88.24474053 -21.78515625 83.0625 C-20.48872353 72.91576754 -19.18438679 62.77006835 -17.875 52.625 C-18.66503418 52.34591797 -19.45506836 52.06683594 -20.26904297 51.77929688 C-25.35023663 49.52860513 -26.82485271 43.5065828 -28.875 38.625 C-32.52422149 29.04744035 -32.52422149 29.04744035 -30.875 23.625 C-25.77107171 14.39597897 -11.84416588 -1.5448912 0 0 Z " fill="#315061" transform="translate(257.875,354.375)"/>
<path d="M0 0 C4.42864971 0.5061314 6.84889946 1.84889946 10 5 C13.05707192 10.70898974 13.5115151 15.51933381 13.4375 21.9375 C13.42614014 23.31977783 13.42614014 23.31977783 13.41455078 24.72998047 C13.07410099 39.08602753 9.57438658 53.20242725 -0.4375 64 C-4.94849991 68.13590583 -9.8299916 69.79680805 -15.7265625 71.07421875 C-16.52916504 71.24912842 -17.33176758 71.42403809 -18.15869141 71.60424805 C-19.07013916 71.80014526 -19.07013916 71.80014526 -20 72 C-20.16081055 72.97235596 -20.32162109 73.94471191 -20.48730469 74.9465332 C-21.09554974 78.60688749 -21.71770061 82.2647717 -22.34375 85.92211914 C-22.61112996 87.49538667 -22.87490037 89.06927261 -23.13476562 90.64379883 C-25.09478228 102.49813034 -27.09710188 113.70542958 -34.3125 123.625 C-34.69696289 124.17438232 -35.08142578 124.72376465 -35.47753906 125.28979492 C-37.25661813 127.79791444 -39.07799576 130.07853834 -41.24609375 132.26171875 C-43.43254088 134.49931085 -44.82153422 136.08901363 -46 139 C-45.70973711 144.57081472 -44.42579815 149.62540933 -43 155 C-42.16015625 158.2421875 -42.16015625 158.2421875 -42 161 C-43.37109375 163.08984375 -43.37109375 163.08984375 -45.4375 164.9375 C-46.18773437 165.62199219 -46.93796875 166.30648437 -47.7109375 167.01171875 C-48.84402344 167.99591797 -48.84402344 167.99591797 -50 169 C-50.59039062 169.54269531 -51.18078125 170.08539063 -51.7890625 170.64453125 C-53.81904767 172.4822491 -55.8984717 174.24425032 -58 176 C-58.53012695 176.4439209 -59.06025391 176.8878418 -59.60644531 177.34521484 C-88.0171777 201 -88.0171777 201 -101 201 C-101.33 201.66 -101.66 202.32 -102 203 C-122.15217676 198.53230043 -138.612714 184.23969617 -153.2890625 170.52734375 C-156.78711869 167.26618762 -160.38315523 164.12774466 -164 161 C-163.38753293 157.70587217 -162.75791405 154.4152553 -162.125 151.125 C-161.95097656 150.18785156 -161.77695313 149.25070312 -161.59765625 148.28515625 C-161.33662109 146.94130859 -161.33662109 146.94130859 -161.0703125 145.5703125 C-160.83465576 144.32918701 -160.83465576 144.32918701 -160.59423828 143.06298828 C-160 141 -160 141 -158 139 C-156.49403892 140.45217676 -154.99537896 141.91192861 -153.5 143.375 C-152.24703125 144.59316406 -152.24703125 144.59316406 -150.96875 145.8359375 C-149 148 -149 148 -149 150 C-148.42894531 150.24621094 -147.85789063 150.49242187 -147.26953125 150.74609375 C-144.63007863 152.20437996 -142.84176687 153.95288115 -140.6875 156.0625 C-136.50944074 159.89393508 -132.21519306 162.97015931 -127.375 165.875 C-126.76615967 166.24375244 -126.15731934 166.61250488 -125.5300293 166.99243164 C-115.57832532 172.80371388 -105.49291253 175.1026204 -94 173 C-89.57437398 171.01790683 -86.44449767 168.37640216 -83 165 C-82.24847656 164.32582031 -81.49695313 163.65164063 -80.72265625 162.95703125 C-74.01265955 156.67156861 -68.49759502 149.33486497 -63 142 C-62.20190918 140.93652344 -62.20190918 140.93652344 -61.38769531 139.8515625 C-57.49511645 134.63399647 -53.70474957 129.3525228 -50 124 C-49.56913086 123.3807666 -49.13826172 122.7615332 -48.69433594 122.12353516 C-34.76796907 101.73175914 -28.8221439 75.85727665 -21.18579102 52.60498047 C-20.13177715 49.40062206 -19.06922208 46.19931054 -18 43 C-19.32 42.67 -20.64 42.34 -22 42 C-18.04 42 -14.08 42 -10 42 C-9.76925781 40.87207031 -9.53851563 39.74414062 -9.30078125 38.58203125 C-7.42636489 29.50431955 -5.45018845 20.45712064 -3.3125 11.4375 C-3.09827393 10.52782471 -2.88404785 9.61814941 -2.66333008 8.6809082 C-2.46118896 7.83616943 -2.25904785 6.99143066 -2.05078125 6.12109375 C-1.78261597 4.99852173 -1.78261597 4.99852173 -1.5090332 3.85327148 C-1 2 -1 2 0 0 Z " fill="#DFAC7E" transform="translate(359,152)"/>
<path d="M0 0 C2.80183298 1.96517452 5.11071197 4.37293578 7.5 6.8125 C8.92040545 8.20079479 10.34494956 9.58486684 11.7734375 10.96484375 C12.48338867 11.65175293 13.19333984 12.33866211 13.92480469 13.04638672 C25.89261375 24.31302297 39.87908926 33.6184631 55 40 C56.33873455 40.65575302 57.67407959 41.3187091 59 42 C57.72369757 44.55260487 56.5929136 44.85312251 54.0625 46.125 C44.45847445 51.37744005 36.59587709 57.81906698 32 68 C32.00386719 69.30904297 32.00386719 69.30904297 32.0078125 70.64453125 C32 73 32 73 30.57421875 74.51953125 C29.79498047 75.25236328 29.79498047 75.25236328 29 76 C28.21643098 78.26393971 28.21643098 78.26393971 27.8125 80.6875 C27.57466797 81.89986328 27.57466797 81.89986328 27.33203125 83.13671875 C27.22246094 83.75160156 27.11289063 84.36648438 27 85 C22.65380536 82.82690268 19.66411491 79.79902886 16.35546875 76.328125 C14.46446714 74.45907532 12.55663918 72.74424666 10.5390625 71.01953125 C5.09480886 66.29170983 -0.00242474 61.22020789 -5.10766602 56.13256836 C-6.79189926 54.45798274 -8.48654177 52.79443525 -10.18164062 51.13085938 C-31.74412999 29.77736749 -31.74412999 29.77736749 -33.453125 20.5546875 C-32.77411054 16.72645078 -30.74018828 15.52481777 -27.75 13.125 C-27.21511963 12.69517822 -26.68023926 12.26535645 -26.12915039 11.82250977 C-9.28509944 -1.38171123 -9.28509944 -1.38171123 0 0 Z " fill="#D0D2D3" transform="translate(195,312)"/>
<path d="M0 0 C9.14217558 1.28721832 16.80580194 7.54333287 23.9375 13.0625 C24.95457031 13.84625 25.97164063 14.63 27.01953125 15.4375 C29.125 18.0625 29.125 18.0625 29.15625 21.5546875 C24.56801026 37.16165449 6.67948835 50.5946705 -4.625 61.9375 C-5.16824921 62.48351868 -5.71149841 63.02953735 -6.27120972 63.59210205 C-11.80342208 69.14485545 -17.33790748 74.64884725 -23.32373047 79.71948242 C-24.69731091 80.90866499 -25.98209706 82.19873119 -27.25 83.5 C-28.875 85.0625 -28.875 85.0625 -30.875 85.0625 C-31.1225 83.78375 -31.37 82.505 -31.625 81.1875 C-33.46877336 73.03136368 -36.26274343 66.23280607 -41.60546875 59.75390625 C-42.875 58.0625 -42.875 58.0625 -43.875 55.0625 C-45.73203542 54.00607602 -45.73203542 54.00607602 -47.875 53.0625 C-49.1656863 52.13107689 -50.43620437 51.17120696 -51.6875 50.1875 C-55.26875294 47.44612814 -58.91192957 45.20916315 -62.875 43.0625 C-62.875 42.4025 -62.875 41.7425 -62.875 41.0625 C-62.07578125 40.78277344 -61.2765625 40.50304687 -60.453125 40.21484375 C-43.2777073 33.94541311 -29.66105089 23.71429797 -16.390625 11.39453125 C-13.45927701 8.67711704 -10.45656721 6.05196353 -7.43359375 3.4375 C-3.60298133 0.0581126 -3.60298133 0.0581126 0 0 Z " fill="#D0D2D3" transform="translate(320.875,311.9375)"/>
<path d="M0 0 C4.42864971 0.5061314 6.84889946 1.84889946 10 5 C13.05707192 10.70898974 13.5115151 15.51933381 13.4375 21.9375 C13.42992676 22.85901855 13.42235352 23.78053711 13.41455078 24.72998047 C13.07410099 39.08602753 9.57438658 53.20242725 -0.4375 64 C-4.94849991 68.13590583 -9.8299916 69.79680805 -15.7265625 71.07421875 C-16.52916504 71.24912842 -17.33176758 71.42403809 -18.15869141 71.60424805 C-19.07013916 71.80014526 -19.07013916 71.80014526 -20 72 C-20.16081055 72.97235596 -20.32162109 73.94471191 -20.48730469 74.9465332 C-21.09554974 78.60688749 -21.71770061 82.2647717 -22.34375 85.92211914 C-22.61112996 87.49538667 -22.87490037 89.06927261 -23.13476562 90.64379883 C-25.09478228 102.49813034 -27.09710188 113.70542958 -34.3125 123.625 C-34.70276367 124.16640625 -35.09302734 124.7078125 -35.49511719 125.265625 C-36.64837702 126.85476998 -37.82380262 128.42775646 -39 130 C-39.64839844 130.87398437 -40.29679687 131.74796875 -40.96484375 132.6484375 C-44.07461137 136.74489288 -47.33426163 140.38365032 -51 144 C-51.804375 144.83917969 -52.60875 145.67835938 -53.4375 146.54296875 C-62.40242987 155.7948857 -71.82436288 163.53998269 -83.1875 169.6875 C-83.83557617 170.03901123 -84.48365234 170.39052246 -85.15136719 170.75268555 C-86.73345811 171.57139437 -88.36397483 172.29521814 -90 173 C-90.66 172.67 -91.32 172.34 -92 172 C-91.3709375 171.5153125 -90.741875 171.030625 -90.09375 170.53125 C-73.65768783 157.65963504 -61.80275947 141.05231028 -50 124 C-49.56913086 123.3807666 -49.13826172 122.7615332 -48.69433594 122.12353516 C-34.76796907 101.73175914 -28.8221439 75.85727665 -21.18579102 52.60498047 C-20.13177715 49.40062206 -19.06922208 46.19931054 -18 43 C-19.98 42.505 -19.98 42.505 -22 42 C-18.04 42 -14.08 42 -10 42 C-9.76925781 40.87207031 -9.53851563 39.74414062 -9.30078125 38.58203125 C-7.42636489 29.50431955 -5.45018845 20.45712064 -3.3125 11.4375 C-3.09827393 10.52782471 -2.88404785 9.61814941 -2.66333008 8.6809082 C-2.46118896 7.83616943 -2.25904785 6.99143066 -2.05078125 6.12109375 C-1.87200439 5.3727124 -1.69322754 4.62433105 -1.5090332 3.85327148 C-1 2 -1 2 0 0 Z " fill="#DEAC80" transform="translate(359,152)"/>
<path d="M0 0 C11.87391506 6.17443583 21.253428 12.91104505 28.125 24.625 C28.48486481 28.4035805 28.401837 29.31816869 27.125 32.625 C26.79371094 33.65882813 26.46242188 34.69265625 26.12109375 35.7578125 C23.78046689 42.54022301 21.32632686 47.64981778 16.125 52.625 C11.05061817 54.31646061 5.72446314 53.85026129 0.41088867 53.86523438 C-1.66984373 53.87491783 -3.74957832 53.90594366 -5.83007812 53.9375 C-7.16405667 53.94403307 -8.49804224 53.94928235 -9.83203125 53.953125 C-11.03835205 53.9624707 -12.24467285 53.97181641 -13.48754883 53.98144531 C-17.26636098 53.58381895 -19.64957422 52.60464044 -22.875 50.625 C-27.31239972 44.27342785 -32.38375983 34.14241263 -31.6484375 26.16796875 C-28.09361644 14.48014798 -16.5718698 6.72593092 -6.5 0.9375 C-2.875 -0.375 -2.875 -0.375 0 0 Z " fill="#234052" transform="translate(257.875,354.375)"/>
<path d="M0 0 C2 1 2 1 2.61010742 2.70239258 C3.14527849 5.07070261 3.67812387 7.43847625 4.1875 9.8125 C4.47270508 11.04323242 4.47270508 11.04323242 4.76367188 12.29882812 C4.93833984 13.09353516 5.11300781 13.88824219 5.29296875 14.70703125 C5.4530542 15.4338208 5.61313965 16.16061035 5.77807617 16.90942383 C6.1125488 20.06023693 5.64015119 22.20398592 3.65234375 24.67578125 C1.77918526 26.46360222 -0.09408505 28.24700582 -2 30 C-2.56589844 30.52335937 -3.13179688 31.04671875 -3.71484375 31.5859375 C-5.77533994 33.4345227 -7.88092591 35.21865334 -10 37 C-10.55816406 37.47727539 -11.11632812 37.95455078 -11.69140625 38.44628906 C-13.61510993 40.08384684 -15.55567282 41.69950498 -17.5 43.3125 C-18.11681641 43.84061279 -18.73363281 44.36872559 -19.36914062 44.9128418 C-27.25125399 51.36023575 -36.05067914 51.91093663 -46 51 C-61.14976318 47.79813516 -78.43382755 35.84925868 -87 23 C-82.0221289 24.80412406 -77.61199536 27.47020297 -73.08398438 30.16601562 C-64.25826751 35.32786733 -52.98201143 35.45188847 -43.05078125 33.38671875 C-40.54114848 32.44508794 -38.32604877 31.33294678 -36 30 C-34.9996875 29.45214844 -33.999375 28.90429688 -32.96875 28.33984375 C-20.88438107 21.333787 -7.92729729 11.65779013 0 0 Z " fill="#CC9672" transform="translate(311,291)"/>
<path d="M0 0 C0.99 0.66 1.98 1.32 3 2 C3 2.66 3 3.32 3 4 C3.58330078 4.26248535 4.16660156 4.5249707 4.76757812 4.79541016 C7.11070119 6.05973312 8.77237819 7.46428389 10.71875 9.2734375 C14.73518417 12.85821615 18.93169542 15.79069001 23.5 18.625 C24.31331787 19.13224609 25.12663574 19.63949219 25.96459961 20.16210938 C44.5867524 31.61758144 64.06174199 41.10107204 84 50 C84 50.33 84 50.66 84 51 C58.97034356 49.82213381 10.5571542 35.5571542 -7 18 C-7.55690057 11.53995339 -6.66398772 8.33895353 -3 3 C-1.25 1.0625 -1.25 1.0625 0 0 Z " fill="#534D46" transform="translate(187,62)"/>
</svg>
