<?xml version="1.0" encoding="utf-8"?>
<!-- Generator: Adobe Illustrator 27.5.0, SVG Export Plug-In . SVG Version: 6.00 Build 0)  -->
<svg version="1.1" xmlns="http://www.w3.org/2000/svg" xmlns:xlink="http://www.w3.org/1999/xlink" x="0px" y="0px"
	 viewBox="0 0 500 500" style="enable-background:new 0 0 500 500;" xml:space="preserve">
<g id="BACKGROUND">
	<rect style="fill:#FFFFFF;" width="500" height="500"/>
</g>
<g id="OBJECTS">
	<g>
		<defs>
			<rect id="SVGID_1_" width="500" height="500"/>
		</defs>
		<clipPath id="SVGID_00000085950078213358955810000000050227777406064006_">
			<use xlink:href="#SVGID_1_"  style="overflow:visible;"/>
		</clipPath>
		<path style="opacity:0.4196;clip-path:url(#SVGID_00000085950078213358955810000000050227777406064006_);fill:#E4F0F6;" d="
			M451.509,317.334c7.848-53.707-26.493-110.58-77.677-128.642c-22.476-7.931-47.995-9.406-66.876-23.952
			c-24.935-19.209-30.065-54.471-47.927-80.388c-17.467-25.342-48.162-40.991-78.931-40.241
			c-20.207,0.493-42.08,9.535-49.941,28.157c-7.83,18.548,0.419,39.598,0.569,59.73c0.186,24.829-12.094,47.974-25.754,68.708
			s-29.25,40.738-37.168,64.271c-14.134,42.006-0.786,90.147,27.432,124.324c28.218,34.176,69.445,55.639,112.147,67.504
			c23.8,6.613,48.739,10.48,73.238,7.324C373.621,452.15,443.661,371.041,451.509,317.334z"/>
		<g style="clip-path:url(#SVGID_00000085950078213358955810000000050227777406064006_);">
			<path style="opacity:0.651;fill:#BEE9E9;" d="M73.058,107.346c27.555,0.86,87.972,2.465,122.389,1.24
				c9.186-0.327,15.614-9.465,12.695-18.283c-0.961-2.904-2.486-5.609-4.543-7.867c-6.168-6.771-16.68-9.047-25.047-5.424
				c-0.767-11.901-10.593-22.562-22.275-24.167c-11.682-1.604-23.962,6.021-27.837,17.285c-8.423-5.467-19.312-6.856-28.813-3.674
				c-9.5,3.182-17.42,10.87-20.954,20.342c-4.355-0.813-8.456,2.291-11.801,6.285C62.234,98.621,65.888,107.122,73.058,107.346z"/>
			<path style="opacity:0.651;fill:#BEE9E9;" d="M67.397,412.439c49.324-0.094,97.572,3.439,146.945,3.18
				c6.147-0.032,11.25-4.803,11.889-10.988c0.487-4.713,0.614-9.435-0.087-14.11c-1.242-8.286-5.54-16.551-12.904-20.39
				c-7.364-3.839-17.857-1.725-21.628,5.737c-1.198-13.161-12.447-24.659-25.444-26.006c-12.996-1.347-26.317,7.604-30.128,20.245
				c-6.626-8.517-18.988-11.896-28.953-7.915c-9.965,3.981-16.708,14.993-15.795,25.792c-7.238-3.265-16.158-2.35-22.6,2.32
				c-3.784,2.743-6.036,4.716-8.562,8.947C56.679,405.036,60.716,412.452,67.397,412.439z"/>
			<path style="opacity:0.651;fill:#BEE9E9;" d="M300.909,261.624l145.045,7.651c3.485,0.184,6.765-1.901,7.937-5.226
				c3.121-8.858,2.793-19.071-2.728-26.492c-6.715-9.025-22.035-10.923-28.938-2.043c5.781-8.525,3.065-21.311-4.945-27.731
				c-8.01-6.42-19.924-6.611-28.889-1.648c-8.965,4.963-15.017,14.398-17.356,24.462c-4.73-8.848-15.032-14.295-24.913-13.172
				c-9.882,1.122-18.732,8.745-21.405,18.434c-10.368-4.674-23.667,3.855-27.878,20.068
				C296.116,258.707,298.071,261.475,300.909,261.624z"/>
		</g>
		<g style="clip-path:url(#SVGID_00000085950078213358955810000000050227777406064006_);">
			<path style="fill:#001741;" d="M333.269,440.556c4.696,40.164,9.392,80.328,13.421,121.849
				c-26.177,18.779-63.579,20.342-93.034,2.966c-27.353,16.299-62.086,19.603-91.267,9.068
				c-1.514-36.761,5.656-77.461,12.214-113.663c0.706-3.897,0.88-10.624,0.88-10.624s55.342-0.296,79.929,0.446
				C274.298,451.168,324.687,443.087,333.269,440.556z"/>
			<g>
				<path style="fill:#FFA3A6;" d="M230.434,170.936c1.098,9.532-7.959,23.413-15.582,30.537c3.368,8.954,12.544,39,35.237,39
					c25.978,0,37.361-25.819,40.291-41.378c-7.584-5.244-11.417-15.899-9.098-25.291
					C266.036,179.766,248.872,179.799,230.434,170.936z"/>
				<g>
					<g>
						<g>
							<path style="fill:#FFA3A6;" d="M270.59,93.302c6.162,0.11,11.86,3.425,15.901,8.027c4.041,4.602,6.59,10.4,8.472,16.328
								c3.944,12.421,5.166,26.065,1.888,38.975c-3.277,12.91-11.359,24.976-22.831,31.536c-11.473,6.56-26.316,6.929-36.815-0.362
								c-11.595-8.053-16.138-23.416-16.796-37.963c-0.655-14.493,2.066-29.848,10.791-41.682
								C239.925,96.325,254.847,93.021,270.59,93.302z"/>
							<g>
								<path style="fill:#FFA3A6;" d="M224.79,136.193c-4.592-1.706-10.328,0.519-13.028,4.863
									c-2.7,4.344-2.252,10.321,0.867,14.123c3.119,3.802,8.598,5.282,13.393,3.836
									C224.539,152.113,223.744,145.029,224.79,136.193z"/>
								<g>
									<g>
										<path d="M218.387,139.764c-1.303,1.066-2.29,2.266-3.001,3.651c-0.719,1.381-1.133,2.875-1.248,4.556
											c-0.688-1.574-0.432-3.481,0.361-5.016C215.299,141.422,216.707,140.118,218.387,139.764z"/>
									</g>
									<g>
										<path d="M215.522,142.271c0.571,1.523,0.841,3.054,1.385,4.445c0.255,0.697,0.588,1.358,0.99,1.98
											c0.41,0.619,0.901,1.186,1.531,1.7c-0.81-0.133-1.559-0.605-2.137-1.208c-0.59-0.602-1.016-1.344-1.318-2.119
											C215.401,145.5,215.31,143.867,215.522,142.271z"/>
									</g>
								</g>
							</g>
							<g>
								<path style="fill:#FFA3A6;" d="M292.967,136.501c4.551-2.169,10.328-0.526,13.116,3.541
									c2.788,4.067,2.466,10.082-0.57,14.196c-3.036,4.114-8.478,6.146-13.298,5.186
									C293.552,152.378,294.198,145.221,292.967,136.501z"/>
								<g>
									<g>
										<path d="M299.221,140.398c0.828,0.085,1.626,0.445,2.305,0.955c0.687,0.507,1.246,1.179,1.672,1.921
											c0.829,1.484,1.086,3.349,0.441,4.893c-0.158-1.638-0.572-3.09-1.313-4.405
											C301.594,142.444,300.578,141.33,299.221,140.398z"/>
									</g>
									<g>
										<path d="M302.136,142.613c0.244,1.631,0.181,3.307-0.364,4.923c-0.289,0.8-0.698,1.567-1.27,2.208
											c-0.56,0.641-1.285,1.169-2.097,1.38c0.602-0.575,1.074-1.187,1.469-1.843c0.387-0.659,0.71-1.351,0.954-2.075
											C301.353,145.762,301.596,144.189,302.136,142.613z"/>
									</g>
								</g>
							</g>
						</g>
						<g>
							<g>
								<path d="M280.907,183.242c-1.23,2.118-3.235,3.667-5.299,4.948c-2.105,1.252-4.386,2.181-6.716,2.921
									c-4.678,1.45-9.619,1.981-14.512,1.745c-4.888-0.305-9.756-1.495-14.135-3.707c-2.182-1.113-4.253-2.451-6.104-4.047
									c-1.837-1.609-3.505-3.401-4.921-5.371c3.161,3.669,6.995,6.738,11.363,8.726c4.341,2.016,9.072,3.18,13.857,3.402
									c4.779,0.312,9.612-0.219,14.237-1.483c2.31-0.637,4.579-1.47,6.692-2.61C277.479,186.643,279.492,185.226,280.907,183.242z
									"/>
							</g>
							<g>
								<g>
									<path d="M256.968,130.221c-0.047,1.317-0.159,2.63-0.061,3.924c0.063,1.287,0.293,2.573,0.86,3.678
										c0.577,1.089,1.415,2.079,2.497,2.552c0.547,0.258,1.063,0.317,1.76,0.37c0.663,0.066,1.345,0.15,2.029,0.345
										c0.677,0.204,1.367,0.543,1.904,1.089c0.541,0.541,0.875,1.26,1.009,1.966c0.146,0.685,0.147,1.477-0.041,2.15
										c-0.165,0.685-0.444,1.325-0.791,1.92c-0.689,1.195-1.695,2.193-2.876,2.865c-1.192,0.655-2.53,0.977-3.848,0.983
										c2.607-0.388,4.957-1.939,6.047-4.213c0.524-1.133,0.917-2.354,0.585-3.501c-0.229-1.184-1.095-1.989-2.271-2.301
										c-0.579-0.173-1.206-0.261-1.848-0.332c-0.607-0.051-1.424-0.14-2.06-0.486c-1.316-0.651-2.249-1.816-2.79-3.083
										c-0.546-1.287-0.69-2.666-0.654-3.997C256.487,132.813,256.698,131.51,256.968,130.221z"/>
								</g>
								<g>
									<path d="M266.994,160.909c-0.029,0.978-0.482,1.936-1.145,2.699c-0.691,0.744-1.578,1.289-2.515,1.657
										c-1.886,0.742-3.965,0.841-5.939,0.499c-1.971-0.365-3.886-1.215-5.37-2.592c-1.499-1.362-2.422-3.268-2.664-5.191
										c0.63,1.84,1.722,3.444,3.174,4.6c1.459,1.145,3.215,1.876,5.038,2.199c1.819,0.335,3.732,0.285,5.502-0.248
										c0.878-0.277,1.727-0.677,2.435-1.273C266.223,162.67,266.74,161.85,266.994,160.909z"/>
								</g>
								<path d="M281.958,135.966c-0.024-1.481-0.857-2.643-1.861-2.594c-1.004,0.048-1.799,1.288-1.776,2.769
									c0.024,1.481,0.857,2.643,1.861,2.594C281.187,138.687,281.982,137.447,281.958,135.966z"/>
								<path d="M241.765,134.962c-0.038-1.481-0.882-2.634-1.886-2.576c-1.004,0.058-1.787,1.305-1.749,2.786
									c0.038,1.481,0.882,2.634,1.886,2.576C241.02,137.69,241.803,136.443,241.765,134.962z"/>
							</g>
							<g>
								<path style="fill:#001741;" d="M227.764,128.011c3.239-3.86,7.286-6.446,11.501-7.35c1.624-0.348,3.362-0.427,4.792,0.597
									c0.319,0.228,0.646,0.571,0.677,1.063c0.028,0.44-0.204,0.861-0.491,1.085c-0.287,0.224-0.621,0.291-0.946,0.352
									C237.739,124.799,231.893,125.323,227.764,128.011z"/>
								<path style="fill:#001741;" d="M288.214,128.91c-2.366-4.904-6.769-7.929-11.873-8.157
									c-0.531-0.024-1.092-0.013-1.636,0.286c-0.544,0.299-1.063,0.965-1.102,1.63c-0.058,1.004,0.877,1.308,1.654,1.432
									C280.116,124.874,284.608,126.841,288.214,128.91z"/>
							</g>
							<g>
								<g>
									<path style="opacity:0.6902;fill:#F59396;" d="M246.477,148.311c0.177-3.697-3.429-6.752-8.053-6.824
										c-4.624-0.072-8.516,2.867-8.693,6.564c-0.177,3.697,3.429,6.752,8.053,6.824
										C242.408,154.947,246.3,152.008,246.477,148.311z"/>
									<path style="opacity:0.6902;fill:#F59396;" d="M291.514,148.087c0.177-3.697-3.429-6.752-8.053-6.824
										c-4.624-0.072-8.516,2.867-8.693,6.564c-0.177,3.697,3.429,6.752,8.053,6.824S291.338,151.784,291.514,148.087z"/>
								</g>
							</g>
						</g>
					</g>
					<g>
						<defs>
							<path id="SVGID_00000076596620687279595090000002220230318871486857_" d="M261.028,92.155
								c6.072-1.058,12.294,1.12,17.133,4.874c4.839,3.754,8.438,8.966,11.407,14.43c6.222,11.451,10.003,24.617,9.227,37.914
								c-0.776,13.297-6.43,26.673-16.454,35.285c-10.025,8.612-24.531,11.782-36.219,6.608c-12.909-5.714-20.276-19.94-23.674-34.1
								c-3.385-14.107-3.617-29.7,2.712-42.971S245.516,94.857,261.028,92.155z"/>
						</defs>
						<clipPath id="SVGID_00000008856666458284812480000003672751112946279351_">
							<use xlink:href="#SVGID_00000076596620687279595090000002220230318871486857_"  style="overflow:visible;"/>
						</clipPath>
					</g>
				</g>
				<g>
					<path style="fill:#001741;" d="M294.606,106.414c2.098-5.961-0.164-12.786-4.891-17.337c-4.727-4.55-11.599-6.958-18.467-7.4
						c-8.132-0.524-16.172,1.499-24.02,3.502c-5.497,1.403-10.994,2.806-16.491,4.209c-2.336,0.596-4.969,1.422-5.893,3.462
						c-0.806,1.779,0.027,3.796,0.941,5.531c1.68,3.187,3.8,6.372,7.134,8.189c3.903,2.127,8.748,2.014,13.295,1.837
						C262.183,107.784,278.149,107.161,294.606,106.414z"/>
					<path style="fill:#001741;" d="M293.384,103.527c4.752,5.924,5.323,10.752,5.692,18.824c0.273,5.962,1.487,15.05-0.794,20.402
						c-0.713,1.674-3.178,1.305-3.342-0.508c-0.81-8.94-2.111-17.875-5.846-25.683c-1.241-2.595-2.778-5.172-2.936-8.132
						C286,105.47,288.008,102.114,293.384,103.527z"/>
					<path style="fill:#001741;" d="M236.523,107.902c-1.868,0.089-4.379,4.152-5.499,5.745c-1.12,1.594-1.753,3.507-2.31,5.407
						c-2.051,6.998-3.285,14.267-3.662,21.587c-0.044,0.863-0.088,1.767-0.507,2.508c-0.419,0.741-1.349,1.233-2.067,0.827
						c-0.538-0.304-0.774-0.978-0.952-1.597c-2.843-9.868-2.266-20.464-1.08-30.707c0.258-2.231,0.555-4.498,1.448-6.535
						c0.893-2.037,2.485-3.844,4.535-4.388c2.585-0.687,4.881-1.518,6.569,0.676C234.688,103.619,236.798,105.911,236.523,107.902z"
						/>
				</g>
			</g>
			<g>
				<path style="fill:#FFA3A6;" d="M179.598,262.602c-20.234,23.633-42.399,45.612-67.739,64.802
					c2.017,3.649,2.949,22.096,12.961,33.014c-3.609,5.142-3.033,15.49-8.534,19.84c-18.553-15.373-24.66-22.048-34.536-31.837
					c-3.749-3.716-7.261-9.05-8.486-16.272c-1.192-7.024,3.909-13.426,8.573-18.812c17.806-20.566,35.612-41.132,53.418-61.697
					c11.195-12.93,22.71-26.125,37.652-34.447C181.265,230.766,189.812,250.672,179.598,262.602z"/>
				<g>
					<path d="M107.305,315.058c1.636,1.892,2.82,4.131,3.714,6.457c0.863,2.337,1.444,4.816,1.396,7.319
						c-0.738-2.382-1.463-4.689-2.332-6.967C109.238,319.581,108.265,317.359,107.305,315.058z"/>
				</g>
			</g>
			<g>
				<path style="fill:#FFA3A6;" d="M341.873,224.129c20.014,17.384,30.952,42.706,41.256,67.131
					c8.696,20.613,17.407,41.272,24.554,63.881c1.534,4.854,0.601,10.187-2.555,14.181c-16.689,21.118-39.85,36.999-64.944,44.29
					c-4.651-6.115-8.217-13.051-9.652-20.814c13.608-14.114,27.891-30.074,38.117-39.811c2.267-2.159,2.689-6.072,0.981-8.696
					c-14.03-21.554-28.875-49.518-43.454-71.55c0.548-8.513,1.105-17.08,3.168-25.357
					C331.408,239.106,335.085,231.048,341.873,224.129z"/>
				<g>
					<path d="M370.694,348.227c1.03-2.428,2.581-4.607,4.371-6.538c1.811-1.913,3.886-3.601,6.244-4.783
						c-1.895,1.826-3.763,3.579-5.515,5.466C374.023,344.24,372.392,346.217,370.694,348.227z"/>
				</g>
			</g>
			<g>
				<path style="fill:#6780D3;" d="M217.755,198.411c6.758,6.648,18.378,11.484,31.692,12.314
					c15.763,0.982,27.742-4.348,39.014-13.145c16.765,7.883,35.898,17.763,54.079,27.139c-9.896,22.933-11.632,47.993-11.681,72.969
					c-0.108,54.758,1.612,109.519,4.722,166.527c-53.331-8.478-109.389,13.039-160.977-3.441
					c7.16-81.07,3.944-160.168-3.897-242.304C185.225,210.471,202.963,201.618,217.755,198.411z"/>
				<g>
					<path d="M175.238,453.245c6.401,1.944,13.01,3.097,19.646,3.82c6.639,0.739,13.32,1.052,19.999,1.132
						c13.364,0.145,26.721-0.589,40.06-1.412c13.345-0.775,26.688-1.704,40.056-2.131c13.355-0.416,26.792-0.396,40.046,1.482
						c-6.631-0.864-13.313-1.238-19.992-1.36c-6.68-0.141-13.364-0.03-20.042,0.21c-13.358,0.482-26.692,1.469-40.037,2.297
						c-13.347,0.768-26.716,1.446-40.095,1.245C201.537,458.292,188.03,457.264,175.238,453.245z"/>
				</g>
				<g>
					<path d="M207.861,201.547c2.706,3.157,5.877,5.884,9.279,8.249c3.398,2.377,7.039,4.397,10.823,6.084
						c7.567,3.343,15.738,5.492,24.01,5.702c8.272,0.239,16.531-1.84,23.958-5.48c3.72-1.822,7.245-4.042,10.508-6.598
						c3.277-2.538,6.295-5.422,8.952-8.617c-2.594,3.246-5.561,6.196-8.8,8.809c-3.255,2.594-6.785,4.845-10.513,6.704
						c-7.443,3.71-15.751,5.87-24.117,5.681c-8.356-0.269-16.552-2.489-24.134-5.898c-3.789-1.722-7.437-3.77-10.827-6.188
						C213.631,207.553,210.505,204.756,207.861,201.547z"/>
				</g>
			</g>
			<g>
				<g>
					<path style="fill:#FFA3A6;" d="M252.139,311.211c10.67-20.295,8.86-46.542-4.493-65.181
						c-11.58-16.164-31.371-25.948-51.558-25.107c-5.873,0.245-10.968,4.175-12.807,9.757c-5.021,15.241-4.496,32.311,1.709,47.13
						c7.405,17.685,22.771,31.856,40.997,37.808C232.966,317.898,245.701,323.457,252.139,311.211z"/>
					<g>
						<g>
							<path style="fill:#E4F0F6;" d="M235.63,233.047c0.773,0.176,1.386,0.734,1.799,1.394c0.409,0.668,0.613,1.458,0.606,2.241
								c-0.005,0.784-0.226,1.57-0.648,2.23c-0.425,0.652-1.051,1.198-1.829,1.357c0.186-0.761,0.303-1.356,0.368-1.94
								c0.071-0.576,0.101-1.121,0.109-1.667c0.005-0.547-0.014-1.092-0.074-1.67C235.91,234.407,235.803,233.81,235.63,233.047z"/>
						</g>
						<g>
							<path style="fill:#E4F0F6;" d="M241.468,237.042c0.563,0.538,0.866,1.221,1.041,1.924c0.164,0.706,0.174,1.445,0.043,2.156
								c-0.13,0.712-0.405,1.397-0.812,1.998c-0.416,0.594-0.945,1.121-1.666,1.42c0.029-0.775,0.128-1.405,0.213-2.021
								c0.093-0.61,0.191-1.187,0.3-1.762c0.108-0.576,0.224-1.15,0.357-1.753C241.087,238.398,241.22,237.775,241.468,237.042z"/>
						</g>
						<g>
							<path style="fill:#E4F0F6;" d="M245.537,241.21c0.703,0.371,1.166,1.039,1.439,1.761c0.264,0.729,0.323,1.531,0.188,2.296
								c-0.133,0.766-0.463,1.499-0.962,2.094c-0.503,0.586-1.169,1.055-1.957,1.16c0.245-0.748,0.436-1.338,0.583-1.923
								c0.152-0.577,0.268-1.125,0.368-1.678c0.098-0.553,0.177-1.109,0.232-1.703C245.492,242.616,245.513,241.995,245.537,241.21z
								"/>
						</g>
						<g>
							<path style="fill:#E4F0F6;" d="M249.636,246.428c0.53,0.518,0.768,1.21,0.843,1.906c0.064,0.699-0.059,1.412-0.339,2.056
								c-0.278,0.644-0.716,1.221-1.271,1.651c-0.559,0.421-1.23,0.718-1.971,0.681l1.408-3.13l0.616-1.446L249.636,246.428z"/>
						</g>
						<g>
							<path style="fill:#E4F0F6;" d="M252.828,251.285c0.561,0.58,0.832,1.332,0.943,2.095c0.099,0.766,0.012,1.555-0.237,2.287
								c-0.248,0.733-0.661,1.411-1.208,1.956c-0.553,0.537-1.228,0.965-2.028,1.08c0.26-0.758,0.51-1.362,0.726-1.962l0.618-1.721
								c0.194-0.567,0.38-1.135,0.565-1.739C252.403,252.675,252.572,252.044,252.828,251.285z"/>
						</g>
						<g>
							<path style="fill:#E4F0F6;" d="M255.685,257.133c0.474,0.611,0.651,1.347,0.678,2.076c0.015,0.731-0.147,1.463-0.454,2.125
								c-0.306,0.663-0.762,1.259-1.331,1.718c-0.574,0.45-1.252,0.788-2.027,0.817c0.287-0.713,0.564-1.268,0.813-1.817
								l0.732-1.561l0.726-1.565C255.082,258.381,255.326,257.812,255.685,257.133z"/>
						</g>
						<g>
							<path style="fill:#E4F0F6;" d="M257.236,264.2c0.478,0.489,0.629,1.167,0.592,1.813c-0.046,0.649-0.299,1.278-0.696,1.792
								c-0.395,0.515-0.941,0.917-1.558,1.125c-0.616,0.199-1.312,0.222-1.905-0.121c0.464-0.491,0.787-0.855,1.079-1.217
								l0.803-1.011l0.78-1.03C256.609,265.178,256.879,264.773,257.236,264.2z"/>
						</g>
					</g>
					<g>
						<defs>
							<path id="SVGID_00000095304206493073140750000013391361671402295208_" d="M252.139,311.211
								c10.67-20.295,8.86-46.542-4.493-65.181c-11.58-16.164-31.371-25.948-51.558-25.107c-5.873,0.245-10.968,4.175-12.807,9.757
								c-5.021,15.241-4.496,32.311,1.709,47.13c7.405,17.685,22.771,31.856,40.997,37.808
								C232.966,317.898,245.701,323.457,252.139,311.211z"/>
						</defs>
						<clipPath id="SVGID_00000120551673342042587650000017080573145120887458_">
							<use xlink:href="#SVGID_00000095304206493073140750000013391361671402295208_"  style="overflow:visible;"/>
						</clipPath>
						<g style="clip-path:url(#SVGID_00000120551673342042587650000017080573145120887458_);">
							<path d="M189.237,219.956c3.428,8.673,7.084,17.253,11.231,25.589c4.148,8.332,8.729,16.455,14.008,24.112
								c5.211,7.699,11.122,14.924,17.683,21.513c3.276,3.299,6.732,6.421,10.362,9.333c3.61,2.938,7.417,5.633,11.361,8.122
								c-4.061-2.296-7.937-4.918-11.663-7.736c-3.707-2.845-7.239-5.919-10.6-9.171c-6.714-6.517-12.662-13.798-17.967-21.497
								c-5.24-7.748-9.857-15.907-13.872-24.34C195.762,237.446,192.278,228.773,189.237,219.956z"/>
						</g>
					</g>
				</g>
				<g>
					
						<ellipse transform="matrix(0.9946 -0.1037 0.1037 0.9946 -33.6006 18.3359)" style="fill:#FFD272;" cx="159.571" cy="332.369" rx="47.169" ry="46.269"/>
					<g>
						<defs>
							
								<ellipse id="SVGID_00000132792678127828993680000004941589595367777721_" transform="matrix(0.9946 -0.1037 0.1037 0.9946 -33.6006 18.3359)" cx="159.571" cy="332.369" rx="47.169" ry="46.269"/>
						</defs>
						<clipPath id="SVGID_00000087413896916152476440000016223924369977429168_">
							<use xlink:href="#SVGID_00000132792678127828993680000004941589595367777721_"  style="overflow:visible;"/>
						</clipPath>
						<g style="clip-path:url(#SVGID_00000087413896916152476440000016223924369977429168_);">
							<g>
								<path d="M113.822,315.811c1.905,4.288,4.35,8.337,7.515,11.757c3.137,3.443,6.993,6.169,11.184,8.157
									c4.186,2.017,8.696,3.311,13.269,4.199c4.582,0.872,9.231,1.417,13.895,1.853c0.145,0.013,0.271,0.095,0.346,0.207
									c3.467,5.288,6.18,11.069,7.99,17.116c0.908,3.021,1.635,6.098,2.089,9.215c0.462,3.115,0.723,6.259,0.715,9.401
									c-0.173-3.136-0.527-6.257-1.111-9.334c-0.592-3.074-1.342-6.116-2.324-9.084c-1.968-5.93-4.686-11.607-8.136-16.803
									l0.346,0.207c-4.678-0.406-9.372-0.885-13.998-1.835c-4.621-0.934-9.197-2.283-13.456-4.374
									c-4.25-2.092-8.111-4.998-11.217-8.56C117.819,324.368,115.498,320.189,113.822,315.811z"/>
							</g>
							<g>
								<path d="M189.079,295.055c2.206,2.039,4.141,4.361,5.938,6.771c1.805,2.408,3.423,4.95,4.937,7.547
									c1.488,2.613,2.873,5.286,4.072,8.043c1.204,2.753,2.285,5.567,3.058,8.469c-0.6-1.377-1.168-2.758-1.816-4.105
									c-0.617-1.36-1.261-2.706-1.938-4.036c-1.352-2.659-2.748-5.294-4.242-7.872c-1.479-2.588-3.057-5.116-4.697-7.605
									c-0.82-1.245-1.677-2.465-2.566-3.663c-0.429-0.612-0.895-1.194-1.342-1.794L189.079,295.055z"/>
							</g>
							<g>
								<path d="M159.264,342.205c2.67-3.748,5.49-7.387,8.441-10.924c2.953-3.536,6.078-6.928,9.382-10.16
									c3.388-3.166,7.094-5.969,11.03-8.387c3.94-2.407,8.092-4.488,12.455-5.967c-2.101,0.938-4.165,1.941-6.163,3.067
									c-2.012,1.097-3.973,2.282-5.878,3.549c-3.811,2.527-7.475,5.291-10.753,8.46c-3.327,3.138-6.429,6.525-9.492,9.938
									C165.224,335.202,162.259,338.712,159.264,342.205z"/>
							</g>
							<g>
								<path d="M174.366,324.632c1.507,1.572,2.925,3.237,4.235,4.987c1.283,1.769,2.498,3.594,3.568,5.506
									c1.108,1.892,2.036,3.884,2.875,5.909c0.859,2.019,1.553,4.104,2.175,6.208c1.149,4.236,1.852,8.595,1.956,12.985
									c0.025,2.195-0.109,4.402-0.535,6.561c-0.465,2.146-1.201,4.249-2.361,6.1c1.951-3.925,2.354-8.349,2.127-12.634
									c-0.138-2.153-0.377-4.302-0.712-6.434c-0.382-2.124-0.833-4.237-1.438-6.309c-1.137-4.162-2.751-8.195-4.761-12.021
									C179.515,331.645,177.078,328.04,174.366,324.632z"/>
							</g>
							<g>
								<path d="M186.304,313.824c3.223,2.37,6.089,5.235,8.555,8.416c2.461,3.188,4.448,6.735,6.013,10.451
									c1.486,3.74,2.557,7.7,2.751,11.749c0.094,2.02-0.03,4.054-0.43,6.034c-0.429,1.971-1.099,3.895-2.111,5.623
									c0.808-1.829,1.368-3.748,1.628-5.707c0.295-1.953,0.329-3.937,0.146-5.899c-0.346-3.928-1.378-7.779-2.909-11.422
									c-1.458-3.674-3.415-7.14-5.703-10.372C191.943,319.47,189.262,316.511,186.304,313.824z"/>
							</g>
							<g>
								<path d="M212.006,382.161c-0.467,0.214-0.803,0.152-1.107,0.025c-0.291-0.155-0.55-0.377-0.677-0.877
									c0.468-0.216,0.804-0.154,1.107-0.025C211.619,381.441,211.878,381.663,212.006,382.161z"/>
							</g>
							<g>
								<path d="M136.452,337.918c2.669-5.049,5.597-9.966,8.817-14.697c3.217-4.732,6.787-9.234,10.68-13.446
									c3.95-4.154,8.237-8.012,12.938-11.304c2.353-1.639,4.792-3.154,7.316-4.508c2.539-1.325,5.143-2.525,7.835-3.483
									c-2.605,1.168-5.153,2.45-7.595,3.911c-2.458,1.431-4.829,3.005-7.105,4.704c-4.56,3.387-8.802,7.195-12.659,11.364
									c-3.918,4.116-7.447,8.59-10.781,13.202C142.562,328.276,139.479,333.076,136.452,337.918z"/>
							</g>
							<g>
								<path d="M124.453,331.1c0.809-5.433,2.463-10.747,4.783-15.753c2.319-5.011,5.365-9.68,8.927-13.905
									c3.623-4.174,7.767-7.901,12.345-10.985c2.292-1.536,4.677-2.929,7.14-4.16c2.477-1.201,5.015-2.276,7.627-3.122
									c-2.532,1.058-5.016,2.217-7.4,3.557c-2.398,1.31-4.715,2.763-6.928,4.357c-4.431,3.175-8.514,6.841-12.025,11.002
									c-3.572,4.109-6.56,8.712-8.996,13.588C127.491,320.558,125.667,325.749,124.453,331.1z"/>
							</g>
							<g>
								<path d="M167.592,359.706c-2.59,0.436-5.206,0.775-7.838,0.919c-2.631,0.121-5.276,0.143-7.912-0.057
									c-5.272-0.374-10.499-1.479-15.491-3.247c-4.958-1.85-9.72-4.266-14.014-7.358c-2.14-1.552-4.19-3.229-6.078-5.074
									c-1.868-1.863-3.623-3.84-5.154-5.979c3.401,4.007,7.337,7.516,11.672,10.421c4.323,2.919,9.008,5.302,13.915,7.05
									c4.886,1.818,10.027,2.891,15.217,3.424C157.105,360.337,162.362,360.204,167.592,359.706z"/>
							</g>
							<g>
								<path d="M113.7,352.306c1.779,1.944,3.68,3.765,5.76,5.364c2.052,1.631,4.224,3.104,6.481,4.434
									c4.51,2.654,9.244,4.979,14.129,6.847c4.864,1.911,9.966,3.257,15.173,3.65c2.6,0.195,5.227,0.158,7.818-0.199
									c2.6-0.306,5.152-0.978,7.615-1.915c-2.375,1.146-4.931,1.925-7.54,2.399c-2.614,0.461-5.283,0.587-7.939,0.482
									c-5.325-0.24-10.531-1.623-15.486-3.486c-2.469-0.968-4.881-2.066-7.246-3.248c-2.361-1.19-4.704-2.433-6.925-3.879
									c-2.233-1.424-4.382-2.984-6.39-4.71C117.156,356.305,115.307,354.396,113.7,352.306z"/>
							</g>
						</g>
					</g>
				</g>
				<g>
					
						<ellipse transform="matrix(0.1894 -0.9819 0.9819 0.1894 -58.4313 522.7141)" style="fill:#FFD272;" cx="287.387" cy="296.748" rx="47.169" ry="46.269"/>
					<g>
						<defs>
							
								<ellipse id="SVGID_00000132082898795703587250000006331996246942181514_" transform="matrix(0.1894 -0.9819 0.9819 0.1894 -58.4313 522.7141)" cx="287.387" cy="296.748" rx="47.169" ry="46.269"/>
						</defs>
						<clipPath id="SVGID_00000020398529641205456460000001371915825593043847_">
							<use xlink:href="#SVGID_00000132082898795703587250000006331996246942181514_"  style="overflow:visible;"/>
						</clipPath>
						<path style="clip-path:url(#SVGID_00000020398529641205456460000001371915825593043847_);fill:#AADDF9;" d="M275.669,249.478
							c-6.955,6.109-15.02,13.026-20.266,20.653c-5.246,7.627-8.661,16.647-7.881,25.714c-3.051-0.903-5.48-0.544-7.592-2.509
							c0.4-9.7,4.353-18.84,10.234-26.564C256.045,259.048,265.433,252.522,275.669,249.478z"/>
						<path style="clip-path:url(#SVGID_00000020398529641205456460000001371915825593043847_);fill:#AADDF9;" d="M297.375,327.713
							c-12.105,7.991-27.823,9.863-41.678,5.569c5.437,5.868,11.335,8.316,19.139,10.074c7.804,1.758,17.175,0.245,24.952-2.318
							C299.465,336.153,298.709,333.293,297.375,327.713z"/>
						<path style="clip-path:url(#SVGID_00000020398529641205456460000001371915825593043847_);fill:#E4F0F6;" d="M296.355,247.611
							c-10.031,4.033-18.944,10.805-25.517,19.388c-6.573,8.583-10.788,18.954-12.067,29.689c0,0-11.137-0.68-11.231-0.665
							c-0.956-9.335,2.638-18.68,8.052-26.345c5.413-7.665,12.56-13.91,19.634-20.075L296.355,247.611z"/>
						<path style="clip-path:url(#SVGID_00000020398529641205456460000001371915825593043847_);fill:#E4F0F6;" d="M297.375,327.713
							c-5.881,3.963-14.137,7.285-21.793,7.692s-15.294-1.119-22.659-3.247c-5.2-1.503-10.52-3.437-14.266-7.344
							c0,0,0.524-14.294,0.643-14.551c7.587,4.771,16.409,7.56,25.361,8.016c8.951,0.456,17.804-1.151,25.836-5.127L297.375,327.713
							z"/>
						<path style="clip-path:url(#SVGID_00000020398529641205456460000001371915825593043847_);fill:#E4F0F6;" d="M298.795,263.511
							c9.181,4.793,16.755,11.493,22.564,20.068c5.809,8.575,9.876,17.402,10.499,27.719c-0.322,7.801-4.27,15.377-10.57,19.962
							c-0.466,0.072-0.933,0.144-1.009,0.251c-0.768-11.278-4.846-22.158-10.595-31.891c-5.749-9.733-13.139-18.398-20.796-26.66
							C291.155,269.643,298.417,264.144,298.795,263.511z"/>
						<path style="clip-path:url(#SVGID_00000020398529641205456460000001371915825593043847_);fill:#AADDF9;" d="M288.787,273.014
							c21.171,24.862,28.605,36.408,31.585,59.306c-4.572,6.387-12.549,10.793-20.409,11.002
							c-1.478-26.719-22.324-48.407-21.9-49.722C281.001,284.492,288.787,273.014,288.787,273.014z"/>
						<g style="clip-path:url(#SVGID_00000020398529641205456460000001371915825593043847_);">
							<g>
								<path d="M316.511,257.774c-4.656,0.578-9.241,1.743-13.432,3.779c-4.205,2.002-7.934,4.901-11.052,8.335
									c-3.145,3.421-5.692,7.361-7.869,11.479c-2.165,4.131-4.035,8.422-5.807,12.759c-0.054,0.135-0.17,0.232-0.299,0.271
									c-6.067,1.783-12.386,2.701-18.698,2.678c-3.154-0.008-6.31-0.205-9.425-0.675c-3.115-0.462-6.199-1.125-9.204-2.044
									c3.051,0.745,6.141,1.312,9.254,1.646c3.113,0.326,6.242,0.491,9.367,0.413c6.246-0.162,12.467-1.115,18.441-2.909
									l-0.298,0.271c1.746-4.359,3.567-8.712,5.819-12.863c2.235-4.151,4.854-8.139,8.092-11.607
									c3.235-3.46,7.137-6.311,11.447-8.25C307.163,259.116,311.835,258.108,316.511,257.774z"/>
							</g>
							<g>
								<path d="M314.53,335.816c-2.591,1.52-5.375,2.697-8.203,3.717c-2.828,1.029-5.73,1.839-8.655,2.534
									c-2.932,0.666-5.892,1.216-8.879,1.562c-2.984,0.353-5.99,0.571-8.992,0.468c1.492-0.174,2.978-0.317,4.456-0.546
									c1.48-0.196,2.956-0.422,4.424-0.683c2.937-0.522,5.863-1.093,8.765-1.775c2.905-0.664,5.783-1.441,8.641-2.287
									c1.429-0.424,2.846-0.89,4.251-1.393c0.71-0.233,1.402-0.51,2.107-0.763L314.53,335.816z"/>
							</g>
							<g>
								<path d="M278.063,293.6c2.811,3.643,5.475,7.398,8.004,11.248c2.527,3.852,4.866,7.827,7,11.927
									c2.047,4.161,3.653,8.521,4.824,12.99c1.16,4.469,1.946,9.046,2.095,13.65c-0.288-2.283-0.649-4.55-1.145-6.788
									c-0.466-2.243-1.03-4.465-1.69-6.655c-1.312-4.38-2.893-8.689-4.975-12.746c-2.038-4.095-4.378-8.046-6.755-11.968
									C283.036,301.335,280.537,297.479,278.063,293.6z"/>
							</g>
							<g>
								<path d="M290.496,313.152c-1.942,0.986-3.947,1.859-6.002,2.605c-2.064,0.714-4.164,1.347-6.304,1.816
									c-2.132,0.511-4.308,0.821-6.489,1.036c-2.181,0.236-4.378,0.295-6.572,0.28c-4.388-0.13-8.763-0.723-12.994-1.897
									c-2.108-0.613-4.18-1.382-6.123-2.416c-1.918-1.068-3.718-2.383-5.152-4.03c3.19,3.007,7.306,4.676,11.472,5.703
									c2.1,0.493,4.226,0.888,6.364,1.186c2.144,0.251,4.296,0.433,6.454,0.455c4.313,0.12,8.64-0.254,12.885-1.067
									C282.291,316.043,286.448,314.759,290.496,313.152z"/>
							</g>
							<g>
								<path d="M297.375,327.713c-3.203,2.396-6.777,4.308-10.537,5.743c-3.765,1.429-7.736,2.301-11.746,2.721
									c-4.011,0.337-8.111,0.212-12.041-0.778c-1.96-0.496-3.871-1.205-5.649-2.163c-1.761-0.983-3.408-2.182-4.768-3.652
									c1.515,1.304,3.189,2.397,4.989,3.215c1.783,0.849,3.672,1.458,5.603,1.852c3.86,0.809,7.844,0.939,11.775,0.532
									c3.939-0.329,7.823-1.196,11.581-2.447C290.335,331.471,293.945,329.764,297.375,327.713z"/>
							</g>
							<g>
								<path d="M224.519,332.473c-0.069-0.509,0.088-0.812,0.297-1.067c0.233-0.234,0.521-0.417,1.036-0.393
									c0.071,0.511-0.086,0.814-0.297,1.067C225.32,332.312,225.033,332.496,224.519,332.473z"/>
							</g>
							<g>
								<path d="M288.787,273.014c4.056,4.02,7.912,8.249,11.506,12.703c3.595,4.452,6.866,9.175,9.767,14.123
									c2.829,4.986,5.276,10.208,7.062,15.662c0.886,2.728,1.627,5.501,2.19,8.31c0.531,2.814,0.924,5.655,1.06,8.509
									c-0.361-2.832-0.849-5.643-1.538-8.404c-0.656-2.767-1.474-5.494-2.439-8.165c-1.917-5.346-4.33-10.511-7.2-15.412
									c-2.802-4.944-6.058-9.62-9.504-14.149C296.241,281.66,292.542,277.316,288.787,273.014z"/>
							</g>
							<g>
								<path d="M298.795,263.511c4.964,2.351,9.569,5.476,13.686,9.15c4.122,3.673,7.706,7.944,10.716,12.579
									c2.942,4.679,5.307,9.726,6.929,15.002c0.804,2.639,1.445,5.326,1.909,8.04c0.43,2.719,0.723,5.46,0.774,8.205
									c-0.278-2.73-0.666-5.444-1.256-8.114c-0.557-2.675-1.276-5.314-2.159-7.894c-1.753-5.162-4.075-10.133-7.038-14.701
									c-2.896-4.611-6.433-8.806-10.392-12.553C308.001,269.478,303.563,266.226,298.795,263.511z"/>
							</g>
							<g>
								<path d="M258.898,296.489c0.334-2.605,0.769-5.206,1.396-7.768c0.648-2.553,1.394-5.091,2.351-7.555
									c1.888-4.936,4.462-9.618,7.603-13.882c3.21-4.208,6.904-8.063,11.109-11.275c2.106-1.598,4.306-3.073,6.62-4.344
									c2.325-1.247,4.727-2.353,7.217-3.197c-4.821,2.092-9.322,4.84-13.36,8.144c-4.048,3.29-7.688,7.081-10.786,11.269
									c-3.158,4.148-5.677,8.756-7.693,13.568C261.339,286.271,259.941,291.34,258.898,296.489z"/>
							</g>
							<g>
								<path d="M281.623,247.065c-2.376,1.138-4.671,2.429-6.805,3.955c-2.156,1.49-4.197,3.141-6.124,4.915
									c-3.849,3.545-7.447,7.401-10.653,11.533c-3.24,4.1-6.01,8.591-7.897,13.46c-0.941,2.432-1.668,4.956-2.079,7.539
									c-0.462,2.577-0.559,5.214-0.378,7.842c-0.407-2.605-0.411-5.278-0.107-7.912c0.318-2.635,0.972-5.226,1.843-7.737
									c1.776-5.026,4.61-9.607,7.831-13.807c1.643-2.082,3.393-4.072,5.212-5.992c1.824-1.914,3.694-3.795,5.722-5.501
									c2.011-1.723,4.128-3.327,6.362-4.748C276.793,249.212,279.157,247.997,281.623,247.065z"/>
							</g>
						</g>
					</g>
				</g>
				<g>
					
						<ellipse transform="matrix(0.5141 -0.8577 0.8577 0.5141 -209.2806 339.549)" style="fill:#D4D5D8;" cx="195.039" cy="354.482" rx="48.429" ry="48.709"/>
					<g>
						<defs>
							
								<ellipse id="SVGID_00000013906342013471220810000017593863896905192377_" transform="matrix(0.5141 -0.8577 0.8577 0.5141 -209.2806 339.549)" cx="195.039" cy="354.482" rx="48.429" ry="48.709"/>
						</defs>
						<clipPath id="SVGID_00000124863733545445973020000008505752598974618786_">
							<use xlink:href="#SVGID_00000013906342013471220810000017593863896905192377_"  style="overflow:visible;"/>
						</clipPath>
						<g style="clip-path:url(#SVGID_00000124863733545445973020000008505752598974618786_);">
							<path style="fill:#001741;" d="M186.541,372.317c0,0,7.313-5.146,14.918-14.946c0.731-0.942,17.264,7.522,17.264,7.522
								s-0.621,13.716-3.503,19.247c-0.426,0.818-19.213,3.778-19.213,3.778L186.541,372.317z"/>
							<polygon style="fill:#001741;" points="196.229,405.567 185.24,397.353 167.21,392.228 163.891,396.666 							"/>
							<path style="fill:#001741;" d="M158.281,375.568c0.615,0.5,10.473-9.42,10.473-9.42l-3.655-20.31
								c0,0-11.066-1.469-11.475-0.731c-4.71,8.501-4.643,18.242-4.643,18.242S154.117,372.188,158.281,375.568z"/>
							<polygon style="fill:#001741;" points="219.393,400.002 224.816,389.799 238.042,381.806 							"/>
							<path style="fill:#001741;" d="M197.078,337.894l13.549-11.016c0,0-9.709-12.779-10.773-12.794
								c-12.884-0.194-19.861,3.78-19.861,3.78l-0.9,14.638L197.078,337.894z"/>
							<path style="fill:#001741;" d="M231.918,355.663c0,0-0.3-11.685-3.891-20.917c-0.338-0.868,11.455-8.053,11.455-8.053
								l9.396,30.316L231.918,355.663z"/>
							<polygon style="fill:#001741;" points="150.052,330.66 165.696,317.32 166.199,311.939 							"/>
						</g>
						<g style="clip-path:url(#SVGID_00000124863733545445973020000008505752598974618786_);">
							<g>
								<path style="fill:#001741;" d="M201.893,358.743c-1.184-3.533-2.072-7.13-2.887-10.742c-0.786-3.618-1.497-7.253-1.91-10.95
									c1.186,3.533,2.074,7.13,2.887,10.742C200.766,351.412,201.478,355.046,201.893,358.743z"/>
							</g>
							<g>
								<path style="fill:#001741;" d="M164.248,347.251c1.716-3.581,4.17-6.802,7.013-9.592c2.863-2.771,6.147-5.14,9.774-6.758
									c-3.225,2.303-6.284,4.737-9.076,7.474C169.147,341.092,166.633,344.086,164.248,347.251z"/>
							</g>
							<g>
								<path style="fill:#001741;" d="M187.686,372.766c-3.582-0.502-7.076-1.46-10.485-2.637c-3.4-1.206-6.728-2.637-9.839-4.482
									c3.435,1.123,6.785,2.368,10.169,3.539C180.905,370.384,184.3,371.502,187.686,372.766z"/>
							</g>
							<g>
								<path style="fill:#001741;" d="M167.655,393.163c-2.267-2.679-4.136-5.667-5.758-8.771c-1.595-3.118-2.95-6.371-3.821-9.772
									c1.609,3.116,3.105,6.237,4.709,9.313C164.363,387.023,166.043,390.049,167.655,393.163z"/>
							</g>
							<g>
								<path style="fill:#001741;" d="M184.381,398.152c2.107-2.112,4.302-4.067,6.471-6.061c2.188-1.973,4.34-3.975,6.643-5.872
									c-1.725,2.438-3.783,4.601-5.971,6.611C189.317,394.818,186.969,396.662,184.381,398.152z"/>
							</g>
							<g>
								<path style="fill:#001741;" d="M226.02,390.155c-2.098-0.755-4.031-1.821-5.898-2.985c-1.85-1.19-3.639-2.484-5.215-4.062
									c2.027,0.925,3.895,2.059,5.75,3.218C222.495,387.512,224.317,388.718,226.02,390.155z"/>
							</g>
							<g>
								<path style="fill:#001741;" d="M233.273,354.141c-1.9,2.779-4.376,5.15-7.11,7.127c-2.75,1.955-5.79,3.538-9.034,4.442
									c2.935-1.635,5.772-3.319,8.452-5.254C228.276,358.542,230.783,356.396,233.273,354.141z"/>
							</g>
							<g>
								<path style="fill:#001741;" d="M230.22,336.074c-3.264-1.812-6.49-3.592-9.825-5.173c-3.323-1.607-6.729-3.007-10.186-4.419
									c3.682,0.652,7.24,1.913,10.618,3.518C224.193,331.63,227.404,333.614,230.22,336.074z"/>
							</g>
							<g>
								<path style="fill:#001741;" d="M199.057,314.996c1.424-2.171,3.331-3.996,5.433-5.517c2.118-1.499,4.463-2.713,6.979-3.356
									c-2.198,1.369-4.346,2.687-6.397,4.169C203.004,311.752,201.062,313.358,199.057,314.996z"/>
							</g>
							<g>
								<path style="fill:#001741;" d="M182.945,318.604c-3.798-0.582-7.563-0.995-11.354-1.045
									c-3.79-0.077-7.566,0.209-11.382,0.659c3.65-1.225,7.54-1.711,11.399-1.658
									C175.468,316.641,179.338,317.258,182.945,318.604z"/>
							</g>
						</g>
					</g>
				</g>
				<g>
					<circle style="fill:#FFC384;" cx="290.032" cy="374.124" r="56.05"/>
					<g>
						<defs>
							<circle id="SVGID_00000046309476269733090490000001322917274584103340_" cx="290.032" cy="374.124" r="56.05"/>
						</defs>
						<clipPath id="SVGID_00000093860927308140327480000001725861464102113704_">
							<use xlink:href="#SVGID_00000046309476269733090490000001322917274584103340_"  style="overflow:visible;"/>
						</clipPath>
						<g style="clip-path:url(#SVGID_00000093860927308140327480000001725861464102113704_);">
							<g>
								<path d="M265.561,311.651c7.355,8.906,13.831,18.546,19.431,28.667c5.603,10.123,10.267,20.761,14.065,31.692
									c3.721,10.958,6.574,22.218,8.37,33.648l1.154,8.598l0.78,8.637l0.359,8.661l-0.047,8.663l-0.218-8.655l-0.583-8.632
									l-0.918-8.599l-1.286-8.548c-1.946-11.358-4.777-22.565-8.556-33.448c-3.703-10.909-8.357-21.49-13.793-31.651
									C278.879,330.523,272.591,320.811,265.561,311.651z"/>
							</g>
							<g>
								<path d="M296.109,312.068c8.737,6.794,16.274,15.129,22.365,24.403c6.094,9.278,10.692,19.54,13.611,30.261
									c2.84,10.741,3.988,21.932,3.315,33.013c-0.344,5.539-1.119,11.049-2.339,16.456c-1.253,5.398-2.911,10.704-5.071,15.798
									c1.948-5.176,3.507-10.491,4.592-15.901c1.117-5.402,1.802-10.89,2.05-16.394c0.509-11.004-0.623-22.089-3.511-32.713
									c-2.813-10.645-7.379-20.808-13.289-30.104c-2.952-4.653-6.268-9.078-9.907-13.225
									C304.309,319.492,300.339,315.63,296.109,312.068z"/>
							</g>
							<g>
								<path d="M249.644,321.357c-0.304,5.87-0.219,11.754,0.326,17.596c0.513,5.843,1.446,11.646,2.792,17.348
									c2.681,11.404,6.907,22.452,12.701,32.627c5.725,10.213,13.007,19.537,21.419,27.688c4.203,4.081,8.709,7.855,13.473,11.276
									c4.745,3.449,9.771,6.512,14.988,9.219c-5.32-2.504-10.412-5.492-15.271-8.818c-4.841-3.354-9.427-7.081-13.721-11.121
									c-8.58-8.091-15.919-17.497-21.758-27.753c-5.768-10.296-10.04-21.432-12.578-32.948
									C249.477,344.959,248.607,333.073,249.644,321.357z"/>
							</g>
							<g>
								<path d="M232.489,340.242c0.108,5.195,0.529,10.378,1.341,15.5c0.78,5.125,1.907,10.194,3.378,15.16
									c2.93,9.929,7.131,19.491,12.629,28.257c5.43,8.807,12.146,16.807,19.784,23.794c3.815,3.5,7.881,6.731,12.158,9.66
									c4.259,2.957,8.752,5.578,13.397,7.905c-4.745-2.123-9.301-4.667-13.67-7.498c-4.352-2.86-8.495-6.041-12.4-9.495
									c-7.801-6.921-14.574-14.997-20.117-23.839c-5.474-8.885-9.724-18.527-12.517-28.573
									C233.679,361.07,232.274,350.637,232.489,340.242z"/>
							</g>
							<g>
								<path d="M340.886,415.199c-5.455-0.85-11.017-0.831-16.412,0.11c-5.39,0.943-10.636,2.744-15.367,5.477
									c-4.771,2.662-9.012,6.234-12.605,10.361c-1.804,2.06-3.431,4.279-4.869,6.619c-1.467,2.324-2.708,4.79-3.793,7.329
									c0.874-2.621,2.034-5.148,3.371-7.578c1.366-2.415,2.943-4.713,4.704-6.867c3.532-4.301,7.866-7.948,12.7-10.734
									c4.872-2.718,10.229-4.569,15.739-5.364c2.754-0.392,5.539-0.548,8.312-0.453
									C335.437,414.227,338.197,414.562,340.886,415.199z"/>
							</g>
						</g>
					</g>
				</g>
			</g>
			<g>
				<path style="fill:#FFA3A6;" d="M119.049,352.445c2.068,1.985,1.936,6.583,6.996,6.355c2.864-0.129,7.413-1.662,9.701-3.389
					c5.484-4.137,10.969-8.275,16.453-12.412c1.306-0.985,2.655-1.992,4.236-2.412c1.581-0.42,3.469-0.117,4.486,1.164
					c1.582,1.991,0.313,4.921-1.166,6.989c-2.99,4.181-6.754,7.807-10.576,10.558c0.368,6.856,4.957,13.31,11.311,15.91
					c7.871,3.221,16.243,2.459,25.291,1.735c1.867-0.149,3.769,0.698,5.208,1.898c1.438,1.2,2.252,3.319,1.457,5.015
					c-1.106,2.361-12.917,6.027-21.656,6.445c7.405,2.233,15.239,3.034,22.943,2.348c1.719-0.153,3.462-0.379,5.16-0.068
					c1.698,0.31,3.385,1.267,4.074,2.849c0.689,1.582-0.011,3.772-1.692,5.389c1.724,0.862-6.018,6.027-10.818,6.411
					c-3.981,0.319-16.544,0.55-32.335-6.087c-12.331-5.183-7.998-3.436-20.33-8.619c-5.585-2.348-11.169-4.796-16.212-8.154
					c-5.043-3.358-11.081-9.101-19.131-15.974C108.376,364.845,119.121,357.092,119.049,352.445z"/>
				<g>
					<path d="M164.177,389.079c0.622,0.204,1.211,0.295,1.811,0.411c0.599,0.102,1.195,0.213,1.794,0.298
						c0.596,0.104,1.195,0.189,1.792,0.278c0.604,0.063,1.184,0.185,1.816,0.048c-0.451,0.524-1.196,0.661-1.824,0.733
						c-0.654,0.07-1.304,0.022-1.944-0.072c-0.637-0.112-1.266-0.273-1.863-0.541C165.171,389.971,164.563,389.628,164.177,389.079z
						"/>
				</g>
				<g>
					<path d="M162.059,394.993l2.198,1.357c0.761,0.402,1.502,0.834,2.273,1.207c0.779,0.359,1.536,0.76,2.324,1.094
						c0.795,0.318,1.577,0.665,2.38,0.958c3.206,1.185,6.507,2.116,9.872,2.682c3.359,0.589,6.778,0.838,10.184,0.681
						c1.703-0.079,3.398-0.295,5.072-0.643c0.842-0.149,1.654-0.421,2.489-0.627c0.813-0.266,1.606-0.598,2.424-0.883
						c-0.77,0.382-1.534,0.801-2.334,1.132c-0.818,0.28-1.622,0.628-2.461,0.853c-1.68,0.452-3.399,0.759-5.133,0.934
						c-3.472,0.343-6.981,0.115-10.411-0.464c-3.429-0.602-6.793-1.579-9.986-2.956C167.76,398.95,164.7,397.227,162.059,394.993z"
						/>
				</g>
			</g>
			<g>
				<path style="fill:#FFA3A6;" d="M343.183,379.091c-5.344,5.343-11.48,9.378-15.275,10.231c-3.218,0.723-6.607,0.673-9.408-1.069
					c-11.641-7.242-23.998-13.334-36.832-18.158c-2.294-0.862-5.38-1.462-6.773,0.554c-0.819,1.186-0.597,2.854,0.156,4.083
					c0.753,1.229,1.94,2.117,3.099,2.974c4.9,3.623,9.799,7.245,14.348,10.885c0.588,3.198-1.408,6.454-4.152,8.2
					c-2.744,1.746-6.089,2.249-9.337,2.427c-8.242,0.451-13.436,0.186-21.205-2.604c-5.466-1.963-8.785-3.788-11.334,0.541
					c-1.293,2.196,1.936,5.882,4.114,7.913c-2.434-1.197-9.165,0.972-4.688,6.424c2.179,2.653,6.939,5.241,7.756,5.728
					c0.682-0.763-1.788,2.127,0,5.349c0.785,1.414,4.644,2.921,6.146,3.518c5.151,2.047,7.549,1.927,14.796,2.914
					c5.242,6.832,15.664,2.991,19.311,2.24c19.664-4.055,34.08-11.324,55.85-20.863
					C348.681,402.689,346.543,388.384,343.183,379.091z"/>
				<g>
					<path d="M248.67,404.242c2.547,0.903,5.081,1.806,7.64,2.627c2.562,0.81,5.127,1.596,7.721,2.284
						c2.587,0.711,5.199,1.325,7.82,1.915c1.311,0.292,2.629,0.56,3.95,0.814l3.972,0.768c-1.352-0.041-2.697-0.168-4.045-0.283
						c-1.343-0.156-2.682-0.34-4.021-0.543c-2.675-0.416-5.321-1.01-7.938-1.706c-2.611-0.719-5.196-1.538-7.716-2.527
						C253.531,406.613,251.052,405.523,248.67,404.242z"/>
				</g>
				<g>
					<path d="M253.653,417.22c2.059,0.688,4.111,1.341,6.19,1.88c2.082,0.527,4.172,0.999,6.287,1.34
						c2.111,0.365,4.241,0.6,6.381,0.778c1.071,0.085,2.145,0.138,3.221,0.17l1.619,0.051c0.539-0.005,1.081,0.003,1.625,0.019
						c-1.069,0.2-2.149,0.308-3.233,0.42c-1.085,0.068-2.173,0.101-3.264,0.109c-2.181,0.002-4.36-0.211-6.514-0.56
						c-2.15-0.372-4.28-0.88-6.342-1.592C257.56,419.133,255.547,418.286,253.653,417.22z"/>
				</g>
				<g>
					<path d="M274.29,429.201c2.221,0.258,4.361,0.466,6.523,0.44c2.162,0.001,4.299-0.23,6.518-0.51
						c-1.991,1.042-4.264,1.485-6.513,1.509C278.569,430.638,276.292,430.22,274.29,429.201z"/>
				</g>
			</g>
		</g>
		<g style="clip-path:url(#SVGID_00000085950078213358955810000000050227777406064006_);">
			<path style="fill:#FFC384;" d="M460.165,224.396c-0.118-2.876,0.28-6.473,4.131-7.539c-2.706-1.182-4.118-3.917-3.842-6.857
				c-0.543,2.942-1.901,6.206-5.538,6.321C459.238,217.44,460.091,221.624,460.165,224.396z"/>
			<path style="fill:#FFC384;" d="M130.112,162.59c-0.118-2.876,0.28-6.473,4.131-7.539c-2.706-1.182-4.118-3.917-3.842-6.857
				c-0.544,2.942-1.901,6.206-5.538,6.321C129.184,155.634,130.037,159.818,130.112,162.59z"/>
			<path style="fill:none;stroke:#FFC384;stroke-linecap:round;stroke-linejoin:round;stroke-miterlimit:10;" d="M433.992,198.081
				c-0.081,2.162-1.9,3.85-4.062,3.769c-2.163-0.081-3.85-1.9-3.769-4.062c0.081-2.162,1.9-3.85,4.062-3.769
				C432.386,194.1,434.073,195.919,433.992,198.081z"/>
			<path style="fill:none;stroke:#FFC384;stroke-linecap:round;stroke-linejoin:round;stroke-miterlimit:10;" d="M46.251,421.028
				c-0.081,2.163-1.9,3.85-4.062,3.769c-2.162-0.081-3.85-1.9-3.769-4.062c0.081-2.162,1.9-3.85,4.062-3.769
				C44.645,417.046,46.332,418.865,46.251,421.028z"/>
			<path style="fill:none;stroke:#FFC384;stroke-linecap:round;stroke-linejoin:round;stroke-miterlimit:10;" d="M147.123,198.081
				c-0.081,2.162-1.9,3.85-4.062,3.769c-2.162-0.081-3.85-1.9-3.769-4.062c0.081-2.162,1.9-3.85,4.062-3.769
				C145.517,194.1,147.204,195.919,147.123,198.081z"/>
			<path style="fill:#FFC384;" d="M445.057,235.54c-0.041,1.081-0.859,1.928-1.828,1.892c-0.969-0.036-1.722-0.942-1.682-2.023
				c0.041-1.081,0.859-1.928,1.828-1.892S445.098,234.459,445.057,235.54z"/>
			<path style="fill:#FFC384;" d="M431.831,172.442c-0.04,1.081-0.859,1.928-1.828,1.892s-1.722-0.942-1.682-2.024
				c0.041-1.081,0.859-1.928,1.829-1.892C431.119,170.455,431.872,171.361,431.831,172.442z"/>
			<g>
				<path style="fill:#FFC384;" d="M51.505,373.448c-0.017-0.149-0.131-0.412-0.134-0.637l-0.05-0.594
					c-0.024-0.397-0.04-0.798-0.01-1.2c0.054-0.8,0.175-1.62,0.493-2.395c0.308-0.776,0.809-1.5,1.467-2.05
					c0.653-0.558,1.449-0.913,2.253-1.114l-0.055,0.779c-1.344-0.661-2.406-1.79-3.036-3.083c-0.653-1.287-0.932-2.73-0.869-4.174
					l0.454,0.063c-0.21,1.527-0.566,3.104-1.495,4.473c-0.467,0.672-1.086,1.273-1.831,1.684c-0.743,0.414-1.59,0.629-2.421,0.656
					l0.117-1.049c0.899,0.234,1.764,0.648,2.505,1.228c0.741,0.582,1.321,1.342,1.743,2.153c0.431,0.811,0.674,1.694,0.817,2.571
					c0.08,0.438,0.116,0.881,0.127,1.322c0.012,0.22,0.005,0.441,0.006,0.66C51.61,372.949,51.52,373.286,51.505,373.448z
					 M51.501,373.348c-0.038-0.271-0.135-0.369-0.147-0.592c-0.038-0.213-0.068-0.426-0.117-0.636
					c-0.091-0.42-0.187-0.837-0.31-1.243c-0.241-0.814-0.582-1.585-1.007-2.284c-0.86-1.412-2.242-2.339-3.799-2.754
					c-0.285-0.076-0.454-0.369-0.378-0.654c0.062-0.23,0.269-0.385,0.495-0.396c0.696-0.033,1.376-0.165,1.986-0.471
					c0.611-0.302,1.142-0.768,1.574-1.331c0.873-1.128,1.414-2.565,1.769-4.027l0.006-0.024c0.03-0.123,0.153-0.198,0.276-0.168
					c0.115,0.028,0.189,0.14,0.172,0.256c-0.199,1.345,0.027,2.783,0.72,3.965c0.697,1.184,1.83,2.037,3.06,2.491
					c0.21,0.078,0.317,0.311,0.24,0.52c-0.044,0.119-0.138,0.205-0.249,0.243l-0.046,0.016c-0.7,0.236-1.353,0.556-1.91,0.999
					c-0.556,0.444-0.997,1.024-1.321,1.681c-0.319,0.66-0.551,1.386-0.681,2.141c-0.062,0.378-0.125,0.76-0.171,1.146l-0.057,0.583
					C51.608,372.975,51.509,373.104,51.501,373.348z"/>
			</g>
			<path style="fill:#FFC384;" d="M89.704,155.458c-0.04,1.081-0.859,1.928-1.828,1.892s-1.722-0.942-1.682-2.023
				c0.041-1.081,0.859-1.928,1.828-1.892C88.992,153.471,89.745,154.377,89.704,155.458z"/>
			<path style="fill:#FFC384;" d="M89.704,436.463c-0.04,1.081-0.859,1.928-1.828,1.892c-0.969-0.036-1.722-0.942-1.682-2.023
				c0.041-1.081,0.859-1.928,1.828-1.892C88.992,434.476,89.745,435.382,89.704,436.463z"/>
			<path style="fill:#FFC384;" d="M171.135,172.442c-0.04,1.081-0.859,1.928-1.828,1.892c-0.969-0.036-1.722-0.942-1.682-2.024
				c0.041-1.081,0.859-1.928,1.828-1.892C170.422,170.455,171.175,171.361,171.135,172.442z"/>
		</g>
	</g>
</g>
</svg>
