<?xml version="1.0" encoding="UTF-8"?>
<svg version="1.1" xmlns="http://www.w3.org/2000/svg" width="225" height="225">
<path d="M0 0 C74.25 0 148.5 0 225 0 C225 74.25 225 148.5 225 225 C150.75 225 76.5 225 0 225 C0 150.75 0 76.5 0 0 Z " fill="#E4E4E4" transform="translate(0,0)"/>
<path d="M0 0 C0.85980469 -0.00773437 1.71960938 -0.01546875 2.60546875 -0.0234375 C16.68753566 0.01930018 28.42062035 5.6240153 38.52734375 15.3671875 C61.79158311 41.18524562 67.11865307 81.77034073 67.625 115.25 C67.64353027 115.97815918 67.66206055 116.70631836 67.68115234 117.45654297 C67.61526527 122.86315866 66.20291459 125.94935221 63.125 130.25 C59.4811733 132.85950616 56.2568696 133.84951143 51.87109375 134.63671875 C50.68708984 134.85263672 49.50308594 135.06855469 48.28320312 135.29101562 C47.05537109 135.50435547 45.82753906 135.71769531 44.5625 135.9375 C42.71495117 136.27491211 42.71495117 136.27491211 40.83007812 136.61914062 C31.73394757 138.25 31.73394757 138.25 27.125 138.25 C27.47433594 138.78109375 27.82367188 139.3121875 28.18359375 139.859375 C28.63863281 140.56578125 29.09367187 141.2721875 29.5625 142 C30.01496094 142.69609375 30.46742188 143.3921875 30.93359375 144.109375 C32.1394493 146.27596137 32.82298522 147.79329235 33.125 150.25 C32.06837463 151.90789795 32.06837463 151.90789795 30.39282227 153.54980469 C29.77210342 154.17014587 29.15138458 154.79048706 28.51185608 155.42962646 C27.82860764 156.08706848 27.14535919 156.7445105 26.44140625 157.421875 C25.75191391 158.1042926 25.06242157 158.78671021 24.35203552 159.48980713 C22.14195201 161.67184885 19.91513937 163.83589786 17.6875 166 C16.1883206 167.47410951 14.69025846 168.94935622 13.19335938 170.42578125 C9.51675222 174.04718878 5.82504551 177.65254939 2.125 181.25 C-4.2523362 175.88789993 -10.2191074 170.19356736 -16.13916016 164.3359375 C-17.30545408 163.18637522 -18.47710878 162.04222878 -19.65380859 160.90332031 C-21.36468278 159.2469024 -23.05879576 157.57490461 -24.75 155.8984375 C-25.28004639 155.39106049 -25.81009277 154.88368347 -26.35620117 154.3609314 C-27.8046875 152.90380859 -27.8046875 152.90380859 -29.875 150.25 C-29.84472718 147.01459267 -28.04894663 144.67145636 -26.3125 142 C-25.85746094 141.29359375 -25.40242188 140.5871875 -24.93359375 139.859375 C-24.40958984 139.06273437 -24.40958984 139.06273437 -23.875 138.25 C-24.73496582 138.13724731 -24.73496582 138.13724731 -25.61230469 138.0222168 C-56.54915879 133.91777857 -56.54915879 133.91777857 -62.875 127.25 C-72.31547205 108.3690559 -60.69169848 66.80388753 -54.4296875 47.640625 C-47.74838446 28.50650096 -37.38343495 12.50540949 -18.8046875 3.51171875 C-12.26405589 0.69488674 -7.05720339 -0.06291712 0 0 Z " fill="#FEAA7F" transform="translate(110.875,22.75)"/>
<path d="M0 0 C74.25 0 148.5 0 225 0 C225 74.25 225 148.5 225 225 C150.75 225 76.5 225 0 225 C0 150.75 0 76.5 0 0 Z M87 10 C85.42992188 10.40025391 85.42992188 10.40025391 83.828125 10.80859375 C56.93976737 18.18649676 35.14623002 35.689169 20.94921875 59.453125 C6.84307808 84.52758154 3.08598869 112.84589638 10.35839844 140.74267578 C14.57429395 155.57531272 22.11465917 169.20992276 32 181 C32.48726562 181.62003906 32.97453125 182.24007812 33.4765625 182.87890625 C34.59997639 184.29467054 35.79286566 185.65490745 37 187 C37.66 187 38.32 187 39 187 C39.25136719 187.58265625 39.50273438 188.1653125 39.76171875 188.765625 C46.96613044 201.76538363 67.41377981 210.56944318 81.27246094 214.67285156 C86.14526557 215.97075774 91.05055733 217.03904349 96 218 C96.99386719 218.19335938 97.98773438 218.38671875 99.01171875 218.5859375 C125.57947906 222.26722194 154.25682258 214.09661413 175.6875 198.3125 C179.3952753 195.44382519 182.8218554 192.45301116 186 189 C186 188.34 186 187.68 186 187 C186.60360352 186.73533936 187.20720703 186.47067871 187.82910156 186.19799805 C190.10322702 184.94303475 191.17208969 183.87836794 192.734375 181.83203125 C193.22220459 181.19386475 193.71003418 180.55569824 194.21264648 179.89819336 C194.71997314 179.20991455 195.2272998 178.52163574 195.75 177.8125 C196.27859619 177.09779541 196.80719238 176.38309082 197.35180664 175.64672852 C205.58635226 164.27366254 211.2425361 152.54964253 215 139 C215.3196875 137.8553125 215.639375 136.710625 215.96875 135.53125 C219.8070213 119.46737381 219.42882116 101.88637873 215 86 C214.50693359 84.19402344 214.50693359 84.19402344 214.00390625 82.3515625 C209.70528116 68.16163746 202.88560752 55.08924436 193 44 C192.36449219 43.23429687 191.72898438 42.46859375 191.07421875 41.6796875 C174.78776288 22.42315651 149.00370942 9.75508648 124 7 C111.35640582 6.36551874 99.21659973 6.45473048 87 10 Z " fill="#FEFEFE" transform="translate(0,0)"/>
<path d="M0 0 C0.85980469 -0.00773437 1.71960938 -0.01546875 2.60546875 -0.0234375 C16.68753566 0.01930018 28.42062035 5.6240153 38.52734375 15.3671875 C61.79158311 41.18524562 67.11865307 81.77034073 67.625 115.25 C67.64353027 115.97815918 67.66206055 116.70631836 67.68115234 117.45654297 C67.61526527 122.86315866 66.20291459 125.94935221 63.125 130.25 C58.67216297 134.16747685 52.54508656 134.51169806 46.875 135.4375 C45.87597656 135.61474609 44.87695312 135.79199219 43.84765625 135.97460938 C37.85302104 136.98938749 32.20264127 137.43283361 26.125 137.25 C25.91931146 133.6050182 25.796593 129.96154937 25.6875 126.3125 C25.59952148 124.78012695 25.59952148 124.78012695 25.50976562 123.21679688 C25.35063736 116.10148999 26.64970048 112.61675967 31.36791992 107.31616211 C33.91068883 104.32610329 35.1793919 101.15648139 36.5 97.5 C36.74621094 96.86707031 36.99242187 96.23414062 37.24609375 95.58203125 C38.27950986 92.86578454 39.11954239 90.28169782 39.61328125 87.4140625 C40.42118278 83.99744074 43.28146865 83.14568756 46.125 81.25 C51.31022457 74.9731492 50.7688448 68.12390526 50.125 60.25 C49.07275333 58.97443182 49.07275333 58.97443182 46.6875 59.125 C44.13521378 59.07693324 44.13521378 59.07693324 42.125 60.25 C42.125 57.28 42.125 54.31 42.125 51.25 C41.41730469 51.41113281 40.70960938 51.57226562 39.98046875 51.73828125 C26.53309325 54.14813924 11.92939791 51.14207027 0.57421875 43.54296875 C-1.63565934 41.83820565 -3.76531891 40.07672583 -5.875 38.25 C-7.06161098 37.26975615 -8.24899865 36.290451 -9.4375 35.3125 C-10.241875 34.631875 -11.04625 33.95125 -11.875 33.25 C-12.40867188 33.84167969 -12.94234375 34.43335938 -13.4921875 35.04296875 C-20.92968547 42.93083424 -28.28280087 47.09232981 -38.875 49.25 C-39.205 52.55 -39.535 55.85 -39.875 59.25 C-40.844375 59.229375 -41.81375 59.20875 -42.8125 59.1875 C-45.74965895 58.89381501 -45.74965895 58.89381501 -46.875 60.25 C-47.58768775 67.75358385 -47.88181574 74.36405112 -43.45703125 80.69921875 C-41.86020765 82.41500632 -41.86020765 82.41500632 -39.32421875 83.578125 C-36.07046211 85.79919014 -35.81140977 87.53534712 -34.875 91.3125 C-32.87281831 98.5332195 -30.69375271 105.49388624 -25.23828125 110.828125 C-21.562649 115.12808876 -22.29816253 120.1929274 -22.5 125.5625 C-22.51417969 126.57634766 -22.52835938 127.59019531 -22.54296875 128.63476562 C-22.69231673 136.06731673 -22.69231673 136.06731673 -23.875 137.25 C-30.80919433 137.55849803 -37.25030214 136.74279716 -44.0625 135.5 C-45.02091797 135.34273437 -45.97933594 135.18546875 -46.96679688 135.0234375 C-53.3090785 133.88384301 -58.041847 132.38278489 -62.50708008 127.4453125 C-64.17652942 124.76608914 -64.26182799 123.15682772 -64.2734375 120.015625 C-64.27964111 118.97897705 -64.28584473 117.9423291 -64.29223633 116.87426758 C-64.27829834 115.76075928 -64.26436035 114.64725098 -64.25 113.5 C-64.24057373 112.34201904 -64.23114746 111.18403809 -64.22143555 109.9909668 C-63.65033462 76.54629541 -57.85996504 38.43079996 -34.0078125 13.28125 C-24.56187868 4.34484788 -12.82366401 -0.11432687 0 0 Z " fill="#603813" transform="translate(110.875,22.75)"/>
<path d="M0 0 C0.92223757 1.00041994 1.84150158 2.0035843 2.75878906 3.00854492 C3.98289724 4.24355969 5.21297123 5.47267716 6.44750977 6.69726562 C16.55126953 16.80102539 26.6550293 26.90478516 36.75878906 37.00854492 C41.70560011 32.86181373 46.35581131 28.54758053 50.89941406 23.96557617 C51.54827576 23.31529953 52.19713745 22.66502289 52.86566162 21.99504089 C54.91575622 19.93940308 56.96232949 17.8803009 59.00878906 15.82104492 C60.39657638 14.42823409 61.78459519 13.03565387 63.17285156 11.64331055 C66.21944429 8.58694632 69.26382713 5.52840102 72.30621338 2.46784973 C72.78556335 1.98627914 73.26491333 1.50470856 73.75878906 1.00854492 C74.24506775 0.44258102 74.73134644 -0.12338287 75.23236084 -0.70649719 C75.73608215 -1.13053329 76.23980347 -1.5545694 76.75878906 -1.99145508 C79.43199943 -1.64504135 81.69337207 -1.16924242 84.25878906 -0.42895508 C84.97276855 -0.23495117 85.68674805 -0.04094727 86.42236328 0.15893555 C103.7476126 4.97215383 103.7476126 4.97215383 109.75878906 10.00854492 C109.75878906 13.00854492 109.75878906 13.00854492 108.02832031 14.98901367 C90.68117402 30.57110851 67.31412817 41.07232318 43.75878906 42.00854492 C42.56640625 42.07170898 41.37402344 42.13487305 40.14550781 42.19995117 C13.95861219 43.15884632 -12.87369079 33.90244941 -32.24121094 16.00854492 C-33.60622445 14.36772389 -34.94839592 12.70683374 -36.24121094 11.00854492 C-28.73390783 4.63543869 -19.68984621 1.89675032 -10.30371094 -0.61645508 C-9.5821582 -0.82979492 -8.86060547 -1.04313477 -8.1171875 -1.26293945 C-2.8802951 -2.55932104 -2.8802951 -2.55932104 0 0 Z " fill="#2C6980" transform="translate(75.2412109375,176.991455078125)"/>
<path d="M0 0 C10.66666667 10.66666667 21.33333333 21.33333333 32 32 C36.47817653 28.24947624 40.75544276 24.38614874 44.86328125 20.234375 C45.6403669 19.45516693 45.6403669 19.45516693 46.43315125 18.66021729 C48.06200002 17.02584595 49.68731045 15.38800918 51.3125 13.75 C52.419687 12.63778697 53.52710709 11.52580593 54.63476562 10.4140625 C56.65158667 8.38912105 58.66713507 6.36293351 60.6809082 4.33496094 C62.11832637 2.88770677 63.55765545 1.44234455 65 0 C66.65 0.99 68.3 1.98 70 3 C69.48344486 7.07307042 68.49230625 9.00236004 65.58178711 11.87231445 C64.86111557 12.59268387 64.14044403 13.31305328 63.39793396 14.05525208 C62.61563919 14.8169017 61.83334442 15.57855133 61.02734375 16.36328125 C60.22970108 17.15526413 59.43205841 17.94724701 58.61024475 18.76322937 C56.06189867 21.28919543 53.49999418 23.80089563 50.9375 26.3125 C49.20677064 28.02316669 47.47694149 29.73474467 45.74804688 31.44726562 C41.50908486 35.64213851 37.25890798 39.82538425 33 44 C27.97311311 39.77701044 23.20339345 35.38795787 18.53515625 30.7734375 C17.85698349 30.10333649 17.17881073 29.43323547 16.48008728 28.74282837 C15.06103538 27.33750636 13.64345508 25.93069694 12.22729492 24.52246094 C10.77598449 23.08277147 9.32019262 21.6475865 7.86010742 20.21679688 C5.74202526 18.14112849 3.6372719 16.0527594 1.53515625 13.9609375 C0.87902847 13.32231781 0.2229007 12.68369812 -0.45310974 12.02572632 C-1.05115921 11.42475128 -1.64920868 10.82377625 -2.26538086 10.20458984 C-2.7949791 9.68085785 -3.32457733 9.15712585 -3.870224 8.61752319 C-5 7 -5 7 -5 3 C-2.5 1.25 -2.5 1.25 0 0 Z " fill="#FEFCFB" transform="translate(80,171)"/>
<path d="M0 0 C0.46148437 0.36351562 0.92296875 0.72703125 1.3984375 1.1015625 C12.46012081 9.99830848 12.46012081 9.99830848 25.78125 13.40625 C34.44469608 11.81998523 41.90021936 6.06389957 48 0 C48.703125 1.7578125 48.703125 1.7578125 49 4 C44.24210801 11.2543168 35.26818862 16.7517413 26.93359375 18.7265625 C18.98872496 19.46709621 12.04927491 14.67855906 6 10 C3.71073515 8.09227929 1.94603377 6.29532188 0 4 C0 2.68 0 1.36 0 0 Z " fill="#EF9978" transform="translate(88,139)"/>
<path d="M0 0 C0.33 0 0.66 0 1 0 C1.33 11.88 1.66 23.76 2 36 C-3.30897753 32.81461348 -5.89962592 30.77168911 -8 25 C-8.50535281 20.29196821 -8.58631803 15.70288778 -8 11 C-6 9 -6 9 -3.375 8.875 C-2.59125 8.91625 -1.8075 8.9575 -1 9 C-0.67 6.03 -0.34 3.06 0 0 Z " fill="#FBA97F" transform="translate(71,72)"/>
<path d="M0 0 C0.33 0 0.66 0 1 0 C1.33 11.88 1.66 23.76 2 36 C-2.26226334 31.73773666 -1.29769956 23.8898359 -1.5625 18.125 C-1.60568359 17.24585937 -1.64886719 16.36671875 -1.69335938 15.4609375 C-1.79869339 13.30744203 -1.89977649 11.15373936 -2 9 C-1.67 9 -1.34 9 -1 9 C-0.67 6.03 -0.34 3.06 0 0 Z " fill="#E19170" transform="translate(71,72)"/>
</svg>
